<svg xmlns="http://www.w3.org/2000/svg" fill="none" viewBox="0 0 100 100" height="100" width="100">
<path fill="#222222" d="M98.8839 100H1.11612C0.500022 100 0 99.5 0 98.8839V1.11612C0 0.500022 0.500022 0 1.11612 0H98.8839C99.5 0 100 0.500022 100 1.11612V98.8839C100 99.5 99.5 100 98.8839 100ZM2.23224 97.7678H97.7678V2.23224H2.23224V97.7678Z"></path>
<path fill="#222222" d="M44.0913 56.2971C41.2117 56.2971 38.4616 55.1408 35.9124 52.855C35.8811 52.8282 35.8543 52.8015 35.8276 52.7702L30.0059 46.3235C29.5907 45.8681 29.6308 45.1583 30.0862 44.7475C30.5461 44.3323 31.2515 44.368 31.6622 44.8279L37.4437 51.23C39.8099 53.3372 42.3278 54.2747 44.9351 54.0203C50.422 53.489 54.6811 47.9173 54.7257 47.8593C58.1009 43.31 59.3688 39.3544 58.4937 36.0998C57.4892 32.3854 53.8998 30.8049 53.8641 30.7871C53.8507 30.7826 53.8328 30.7737 53.8194 30.7692L43.9038 26.0413C43.3457 25.7779 43.1136 25.1083 43.377 24.5547C43.6404 23.9966 44.3056 23.76 44.8637 24.0279L54.7614 28.7468C55.1856 28.9299 59.3777 30.8674 60.6412 35.4882C61.7216 39.4393 60.3331 44.0511 56.516 49.1942C56.3151 49.462 51.6363 55.6007 45.1673 56.2391C44.8056 56.2748 44.4485 56.2927 44.0913 56.2927V56.2971Z"></path>
<path fill="#222222" d="M71.9407 62.351C71.6996 62.351 71.4585 62.2751 71.2576 62.1144L54.9355 49.4174C54.4488 49.0379 54.3596 48.337 54.739 47.8504C55.1185 47.3637 55.8194 47.2744 56.3061 47.6539L72.6282 60.3509C73.1148 60.7304 73.2041 61.4313 72.8247 61.9179C72.6059 62.1992 72.2755 62.3465 71.9407 62.3465V62.351Z"></path>
<path fill="#222222" d="M68.1993 72.7041C68.0743 72.7041 67.9449 72.6818 67.8198 72.6372C67.3645 72.472 67.0698 72.0345 67.0832 71.5478C67.1011 71.0657 67.6413 59.6411 80.9945 53.5247C81.4633 53.3104 82.0169 53.4444 82.3339 53.8462C82.6509 54.248 82.6553 54.8194 82.3383 55.2257L69.0788 72.2711C68.8645 72.5479 68.5342 72.6997 68.1993 72.6997V72.7041ZM76.9453 58.5249C73.4406 61.217 71.5432 64.2931 70.5209 66.7842L76.9453 58.5249Z"></path>
<path fill="#222222" d="M43.5822 51.4576C41.7786 51.4576 38.3365 50.596 35.5774 44.8234C35.381 44.4127 35.4524 43.9261 35.7604 43.5868C36.0685 43.2519 36.5462 43.1358 36.9748 43.2921C36.9882 43.2921 38.4972 43.8368 40.6982 43.8368C44.2296 43.8368 49.2968 42.4662 53.4086 35.9257C53.6764 35.5016 54.1943 35.3051 54.6765 35.4525C55.1586 35.5998 55.4845 36.0462 55.4711 36.5507C55.4711 36.6713 55.0604 48.6138 45.051 51.2433C44.8546 51.3058 44.3323 51.4532 43.5867 51.4532L43.5822 51.4576ZM38.7695 45.9574C40.6491 48.7522 42.5241 49.2254 43.5822 49.2254C44.0555 49.2254 44.3501 49.1272 44.3546 49.1272C44.3769 49.1183 44.4215 49.1049 44.4483 49.1004C49.2477 47.8548 51.4308 43.9841 52.4219 40.859C48.3994 45.0734 43.984 46.0735 40.6982 46.0735C39.9928 46.0735 39.3454 46.0244 38.774 45.9574H38.7695Z"></path>
<path fill="#222222" d="M23.3001 49.2924C22.9072 49.2924 22.5411 49.1093 22.2911 48.7968C22.0456 48.4798 21.5679 47.8727 22.4385 43.6493C22.0322 43.993 21.6438 44.3859 21.358 44.7252C21.3357 44.752 21.3134 44.7743 21.2911 44.8011C19.7374 46.3547 18.5276 47.0825 17.4829 47.0825C16.8846 47.0825 16.34 46.8369 15.9516 46.3905C15.0274 45.3368 15.2015 43.4394 15.273 42.8814C15.273 42.8546 15.2819 42.8278 15.2863 42.801C16.331 37.7472 19.6392 35.0775 24.8493 35.0775C29.028 35.0775 32.9657 36.832 33.1309 36.9034C33.6086 37.1177 33.872 37.6401 33.7648 38.1535C33.6532 38.6669 33.1979 39.033 32.6755 39.033C31.0237 39.033 27.5146 43.5243 25.2109 47.6852C25.202 47.703 25.193 47.7164 25.1841 47.7343C24.5903 48.6941 24.068 49.2879 23.3046 49.2879L23.3001 49.2924ZM17.4829 43.2117C17.4114 43.81 17.4606 44.5377 17.5811 44.8279C17.8043 44.7654 18.4338 44.4931 19.6794 43.2519C20.1348 42.7117 22.0992 40.5375 24.0367 40.5375C24.3805 40.5375 24.7019 40.6938 24.9162 40.9661C25.1261 41.234 25.202 41.5867 25.1216 41.9215C24.9296 42.7117 24.7421 43.5689 24.5814 44.3814C25.8449 42.3769 27.7735 39.658 29.7647 38.0821C28.4075 37.6892 26.6351 37.3142 24.8537 37.3142C20.733 37.3142 18.3222 39.2428 17.4829 43.2162V43.2117Z"></path>
<path fill="#222222" d="M82.0617 81.9948H17.7731C17.157 81.9948 16.657 81.4948 16.657 80.8787C16.657 80.2626 17.157 79.7626 17.7731 79.7626H82.0617C82.6778 79.7626 83.1778 80.2626 83.1778 80.8787C83.1778 81.4948 82.6778 81.9948 82.0617 81.9948Z"></path>
</svg>
