<svg xmlns="http://www.w3.org/2000/svg" fill="none" viewBox="0 0 100 100" height="100" width="100">
<path fill="#222222" d="M74.2623 75.6775C73.9721 75.6775 73.6864 75.5659 73.4676 75.3427L26.1083 27.2557C25.6753 26.8182 25.6798 26.1084 26.1217 25.6753C26.5593 25.2422 27.2691 25.2467 27.7022 25.6887L75.0614 73.7801C75.4945 74.2176 75.49 74.9275 75.048 75.3606C74.8293 75.5748 74.548 75.682 74.2667 75.682L74.2623 75.6775Z"></path>
<path fill="#222222" d="M26.4788 75.6775C26.1975 75.6775 25.9118 75.5704 25.6975 75.3561C25.26 74.923 25.251 74.2176 25.6841 73.7756L73.0433 25.6842C73.4764 25.2467 74.1818 25.2378 74.6238 25.6708C75.0613 26.1039 75.0702 26.8092 74.6372 27.2512L27.2779 75.3427C27.0591 75.5659 26.7689 75.6775 26.4832 75.6775H26.4788Z"></path>
<path fill="#222222" d="M75.4187 35.756C74.8026 35.756 74.307 35.2604 74.3025 34.6443L74.2668 26.2466L66.2531 26.2734C65.637 26.2734 65.137 25.7779 65.137 25.1618C65.137 24.5457 65.6325 24.0456 66.2486 24.0412L75.3785 24.0099C75.9946 24.0099 76.4901 24.5055 76.4946 25.1216L76.5348 34.6354C76.5348 35.2515 76.0392 35.7515 75.4231 35.756H75.4187Z"></path>
<path fill="#222222" d="M34.7649 76.4052L25.2511 76.365C24.635 76.365 24.1394 75.8606 24.1394 75.2445L24.1707 66.1146C24.1707 65.4985 24.6707 65.0029 25.2868 65.0029C25.9029 65.0029 26.4029 65.5074 26.3984 66.1235L26.3716 74.1373L34.7693 74.173C35.3854 74.173 35.8855 74.6775 35.881 75.2936C35.881 75.9097 35.381 76.4052 34.7649 76.4052Z"></path>
<path fill="#222222" d="M75.8248 76.615L66.6949 76.5837C66.0788 76.5837 65.5788 76.0792 65.5833 75.4631C65.5833 74.847 66.0833 74.3515 66.6994 74.3515L74.7132 74.3783L74.7489 65.9805C74.7489 65.3644 75.2489 64.8689 75.865 64.8689H75.8695C76.4856 64.8689 76.9856 65.3734 76.9811 65.9895L76.9409 75.5033C76.9409 76.1194 76.4409 76.615 75.8248 76.615Z"></path>
<path fill="#222222" d="M25.7333 35.6221C25.1172 35.6221 24.6172 35.1266 24.6172 34.5105L24.5859 25.3806C24.5859 24.7645 25.0815 24.2645 25.6976 24.26L35.2114 24.2198H35.2159C35.832 24.2198 36.3275 24.7154 36.332 25.3315C36.332 25.9476 35.8364 26.4476 35.2203 26.4521L26.8226 26.4878L26.8494 34.5015C26.8494 35.1176 26.3539 35.6176 25.7378 35.6221H25.7333Z"></path>
<path fill="#222222" d="M98.8839 100H1.11612C0.500022 100 0 99.5 0 98.8839V1.11612C0 0.500022 0.500022 0 1.11612 0H98.8839C99.5 0 100 0.500022 100 1.11612V98.8839C100 99.5 99.5 100 98.8839 100ZM2.23224 97.7678H97.7678V2.23224H2.23224V97.7678Z"></path>
</svg>
