<svg xmlns="http://www.w3.org/2000/svg" fill="none" viewBox="0 0 100 100" height="100" width="100">
<path fill="#222222" d="M98.8839 100H1.11612C0.500022 100 0 99.5 0 98.8839V1.11612C0 0.500022 0.500022 0 1.11612 0H98.8839C99.5 0 100 0.500022 100 1.11612V98.8839C100 99.5 99.5 100 98.8839 100ZM2.23224 97.7678H97.7678V2.23224H2.23224V97.7678Z"></path>
<path fill="#222222" d="M37.14 79.0169C27.4967 79.0169 19.6526 71.1728 19.6526 61.5295C19.6526 51.8862 27.4967 44.0421 37.14 44.0421C46.7833 44.0421 54.6274 51.8862 54.6274 61.5295C54.6274 71.1728 46.7833 79.0169 37.14 79.0169ZM37.14 46.2788C28.7289 46.2788 21.8848 53.1229 21.8848 61.534C21.8848 69.9451 28.7289 76.7891 37.14 76.7891C45.5511 76.7891 52.3951 69.9451 52.3951 61.534C52.3951 53.1229 45.5511 46.2788 37.14 46.2788Z"></path>
<path fill="#222222" d="M49.828 73.0658C49.5378 73.0658 49.2477 72.9542 49.0289 72.7265C48.6003 72.2845 48.6092 71.5791 49.0512 71.1461L72.1773 48.6853C78.4007 40.676 70.0522 32.5908 69.6905 32.247C69.6727 32.2292 69.6504 32.2113 69.637 32.189C63.8599 25.8584 54.9711 29.3719 53.8327 29.8585L28.3271 49.1362C27.836 49.5067 27.1351 49.4085 26.7645 48.9174C26.394 48.4263 26.4877 47.7254 26.9833 47.3548L52.596 27.9968C52.663 27.9477 52.7344 27.9031 52.8059 27.8718C52.9175 27.8227 64.1144 22.8582 71.2665 30.6621C71.9183 31.3095 81.2134 40.801 73.8871 50.1228C73.8559 50.163 73.8246 50.1987 73.7889 50.2344L50.6049 72.7488C50.3861 72.9587 50.1093 73.0658 49.828 73.0658Z"></path>
<path fill="#222222" d="M37.0687 74.4052C30.1755 74.4052 24.5681 68.7978 24.5681 61.9046C24.5681 55.0114 30.1755 49.4041 37.0687 49.4041C43.9618 49.4041 49.5692 55.0114 49.5692 61.9046C49.5692 68.7978 43.9618 74.4052 37.0687 74.4052ZM37.0687 51.6363C31.4077 51.6363 26.8004 56.2436 26.8004 61.9046C26.8004 67.5656 31.4077 72.1729 37.0687 72.1729C42.7296 72.1729 47.337 67.5656 47.337 61.9046C47.337 56.2436 42.7296 51.6363 37.0687 51.6363Z"></path>
<path fill="#222222" d="M37.1802 70.4988C32.6264 70.4988 28.9209 66.7932 28.9209 62.2395C28.9209 57.6857 32.6264 53.9802 37.1802 53.9802C41.734 53.9802 45.4395 57.6857 45.4395 62.2395C45.4395 66.7932 41.734 70.4988 37.1802 70.4988ZM37.1802 56.2124C33.8586 56.2124 31.1531 58.9179 31.1531 62.2395C31.1531 65.561 33.8586 68.2665 37.1802 68.2665C40.5018 68.2665 43.2073 65.561 43.2073 62.2395C43.2073 58.9179 40.5018 56.2124 37.1802 56.2124Z"></path>
</svg>
