<svg xmlns="http://www.w3.org/2000/svg" fill="none" viewBox="0 0 212 31" height="31" width="212">
<path fill="#222222" d="M12.1595 30.9936H4.41859C3.83128 31.0229 3.24435 30.9288 2.69563 30.7173C2.14692 30.5058 1.6486 30.1816 1.23279 29.7656C0.81698 29.3497 0.492906 28.8512 0.281474 28.3023C0.0700414 27.7534 -0.0240612 27.1663 0.00522275 26.5787V4.45323C-0.0239853 3.86545 0.0701203 3.27804 0.281493 2.72883C0.492866 2.17961 0.816836 1.68073 1.23253 1.26429C1.64823 0.847849 2.14646 0.523077 2.69518 0.310838C3.24391 0.0985984 3.83096 0.00356972 4.41859 0.0319378H12.1595C12.7472 0.00356972 13.3342 0.0985984 13.8829 0.310838C14.4317 0.523077 14.9299 0.847849 15.3456 1.26429C15.7613 1.68073 16.0853 2.17961 16.2966 2.72883C16.508 3.27804 16.6021 3.86545 16.5729 4.45323V8.09504H12.1595V4.26157H4.41859V26.8087H12.1595V17.4551H8.41681V13.251H16.6112V26.566C16.6332 27.1565 16.5322 27.7453 16.3145 28.2947C16.0969 28.8441 15.7673 29.3423 15.3469 29.7575C14.9264 30.1727 14.4242 30.4958 13.8722 30.7064C13.3202 30.917 12.7304 31.0105 12.1404 30.9808L12.1595 30.9936ZM21.0054 0.0191861H36.6917V4.22959H25.438V13.2383H34.5138V17.4423H25.438V26.7768H36.7045V30.9808H21.0246L21.0054 0.0191861ZM52.7357 20.4644L49.7274 6.93221L46.6936 20.4644H52.7357ZM53.7193 24.6364H45.7228L44.3113 30.9617H39.7894L47.4537 0H52.0459L59.7102 30.9617H55.1563L53.7193 24.6364ZM67.432 13.2191H75.1665V4.21044H67.4511L67.432 13.2191ZM63.0122 30.9617V0.0319378H75.1474C75.735 0.00356972 76.3221 0.0985984 76.8708 0.310838C77.4195 0.523077 77.9178 0.847849 78.3335 1.26429C78.7492 1.68073 79.0731 2.17961 79.2845 2.72883C79.4959 3.27804 79.59 3.86545 79.5608 4.45323V13.0402C79.59 13.6277 79.4959 14.2149 79.2845 14.7638C79.0731 15.3127 78.749 15.8111 78.3332 16.2271C77.9174 16.643 77.4191 16.9672 76.8703 17.1787C76.3216 17.3902 75.7347 17.4844 75.1474 17.4551H74.9686L79.7779 30.9936H75.3071L70.4977 17.4551H67.3937V30.9936L63.0122 30.9617ZM100.165 13.251H107.9V4.24238H100.165V13.251ZM95.7452 30.9936V0.0319378H107.88C108.469 0.00264768 109.056 0.0969827 109.606 0.30881C110.155 0.520637 110.654 0.845292 111.071 1.26183C111.487 1.67838 111.812 2.17755 112.023 2.72723C112.235 3.27691 112.329 3.86488 112.3 4.45323V13.0402C112.329 13.6283 112.235 14.216 112.023 14.7654C111.812 15.3147 111.487 15.8135 111.07 16.2296C110.654 16.6456 110.155 16.9696 109.605 17.1807C109.056 17.3918 108.468 17.4853 107.88 17.4551H100.165V30.9936H95.7452ZM126.166 20.4963L123.158 6.96415L120.118 20.4963H126.166ZM127.156 24.6684H119.134L117.723 30.9936H113.252L120.916 0.0319378H125.508L133.173 30.9936H128.619C128.568 30.9936 127.156 24.6492 127.156 24.6492V24.6684ZM139.291 30.9936V4.24238H132.77V0.0319378H150.187V4.24238H143.692V30.9936H139.291ZM158.688 13.251H166.423V4.24238H158.669L158.688 13.251ZM154.275 30.9936V0.0319378H166.41C166.998 0.00264768 167.586 0.0969827 168.136 0.30881C168.685 0.520637 169.184 0.845292 169.6 1.26183C170.017 1.67838 170.341 2.17755 170.553 2.72723C170.765 3.27691 170.859 3.86488 170.83 4.45323V13.0402C170.859 13.6283 170.765 14.216 170.553 14.7654C170.341 15.3147 170.017 15.8135 169.6 16.2296C169.184 16.6456 168.685 16.9696 168.135 17.1807C167.586 17.3918 166.998 17.4853 166.41 17.4551H166.238L171.06 30.9936H166.589L161.786 17.4551H158.669V30.9936H154.275ZM179.919 26.8215H187.666V4.27432H179.899L179.919 26.8215ZM175.505 4.45963C175.476 3.87184 175.57 3.28444 175.781 2.73522C175.993 2.18601 176.317 1.68713 176.732 1.27069C177.148 0.854244 177.646 0.529433 178.195 0.317194C178.744 0.104955 179.331 0.00996508 179.919 0.0383331H187.666C188.253 0.00996508 188.841 0.104955 189.389 0.317194C189.938 0.529433 190.436 0.854244 190.852 1.27069C191.268 1.68713 191.592 2.18601 191.803 2.73522C192.014 3.28444 192.108 3.87184 192.079 4.45963V26.566C192.108 27.1535 192.014 27.7406 191.803 28.2895C191.592 28.8384 191.267 29.3369 190.852 29.7529C190.436 30.1688 189.938 30.493 189.389 30.7045C188.84 30.916 188.253 31.0101 187.666 30.9808H179.899C179.312 31.0101 178.725 30.916 178.176 30.7045C177.628 30.493 177.129 30.1688 176.714 29.7529C176.298 29.3369 175.974 28.8384 175.762 28.2895C175.551 27.7406 175.457 27.1535 175.486 26.566L175.505 4.45963ZM196.525 0.0383331H200.944V26.796H212V31H196.505L196.525 0.0383331Z"></path>
</svg>
