<svg xmlns="http://www.w3.org/2000/svg" fill="none" viewBox="0 0 149 31" height="31" width="149">
<path fill="#222222" d="M148.987 31C145.897 31 142.815 31 139.732 31C139.161 31 139 30.8392 139 30.3054C139 27.0896 139 23.8739 139 20.6259V0H143.627V27.1025H149L148.987 31Z"></path>
<path fill="#222222" d="M0 31V0.0515527C1.17431 0.0515527 2.31526 0.0515527 3.45621 0.0515527C3.61634 0.0515527 3.81654 0.372533 3.90328 0.577957C5.19324 3.74919 6.47209 6.92687 7.73981 10.1109C7.80654 10.265 7.87991 10.4191 8.00668 10.7208C8.42703 9.69365 8.80066 8.79493 9.16096 7.88978C10.1284 5.45037 11.1026 3.01736 12.05 0.571531C12.0858 0.394265 12.1908 0.236947 12.3435 0.131875C12.4961 0.026803 12.6848 -0.0180413 12.8707 0.00661149C13.8982 0.051548 14.9324 0.00661149 16 0.00661149V30.9679H11.4962V13.1987L11.3361 13.1602C11.236 13.3785 11.1293 13.5967 11.0425 13.8022C10.2419 15.8628 9.4412 17.917 8.66722 19.9905C8.48707 20.4913 8.26023 20.793 7.55965 20.5362L4.6906 13.1538H4.57714V30.9679L0 31Z"></path>
<path fill="#222222" d="M40 31C38.9577 31 37.9674 31 36.9837 31C36.4365 31 36.4886 30.5637 36.4169 30.2749C35.6026 27.2333 34.8143 24.1853 34.0261 21.1372C33.531 19.2571 33.0423 17.3834 32.5537 15.5032C32.5123 15.2808 32.3978 15.0779 32.228 14.9257V30.9679H28V0H30.1889C32.0717 0 32.0521 4.74271e-06 32.5342 1.80957C33.5375 5.5827 34.5494 9.35155 35.57 13.1161C35.5874 13.1749 35.6173 13.2294 35.6578 13.2758C35.6982 13.3223 35.7482 13.3598 35.8046 13.3857V0.0577693H40V31Z"></path>
<path fill="#222222" d="M117.137 14.7089V30.9678H113V0H117.026C118.21 4.39917 119.4 8.84979 120.597 13.3004H120.72V0H125V31C123.914 31 122.828 31 121.748 31C121.637 31 121.481 30.6977 121.429 30.5176C120.102 25.4367 118.78 20.358 117.462 15.2813C117.416 15.0948 117.351 14.9147 117.293 14.7346L117.137 14.7089Z"></path>
<path fill="#222222" d="M103.284 31H99V0.0514206C99.1632 0.0247555 99.3278 0.00758007 99.4929 0C101.945 0 104.403 0 106.855 0C107.196 0.00743109 107.537 0.0440025 107.872 0.109274C108.54 0.17306 109.161 0.487259 109.615 0.990837C110.068 1.49442 110.321 2.15138 110.324 2.83398C110.419 4.23489 110.425 5.64222 110.438 7.04313C110.438 9.05454 110.438 11.0723 110.438 13.0837C110.438 14.806 110.109 16.3611 108.055 16.8431L111 30.9807H106.577C106.176 29.0186 105.783 27.0586 105.395 25.1007C104.902 22.6716 104.422 20.2361 103.923 17.807C103.866 17.5371 103.923 17.0809 103.291 17.2865L103.284 31ZM103.284 13.2508H104.896C105.812 13.2508 106.058 12.9938 106.071 12.0491C106.084 11.1045 106.071 10.0185 106.071 9.00312C106.071 7.71788 106.071 6.41979 106.071 5.10884C106.071 4.58832 105.976 4.06779 105.338 4.01638C104.7 3.96497 103.986 4.01638 103.284 4.01638V13.2508Z"></path>
<path fill="#222222" d="M84.9944 15.4523V26.6079C85.0109 27.0372 84.991 27.467 84.9349 27.8931C84.5777 29.9174 83.4199 30.9327 81.2832 30.9712C79.458 31.0388 77.6302 30.9873 75.8121 30.817C74.1847 30.6242 73.2784 29.4739 73.0932 27.8803C73.0325 27.3876 73.0016 26.892 73.0006 26.3959C73.0006 19.113 73.0006 11.8301 73.0006 4.54721C72.9938 3.90128 73.047 3.25607 73.1593 2.61939C73.2183 1.96303 73.5178 1.34903 74.0034 0.889087C74.4891 0.429146 75.1285 0.153855 75.8055 0.113244C77.8732 -0.037748 79.9497 -0.037748 82.0175 0.113244C84.0021 0.286748 84.9481 1.482 84.9547 3.48693C84.9547 7.49037 84.9547 11.4874 84.9547 15.4908L84.9944 15.4523ZM80.4694 15.5165V12.7212C80.4694 10.1508 80.4694 7.61886 80.4694 5.06129C80.4694 4.57933 80.4099 4.14238 79.8079 3.99458C78.1408 3.57046 77.4991 4.03313 77.4991 5.6782C77.4991 12.2328 77.4991 18.7874 77.4991 25.342C77.4991 26.9421 77.6049 27.0513 79.2323 27.0256C80.2511 27.0256 80.4364 26.8328 80.4364 25.8368L80.4694 15.5165Z"></path>
<path fill="#222222" d="M86 0H90.52C90.52 0.289246 90.5667 0.559196 90.5667 0.829159C90.5667 9.11661 90.5667 17.4019 90.5667 25.6851C90.5667 26.0964 90.7267 26.8228 90.9334 26.8678C91.6539 26.9707 92.3862 26.9707 93.1067 26.8678C93.24 26.8678 93.38 26.5014 93.44 26.2829C93.4702 26.0481 93.4702 25.8106 93.44 25.5758V0.0321307H98V0.674901C98 9.36944 98 18.0661 98 26.765C97.999 27.2405 97.9611 27.7153 97.8866 28.1854C97.5866 29.9338 96.5534 30.8851 94.6934 30.9494C92.8334 31.0136 91.18 31.0201 89.4267 30.9494C88.9811 30.9614 88.5376 30.8871 88.1224 30.731C87.7071 30.5749 87.3286 30.3401 87.0091 30.0405C86.6896 29.7408 86.4357 29.3825 86.2624 28.9866C86.089 28.5907 85.9998 28.1652 86 27.7355C86 27.3691 86 27.0028 86 26.6364C86 18.0661 86 9.49586 86 0.92559V0Z"></path>
<path fill="#222222" d="M130.686 25.3022L130.112 31H126C127.22 20.6538 128.433 10.3398 129.647 0H135.585L139 31H134.804C134.714 29.9699 134.611 28.9205 134.527 27.871C134.462 27.1821 134.449 26.4868 134.359 25.8044C134.359 25.6177 134.094 25.328 133.939 25.3215C132.881 25.3022 131.816 25.3022 130.686 25.3022ZM132.545 6.68932H132.358C131.913 11.5373 131.461 16.3853 131.009 21.2719H133.849C133.41 16.3659 132.971 11.5244 132.545 6.67643V6.68932Z"></path>
<path fill="#222222" d="M55.9069 8.70164H51.4277C51.4277 7.76976 51.4277 6.86358 51.4277 5.95741C51.4277 5.55253 51.4277 5.1412 51.4277 4.72989C51.4381 4.62048 51.4233 4.51025 51.3844 4.40702C51.3456 4.30379 51.2836 4.21013 51.203 4.13275C51.1223 4.05538 51.025 3.99617 50.9179 3.95941C50.8109 3.92266 50.6967 3.90928 50.5837 3.92015C48.7628 3.92015 48.4637 3.7402 48.5368 5.72606C48.5368 6.78647 48.5833 7.85331 48.5368 8.93943C48.5158 9.41401 48.5972 9.88762 48.7757 10.3302C48.9542 10.7727 49.2259 11.1746 49.5735 11.5101C51.4011 13.5024 53.2087 15.514 55.0164 17.5191C55.6525 18.2011 56.0031 19.0878 56 20.0062C56 22.4934 55.9999 24.9805 55.9667 27.4677C55.9136 29.6206 54.5512 30.8931 52.2983 30.9638C50.71 31.0088 49.115 31.0152 47.52 30.9638C47.0518 30.9813 46.585 30.9044 46.1492 30.7379C45.7135 30.5715 45.3183 30.3191 44.9889 29.9969C44.6594 29.6747 44.4029 29.2897 44.2357 28.8665C44.0686 28.4432 43.9943 27.9909 44.0177 27.5384C43.9778 25.816 44.0177 24.0872 44.0177 22.3135H48.5568C48.5568 23.5217 48.5568 24.7042 48.5568 25.8867C48.5568 26.7929 48.7561 26.9921 49.6865 27.0178C51.4078 27.0564 51.4742 27.0178 51.4676 25.3404C51.4676 24.1772 51.5274 23.0011 51.4211 21.8443C51.3678 21.2317 51.1375 20.646 50.7565 20.154C49.0286 18.1425 47.2409 16.1695 45.4399 14.2286C44.9636 13.7585 44.5921 13.1987 44.3486 12.584C44.1051 11.9694 43.9948 11.3129 44.0244 10.6554C44.1041 8.25818 44.0244 5.85458 44.0709 3.45741C44.0333 2.79056 44.2115 2.12895 44.5808 1.56457C44.95 1.00019 45.4918 0.56108 46.1311 0.308291C46.4326 0.164443 46.7596 0.0772345 47.0947 0.051245C49.1523 -0.0312869 51.2128 -0.0141165 53.2686 0.10267C53.6275 0.106852 53.9821 0.179572 54.3119 0.316685C54.6417 0.453798 54.9402 0.652583 55.1904 0.901618C55.4405 1.15065 55.6372 1.44504 55.7693 1.76784C55.9014 2.09064 55.9662 2.4355 55.9601 2.78261C56.0132 4.69777 55.9069 6.67079 55.9069 8.70164Z"></path>
<path fill="#222222" d="M17.054 0H26.9662V3.95607H21.713V13.1912H25.7643V17.1666H21.713V27.0311H27V30.9551C26.7704 30.9551 26.5679 31 26.3721 31C23.4956 31 20.6259 31 17.7495 31C17.2026 31 17 30.878 17 30.3192C17 20.4162 17 10.5132 17 0.610118C17 0.436718 17.0337 0.2312 17.054 0Z"></path>
<path fill="#222222" d="M60.0374 22.3292H64.4821C64.4821 22.5028 64.5349 22.6636 64.5415 22.8307C64.5415 23.628 64.5415 24.4316 64.5415 25.2289C64.4756 27.1577 64.8119 27.0484 66.6188 27.0227C66.7249 27.0288 66.8312 27.0139 66.9312 26.9791C67.0313 26.9443 67.1232 26.8901 67.2014 26.8199C67.2795 26.7497 67.3424 26.6649 67.3862 26.5705C67.43 26.4761 67.4538 26.374 67.4563 26.2704C67.4728 26.0114 67.4728 25.7516 67.4563 25.4925V0H72V0.642938C72 9.42975 72 18.2166 72 27.0034C71.9925 27.5837 71.9083 28.1607 71.7494 28.72C71.6092 29.3224 71.2674 29.8623 70.7779 30.2546C70.2884 30.6468 69.679 30.8692 69.0456 30.8867C67.0284 31.0378 65.0023 31.0378 62.9851 30.8867C61.1782 30.7324 60.1561 29.543 60.0506 27.7235C59.9451 25.904 60.0374 24.1809 60.0374 22.3292Z"></path>
<path fill="#222222" d="M41 7V0H43L41.9101 7H41Z"></path>
</svg>
