<svg viewBox="0 0 219 203" xmlns="http://www.w3.org/2000/svg">
  <path d="m118.48124,89.54l-0.01,18.01l18.01,0.01l-0.01,18.01l-18.01,-0.01l-0.01,18.01l-18.01,-0.01l0.01,-18.01l-18.01,-0.01l0.01,-18.01l18.01,0.01l0.01,-18.01l18.01,0.01z" fill="currentColor"/>
  <path d="m218.07124,157.91c1.18,2.15 1.13,4.76 -0.14,6.86l-20.55,34.18c-1.25,2.07 -3.49,3.34 -5.91,3.34l-164.06,-0.07c-2.42,0 -4.66,-1.27 -5.91,-3.34l-20.52,-34.2c-1.26,-2.1 -1.31,-4.71 -0.13,-6.86l84.7,-154.25c1.21,-2.2 3.53,-3.57 6.04,-3.57l35.85,0.01c2.51,0 4.83,1.37 6.04,3.58l84.58,154.31l0.01,0.01zm-14.17,22.21l-94.37,-177.12l-94.52,177.05l188.89,0.07z" fill-rule="evenodd" fill="currentColor"/>
</svg>