<svg xmlns="http://www.w3.org/2000/svg" fill="none" viewBox="0 0 121 31" height="31" width="121">
<path fill="#222222" d="M29.3637 30.9114C27.383 30.65 25.5388 29.7409 24.108 28.3203C22.9495 27.1584 22.102 25.7136 21.6463 24.1233C20.7846 21.2102 20.7846 18.1027 21.6463 15.1896C22.4743 12.5894 24.268 10.423 26.6436 9.1544C29.8253 7.52953 34.2932 7.62987 37.2411 9.39277C39.8874 10.9863 41.4936 13.7843 41.9367 17.6677C42.0593 19.2332 42.0036 20.808 41.7706 22.3604C40.8906 26.5637 38.3366 29.4998 34.5825 30.604C34.1256 30.7374 33.6611 30.8421 33.1916 30.9176C31.9138 31.0275 30.6292 31.0275 29.3514 30.9176L29.3637 30.9114Z"></path>
<path fill="#222222" d="M34.8381 30.7845C36.2363 30.4975 37.5559 29.9241 38.7096 29.1022C41.3889 27.1507 42.8509 24.1654 42.989 20.3908C43.127 16.6163 41.9661 13.4903 39.7386 11.447C37.9315 9.78304 35.6538 9 32.711 9C29.5736 9 27.0637 9.94211 25.1374 11.8385C23.0667 13.8757 22 16.7325 22 20.036C22 23.4924 22.9914 26.282 24.9115 28.2335C25.8902 29.2585 27.1182 30.0264 28.4818 30.4664C29.2319 30.7066 30.0026 30.8807 30.7846 30.9864C30.9038 30.9864 31.707 31.017 32.5667 30.9864C33.3395 31.0011 34.1117 30.9334 34.8694 30.7845H34.8381Z"></path>
<path fill="#222222" d="M31.078 28.83C29.7117 28.235 28.7366 26.3487 28.2551 23.3972C27.9364 20.7138 27.9163 18.004 28.1949 15.3164C28.5921 12.4482 29.3987 10.7523 30.7229 10.181C31.2134 9.99838 31.7453 9.95285 32.2603 10.0494C32.7753 10.146 33.2534 10.3809 33.6422 10.7285C35.4057 12.3054 36.2966 16.7802 35.9113 22.1416C35.6345 25.9916 34.7917 28.0921 33.2148 28.8062C32.5265 29.0646 31.7663 29.0646 31.078 28.8062V28.83Z"></path>
<path fill="white" d="M32.9297 28.8929C33.7113 28.5758 34.349 28.003 34.7287 27.2773C35.5805 25.7285 35.9555 23.4387 36 19.8066C36 15.2513 35.2626 12.3542 33.6861 10.8357C33.4488 10.5577 33.1459 10.3374 32.8023 10.1928C32.4587 10.0482 32.0841 9.98332 31.7092 10.0036C29.8022 10.0036 28.6326 11.8805 28.1622 15.5733C27.9459 17.9761 27.9459 20.3921 28.1622 22.7949C28.8296 27.3866 30.5523 29.5792 32.9615 28.8686L32.9297 28.8929Z"></path>
<path fill="#222222" d="M67.0638 30.9799C66.1918 30.8936 63.5188 30.4624 62.6087 30.2591L61.9722 30.1174L62.0231 26.7786C62.144 18.7333 62.1567 14.3472 62.0804 10.0782C62.004 5.80915 61.9786 5.45185 61.8131 4.83583C61.7088 4.22739 61.3974 3.67014 60.9284 3.25264C60.6602 3.10635 60.3705 3.0004 60.0693 2.93846C58.9746 2.70437 59.0318 2.74134 59 2.25468C59 1.97747 59 1.79265 59.0891 1.73721C59.1782 1.68177 68.1966 -0.00614342 68.483 1.68206e-05C68.5658 1.68206e-05 68.5785 1.11502 68.5339 4.92821C68.5339 7.65103 68.5021 9.8564 68.5339 9.8564C68.7832 9.76604 69.0275 9.66323 69.2658 9.54838C70.4287 9.03555 71.6921 8.77082 72.97 8.77219C73.6393 8.71688 74.3131 8.74588 74.9747 8.85844C78.367 9.54223 80.8809 12.2342 81.7592 16.1275C82.0093 17.7194 82.0648 19.3342 81.9247 20.9387C81.7671 22.1255 81.4703 23.2912 81.04 24.413C79.5889 27.9737 76.4704 30.2961 72.3335 30.8998C70.5924 31.0334 68.843 31.0334 67.1019 30.8998L67.0638 30.9799Z"></path>
<path fill="#222222" d="M72.095 29.899C74.5105 29.6553 76.7705 28.6731 78.5202 27.1065C80.9684 24.8737 82.1472 21.7261 81.9853 17.8503C81.9855 16.1364 81.5412 14.4478 80.6899 12.9273C80.1519 11.88 79.3682 10.958 78.3965 10.229C77.4247 9.49996 76.2896 8.98247 75.0744 8.71452C73.1321 8.3953 71.1314 8.6303 69.3358 9.38857C69.0423 9.52665 68.7368 9.64141 68.4225 9.73161C68.3059 9.73161 68.293 9.1298 68.3254 4.86281L68.3577 0L67.9951 0.0661927L63.5065 0.842543L59.1799 1.59483C59.018 1.63094 58.9856 1.69114 59.005 1.94993C59.0245 2.20872 59.0503 2.26891 59.3807 2.33511C60.5206 2.56983 60.7214 2.65409 61.1489 3.05732C61.667 3.55684 61.9002 4.18874 62.0492 5.51879C62.1722 6.572 62.1982 24.7774 62.0492 27.4616L61.9844 29.0504L62.9106 29.237C66.4146 29.9351 69.9057 30.1759 72.0885 29.8689L72.095 29.899Z"></path>
<path fill="#222222" d="M69.661 29.9466C69.5105 29.9384 69.3658 29.8854 69.2452 29.7942C69.094 29.6101 68.9303 17.6672 69.0311 14.1752L69.1067 11.4006L69.8059 11.1974C70.7673 10.896 71.8028 10.9409 72.735 11.3244C74.3099 12.0736 75.3492 13.9402 75.8847 16.9879C76.052 18.8748 76.0372 20.7736 75.8406 22.6577C75.4375 25.1974 74.7067 27.2038 73.6925 28.48C73.1803 29.1165 72.505 29.5996 71.7398 29.8768C71.053 30.0128 70.3489 30.0364 69.6547 29.9466H69.661Z"></path>
<path fill="white" d="M70.9377 28.9132C71.5025 28.8024 72.0249 28.5164 72.4403 28.0906C73.6401 26.9303 74.5428 24.53 74.9028 21.5588C75.0446 19.902 75.0312 18.234 74.8628 16.5801C74.4285 13.8483 73.4973 12.0558 72.1376 11.3314C71.7419 11.0729 71.2783 10.9608 70.8177 11.0122C70.3992 11.0038 69.9817 11.0595 69.5779 11.1779L69.0523 11.3436L69.0123 14.4499C68.9609 18.4341 69.0809 28.4037 69.1837 28.6922C69.2466 28.8764 69.3208 28.9132 69.6408 28.9377C70.0696 29.0208 70.5088 29.0208 70.9377 28.9377V28.9132Z"></path>
<path fill="#222222" d="M91.433 30.923C87.2142 30.1433 84.1973 27.081 83.2161 22.5725C82.8291 20.1596 82.963 17.689 83.6086 15.3349C83.9995 13.9764 84.6613 12.7159 85.5522 11.6335C86.4432 10.5511 87.5437 9.67024 88.784 9.04691C91.4208 7.73271 95.0264 7.64471 97.3688 8.84573C99.9933 10.1914 101.539 12.8889 101.931 16.8064C101.984 17.2696 102.006 17.7359 101.998 18.2023V18.6362H95.707H89.4217V19.397C89.4426 21.0244 89.8221 22.6258 90.5316 24.0816C90.824 24.6738 91.2163 25.2082 91.6906 25.6599C92.3074 26.3317 93.0617 26.8549 93.8994 27.192C94.737 27.529 95.637 27.6715 96.5348 27.6092C97.8878 27.6651 99.2239 27.2846 100.355 26.5214C100.581 26.3561 100.829 26.2248 101.091 26.1315C101.269 26.1315 101.704 26.666 101.704 26.9049C101.704 27.2885 100.478 28.5272 99.3003 29.351C98.119 30.106 96.8077 30.6225 95.4372 30.8727C94.1199 31.0424 92.7871 31.0424 91.4698 30.8727L91.433 30.923Z"></path>
<path fill="#222222" d="M96.2361 30.8622C98.2512 30.5386 100.125 29.6438 101.627 28.2883C102.407 27.5669 102.663 27.2185 102.557 27.0656C102.27 26.5765 102.282 26.5766 101.546 27.0229C100.624 27.6432 99.5437 28.0008 98.4263 28.056C96.8922 28.234 95.3387 27.9594 93.9648 27.2674C92.9176 26.6778 92.0413 25.8361 91.4189 24.8219C90.6369 23.3532 90.2099 21.7279 90.171 20.0717C90.1211 19.2586 90.1336 19.0569 90.2334 18.9957C90.3333 18.9346 93.1786 18.9224 96.6853 18.9163H103V18.6717C102.951 17.719 102.832 16.771 102.644 15.835C101.97 12.6743 100.198 10.4245 97.6525 9.51971C96.621 9.15464 95.5292 8.98048 94.4328 9.00616C93.08 8.9584 91.732 9.18886 90.4757 9.6827C89.2193 10.1765 88.0825 10.9228 87.1385 11.8734C85.62 13.4362 84.6007 15.3996 84.2058 17.5224C84.0287 18.3851 83.9658 19.2666 84.0186 20.1451C83.9648 21.0175 84.0278 21.893 84.2058 22.7494C85.2104 27.194 88.193 30.0857 92.4797 30.8683C93.7255 31.0459 94.991 31.0439 96.2361 30.8622Z"></path>
<path fill="#222222" d="M90 17.9615C90.0083 17.0866 90.0858 16.2144 90.2316 15.3565C90.5819 13.3045 91.1468 11.821 91.9265 10.9061C92.1704 10.5515 92.4961 10.2877 92.8644 10.1466C93.0484 10.077 93.2376 10.028 93.4293 10C93.8402 10.0235 94.2298 10.2225 94.5254 10.5597C95.3729 11.4791 95.8587 13.4578 95.9548 16.3825L96 17.8283L95.1864 17.8816C93.5536 17.9882 90.0452 18.0415 90 17.9615Z"></path>
<path fill="white" d="M95.5569 16.8947L97 16.8451L96.9461 15.7858C96.7605 12.069 95.8802 10 94.4431 10C92.8802 10 91.6347 12.0752 91.1197 15.5318C91.0592 15.9029 91.0192 16.2773 91 16.6531V17H92.5569C93.4132 17 94.7605 16.9504 95.5509 16.9195L95.5569 16.8947Z"></path>
<path fill="#222222" d="M110.201 30.9809C108.609 30.7925 107.039 30.4363 105.516 29.9179L105.128 29.7418L105.079 27.7542C105.079 26.6598 105.012 25.1942 105 24.4961V23.2381L105.231 23.1186C105.425 23.0408 105.63 22.9962 105.839 22.9865H106.179L106.47 23.7287C107.601 26.6157 108.901 28.1756 110.669 28.6473C111.46 28.8268 112.279 28.8268 113.07 28.6473C113.702 28.4541 114.254 28.0492 114.64 27.496C115.026 26.9427 115.224 26.2725 115.202 25.5905C115.202 23.8482 114.285 23.0116 110.791 21.5964C108.622 20.7221 107.868 20.2693 106.969 19.3195C105.998 18.2967 105.451 16.9226 105.444 15.489C105.376 14.5636 105.504 13.634 105.819 12.7651C106.134 11.8961 106.628 11.1085 107.267 10.4571C108.591 9.02933 110.305 8.25566 112.669 8.03551C114.983 7.88492 117.303 8.21427 119.493 9.00417L119.796 9.13624L119.851 10.91C119.851 11.8912 119.912 13.1995 119.918 13.8222V14.9543L119.511 15.1116C118.867 15.3569 118.824 15.3255 118.466 14.3442C117.463 11.5893 116.29 10.281 114.473 9.88473C113.997 9.74608 113.494 9.74365 113.017 9.87767C112.539 10.0117 112.106 10.2772 111.763 10.6458C111.263 11.1702 110.984 11.8778 110.985 12.6145C110.93 12.9891 110.962 13.3718 111.077 13.7314C111.192 14.0911 111.387 14.4174 111.648 14.6839C112.334 15.4575 113.471 16.1306 115.683 17.0929C118.411 18.2754 119.717 19.2755 120.422 20.741C120.89 21.7252 121.08 22.8264 120.969 23.9174C120.993 24.6192 120.888 25.3193 120.659 25.9805C119.869 28.3832 118.095 29.9682 115.348 30.7104C114.419 30.962 114.285 30.9746 112.438 30.9934C111.411 31.006 110.378 30.9998 110.201 30.9809Z"></path>
<path fill="#222222" d="M114.216 30.8976C117.864 30.3472 120.217 28.4211 120.836 25.4677C121.142 24.108 121.017 22.6882 120.477 21.4014C119.753 19.9216 118.532 19.0227 115.523 17.7325C113.274 16.797 111.924 16.0021 111.373 15.2866C110.936 14.7759 110.715 14.1194 110.754 13.4522C110.724 12.9331 110.832 12.4154 111.065 11.9493C111.298 11.4832 111.65 11.0847 112.085 10.7923C112.486 10.5503 112.935 10.3946 113.401 10.3356C113.868 10.2766 114.342 10.3155 114.792 10.4499C116.08 10.7434 117.046 11.5261 117.888 12.963C118.327 13.7804 118.703 14.6286 119.016 15.5007C119.059 15.623 119.108 15.6291 119.412 15.5435C119.552 15.5062 119.687 15.4528 119.814 15.3845C119.814 15.3845 119.814 14.1615 119.814 12.6879L119.753 10.0463L119.437 9.91791C118.525 9.59415 117.589 9.34262 116.637 9.16578C115.686 9.0246 114.724 8.97341 113.764 9.01291C111.856 9.01291 111.701 9.01294 110.915 9.23919C109.882 9.46588 108.912 9.91138 108.072 10.5449C107.231 11.1784 106.54 11.9847 106.047 12.908C105.592 13.773 105.378 14.7415 105.427 15.7147C105.395 16.417 105.505 17.1187 105.752 17.7782C105.999 18.4378 106.377 19.0418 106.864 19.5547C107.713 20.4475 108.809 21.0834 110.685 21.7683C111.951 22.1978 113.153 22.7921 114.259 23.5354C114.588 23.7982 114.862 24.1223 115.064 24.4893C115.328 24.9043 115.433 25.3986 115.361 25.8835C115.42 26.3708 115.325 26.8642 115.089 27.296C114.47 28.6535 113.132 29.3322 111.423 29.1915C109.106 29.002 107.471 27.4855 106.14 24.2997C105.793 23.4681 105.768 23.4498 105.242 23.6455L105 23.7372L105.056 26.7212C105.111 29.3689 105.136 29.7174 105.26 29.8152C105.644 30.1026 108.115 30.6835 109.825 30.8853C111.28 31.0382 112.748 31.0382 114.203 30.8853L114.216 30.8976Z"></path>
<path fill="#222222" d="M0.10756 30.8433C0.0380809 30.8433 0.000155438 30.6039 0.000155438 30.2294C0.000155438 29.5234 -0.0440432 29.5541 1.35817 29.3024C2.43194 29.1121 2.8172 28.9095 3.29092 28.3078C4.2131 27.1291 4.41524 24.8699 4.41524 15.5629C4.41524 6.82064 4.24468 4.98503 3.29092 3.6344C2.86773 3.02048 2.15402 2.7074 0.960244 2.57234L0.0443355 2.46183V1.7681V1.06822L0.328615 1.0191C0.492838 1.0191 6.05114 0.976125 12.6959 1.0191H24.7726L24.8294 1.35675C24.8294 1.54092 24.9116 3.4625 24.9432 5.6235L25 9.54646L24.3684 9.73062C23.4336 10.0069 23.4399 10.013 23.0167 8.92639C21.9808 6.26198 20.7934 4.72719 19.1701 3.95366C18.0458 3.41954 17.5279 3.33974 14.3634 3.33974H11.6095L11.5652 3.78174C11.4768 4.62281 11.3315 10.0069 11.3315 12.5485V15.0779H12.14C12.5822 15.0779 13.4601 15.0779 14.0918 15.0104C14.6453 15.0295 15.1967 14.9332 15.7088 14.7279C16.6815 14.2921 17.3383 13.3282 17.7426 11.7627L17.9511 10.9585H18.6648H19.3785V21.1802H18.6648H17.9511L17.7489 20.3699C17.3699 18.8535 16.6373 17.7668 15.7277 17.3739C15.3109 17.1959 14.2749 17.0915 12.2727 17.0363L11.3315 17.0056V18.9272C11.3315 21.0206 11.4453 23.8385 11.5969 25.3856C11.8116 27.5282 12.3737 28.713 13.3843 29.1428C13.8273 29.2794 14.2817 29.378 14.7424 29.4375C15.1348 29.4836 15.5232 29.5574 15.9045 29.6585C16.113 29.769 16.1256 30.8863 15.9045 30.9538C15.6835 31.0214 0.290662 31.0091 0.113805 30.9538L0.10756 30.8433Z"></path>
<path fill="#222222" d="M15.9487 30.5057C15.9639 30.3434 15.9465 30.1798 15.8975 30.024C14.9769 29.9204 14.0688 29.7297 13.1859 29.4546C12.0577 28.904 11.5321 27.5777 11.3334 24.7748C11.1859 22.7789 11.0449 16.9166 11.141 16.829C12.5683 16.7989 13.9962 16.8533 15.4167 16.9917C16.6282 17.2795 17.5641 18.4431 18.0321 20.2575L18.2436 21.0521H18.7821H19.3269V11.0417H18.75C18.2051 11.0417 18.1731 11.0417 18.1731 11.2357C18.0595 11.9357 17.8437 12.6162 17.5321 13.2565C17.3582 13.708 17.0778 14.1132 16.7136 14.4393C16.3495 14.7654 15.9118 15.0032 15.4359 15.1334C15.218 15.1835 14.1538 15.2586 13.1282 15.3086C11.6538 15.3712 11.2051 15.3712 11.1539 15.3086C11.1026 15.2461 11.2821 3.74033 11.3975 3.20853L11.4424 3.00832L14.7052 3.03963H17.968L18.7244 3.30239C20.4872 3.92804 21.7501 5.17933 22.8077 7.35034C23.0449 7.83835 23.3462 8.55161 23.4488 8.93326C23.5513 9.3149 23.7051 9.64026 23.7179 9.65277C23.9363 9.62105 24.151 9.56866 24.359 9.49636L25 9.30863L24.9552 6.47445C24.9552 4.92284 24.8846 3.05213 24.859 2.32638L24.8077 1H0.0256661V1.54431V2.08236L0.820532 2.18249C1.50118 2.18428 2.16758 2.3729 2.74361 2.7268C3.43934 3.27756 3.89706 4.06381 4.02566 4.92907C4.41669 6.58705 4.5577 10.3159 4.4936 17.2982C4.42308 24.6809 4.32693 26.2138 3.85257 27.7028C3.72624 28.2422 3.43261 28.7305 3.01162 29.1011C2.59062 29.4717 2.06279 29.7066 1.50006 29.7737L0.442348 29.9677L0 30.0615V31H15.8975V30.5245L15.9487 30.5057Z"></path>
<path fill="#222222" d="M43.1 29.951C43.025 29.902 43 29.706 43.0125 29.2895L43.0438 28.7076L43.3435 28.6403L44.1368 28.4871C44.5257 28.4365 44.8887 28.2674 45.1745 28.0037C45.4602 27.74 45.6543 27.3949 45.7293 27.0172C45.9479 26.3067 46.0479 24.0282 46.0541 19.4529C46.0541 13.8609 45.9417 12.544 45.3671 11.7907C45.0486 11.3864 44.8238 11.2701 44.0681 11.1292L43.1937 10.9577C43.0188 10.9271 43 10.872 43 10.4555C43 10.039 43 9.97775 43.1937 9.91037C43.3873 9.843 52.025 8.12188 52.2998 8.12188H52.5122L52.4684 9.34686C52.4684 10.0328 52.4122 11.0373 52.3872 11.5702L52.3498 12.5502L52.6621 11.9989C53.4226 10.4648 54.6876 9.2264 56.2533 8.48326C56.9866 8.13132 57.7987 7.96696 58.6141 8.0055C59.807 8.0055 61 8.39137 61 8.77112C61 9.02836 58.9014 14.4734 58.7828 14.5163C58.4645 14.4424 58.1579 14.327 57.8709 14.1733C57.0513 13.7646 56.1483 13.5427 55.229 13.524C54.2561 13.4996 53.3047 13.807 52.5371 14.3938C52.3373 14.6081 52.3372 14.6204 52.2873 17.738C52.2373 20.8555 52.3435 24.5917 52.5184 26.1045C52.6683 27.3969 53.018 28.0339 53.7675 28.3279C54.5105 28.4948 55.2671 28.5973 56.0284 28.6341C56.0962 28.8629 56.109 29.104 56.0659 29.3385V30H49.6641C46.1416 30 43.2062 30 43.1437 29.951H43.1Z"></path>
<path fill="#222222" d="M55.9891 29.5465V29.0989L55.3077 29.0452C53.7282 28.9199 53.2951 28.7707 52.8811 28.2098C52.2824 27.4042 52.155 25.9064 52.155 19.8554V15.1293L52.3716 14.9085C52.8844 14.5277 53.4836 14.2622 54.1231 14.1327C55.502 13.9063 56.9221 14.0943 58.1801 14.6698C58.3956 14.7817 58.6243 14.8698 58.8615 14.9323C58.8997 14.8965 60.9314 9.86006 60.9951 9.6512C61.0269 9.54976 60.906 9.4662 60.5684 9.34089C59.8756 9.07231 59.1251 8.9599 58.3775 9.01269C56.1866 9.13203 54.2441 10.4986 52.8429 12.8975C52.7109 13.1673 52.5298 13.4136 52.3079 13.6255C52.2123 13.6255 52.206 13.166 52.2506 11.3459L52.3142 9.06637L52.0977 9.11412C51.9831 9.14396 50.2189 9.47813 48.1808 9.86005C43.8117 10.6835 43.2003 10.8029 43.0857 10.8626C43.0194 10.9601 42.9902 11.0757 43.0029 11.1908C43.0029 11.5011 42.9647 11.4832 43.9582 11.6323C45.3275 11.8412 45.8053 12.4618 46.0091 14.2878C46.2766 16.6748 46.1682 25.9362 45.8625 27.2013C45.7478 27.7936 45.403 28.3251 44.8945 28.6931C44.5536 28.8298 44.1965 28.9279 43.8309 28.9855L43.0475 29.1287V29.5644V30H56.0274V29.5524L55.9891 29.5465Z"></path>
</svg>
