<svg xmlns="http://www.w3.org/2000/svg" fill="none" viewBox="0 0 100 100" height="100" width="100">
<path fill="#222222" d="M50.3104 64.6234C50.1943 64.6234 50.0916 64.6234 50.0068 64.6145C49.9264 64.6189 49.8327 64.6234 49.7255 64.6234C45.6182 64.6234 37.408 62.1099 35.7026 52.6139C35.4481 51.5648 32.5283 37.8677 49.1362 22.809C49.3461 22.5724 49.6407 22.434 49.9622 22.4251C50.2434 22.4162 50.5291 22.5278 50.739 22.7153C50.7747 22.7465 50.8059 22.7778 50.8372 22.809C67.5478 37.9258 64.5253 51.6898 64.2976 52.6095C61.8645 64.485 50.7836 64.6234 50.3104 64.6234ZM50.0023 62.3778C50.0559 62.3778 50.1095 62.3822 50.1675 62.3912C50.1854 62.3912 50.239 62.3912 50.3059 62.3912C50.7033 62.3912 60.0474 62.2751 62.11 52.1407C62.11 52.1228 62.1189 52.105 62.1234 52.0871C62.1547 51.9621 65.1191 39.1803 49.98 25.0591C34.8588 39.1982 37.8366 51.9755 37.8679 52.105C37.8723 52.1318 37.8813 52.1586 37.8857 52.1853C39.676 62.2751 49.6184 62.3912 49.7166 62.3912C49.7746 62.3912 49.8238 62.3912 49.855 62.3912C49.9041 62.3822 49.9532 62.3822 49.9979 62.3822L50.0023 62.3778Z"></path>
<path fill="#222222" d="M98.8839 100H1.11612C0.500022 100 0 99.5 0 98.8839V1.11612C0 0.500022 0.500022 0 1.11612 0H98.8839C99.5 0 100 0.500022 100 1.11612V98.8839C100 99.5 99.5 100 98.8839 100ZM2.23224 97.7678H97.7678V2.23224H2.23224V97.7678Z"></path>
<path fill="#222222" d="M80.4187 75.0746H20.3625C19.7464 75.0746 19.2463 74.5746 19.2463 73.9585C19.2463 73.3424 19.7464 72.8424 20.3625 72.8424H80.4187C81.0348 72.8424 81.5348 73.3424 81.5348 73.9585C81.5348 74.5746 81.0348 75.0746 80.4187 75.0746Z"></path>
<path fill="#222222" d="M60.583 68.7397C60.3866 68.7397 60.1857 68.6861 60.0071 68.579C59.5339 68.2933 59.3419 67.7084 59.5518 67.1995C59.7437 66.7352 64.3377 55.8373 74.1863 55.8373C74.9855 55.8373 75.8025 55.9132 76.6195 56.0606C76.673 56.0695 76.7266 56.0829 76.7757 56.1007C76.9409 56.1543 80.8027 57.4803 80.8429 60.8242C80.8741 61.1992 80.9098 62.6368 79.8562 63.8288C78.5571 65.2931 76.2579 65.6994 73.0211 64.9985C72.9497 64.9851 72.8827 64.9628 72.8157 64.9315C72.8068 64.9315 71.4005 64.3467 69.4317 64.3467C66.3512 64.3467 63.6635 65.6905 61.4402 68.3424C61.2215 68.6058 60.9045 68.7442 60.583 68.7442V68.7397ZM73.5836 62.8332C75.8471 63.3064 77.4677 63.1368 78.1731 62.36C78.691 61.793 78.6196 61.0027 78.6196 60.9938C78.6196 60.9581 78.6151 60.909 78.6151 60.8733C78.6151 59.2661 76.5391 58.391 76.1373 58.2348C75.481 58.1232 74.8248 58.0651 74.1908 58.0651C69.9942 58.0651 66.8512 60.5652 64.7573 63.0609C66.4806 62.3242 68.1102 62.1099 69.4361 62.1099C71.5657 62.1099 73.155 62.6635 73.5881 62.8332H73.5836Z"></path>
<path fill="#222222" d="M38.9572 70.6638C38.6358 70.6638 38.3188 70.5254 38.1 70.262C36.5107 68.3646 34.5954 67.4047 32.3989 67.4047C31.0015 67.4047 30.0104 67.8155 29.997 67.82C29.9345 67.8467 29.8631 67.8691 29.7961 67.8825C29.0148 68.0521 28.2916 68.1369 27.6576 68.1369C26.2468 68.1369 25.1664 67.7307 24.4521 66.9226C23.6083 65.9716 23.6217 64.8243 23.6485 64.4894C23.6798 62.3554 25.6799 61.1232 26.8629 60.7259C26.9121 60.708 26.9656 60.6946 27.0192 60.6857C27.6442 60.5741 28.2648 60.5161 28.8764 60.5161C35.9303 60.5161 39.4305 67.8378 39.9305 68.9807C40.0287 69.1459 40.0823 69.3379 40.0823 69.5432C40.0823 70.1593 39.5823 70.6594 38.9706 70.6594H38.9572V70.6638ZM25.8718 64.6814C25.8718 64.6814 25.845 65.1413 26.1352 65.4582C26.479 65.8288 27.1531 65.9047 27.6576 65.9047C28.1175 65.9047 28.6487 65.8422 29.238 65.7172C29.6131 65.5743 30.814 65.1725 32.3989 65.1725C33.1266 65.1725 33.9704 65.2573 34.8812 65.5118C33.4079 64.0296 31.4078 62.7528 28.8764 62.7528C28.43 62.7528 27.9701 62.7929 27.5103 62.8688C27.2112 62.9894 25.8808 63.5787 25.8808 64.543C25.8808 64.5877 25.8808 64.6323 25.8718 64.6769V64.6814Z"></path>
<path fill="#222222" d="M31.1041 59.2081C30.7826 59.2081 30.4656 59.0697 30.2469 58.8063C29.0816 57.4134 27.6753 56.708 26.0726 56.708C25.0591 56.708 24.3404 57.0027 24.3314 57.0071C24.2689 57.0339 24.1975 57.0562 24.1305 57.0696C23.5144 57.2036 22.943 57.2705 22.434 57.2705C21.2733 57.2705 20.3804 56.9268 19.7821 56.2526C19.0812 55.4624 19.0812 54.507 19.0991 54.2079C19.1303 52.4266 20.7688 51.4087 21.742 51.0827C21.7911 51.0649 21.8447 51.0515 21.8983 51.0426C22.3894 50.9533 22.8849 50.9086 23.3671 50.9086C28.8807 50.9086 31.6309 56.5294 32.0729 57.5295C32.1711 57.6946 32.2246 57.8866 32.2246 58.0965C32.2246 58.7126 31.7246 59.2126 31.113 59.2126H31.0996L31.1041 59.2081ZM21.3268 54.3865C21.3268 54.3865 21.3224 54.6275 21.4652 54.7793C21.6215 54.9445 21.9653 55.0383 22.4385 55.0383C22.7644 55.0383 23.1483 54.9936 23.5769 54.9043C23.9073 54.7793 24.8359 54.4758 26.077 54.4758C26.3896 54.4758 26.7333 54.4936 27.095 54.5472C26.0994 53.7436 24.8582 53.1409 23.3716 53.1409C23.0501 53.1409 22.7198 53.1677 22.3894 53.2212C22.0947 53.3418 21.3358 53.7391 21.3358 54.2525C21.3358 54.2972 21.3358 54.3418 21.3268 54.3865Z"></path>
</svg>
