<svg width="89" height="83" viewBox="0 0 89 83" fill="none" xmlns="http://www.w3.org/2000/svg">
<path d="M40.8431 36.3984V43.7158H33.5258L33.5069 51.052H40.8431L40.8242 58.3693H48.1604V51.052H55.4777V43.7347H48.1604V36.3984H40.8431Z" fill="#222222"/>
<path d="M54.2659 1.4559C53.7743 0.567234 52.8289 0 51.8079 0H37.23C36.209 0 35.2636 0.548326 34.772 1.4559L0.340887 64.173C-0.131808 65.0428 -0.112902 66.1016 0.397608 66.9714L8.73595 80.8686C9.24646 81.7194 10.154 82.23 11.1372 82.23L77.8439 82.2489C78.8271 82.2489 79.7347 81.7383 80.2452 80.8875L88.6024 66.9903C89.1129 66.1394 89.1318 65.0806 88.6591 64.1919L54.2659 1.4559ZM6.08887 73.2109L44.5284 1.22901L82.9112 73.2488L6.08887 73.2109Z" fill="#222222"/>
</svg>
