<svg width="89" height="89" viewBox="0 0 89 89" fill="none" xmlns="http://www.w3.org/2000/svg">
<path d="M89 0H0V89H89V0Z" fill="white"/>
<path d="M13.7866 78.7365C12.5917 78.7365 11.6114 77.94 11.305 76.8064C11.2437 76.6226 11.2437 76.4081 11.2437 76.1937V74.5699C11.2437 74.2942 11.2744 74.0797 11.3356 73.8653C11.6726 72.6092 12.7143 71.8433 13.8479 71.8433C15.6248 71.8433 16.5745 73.4057 16.5745 75.2439C16.5439 77.3579 15.5329 78.7365 13.7866 78.7365ZM14.3687 70.5565C12.8981 70.5565 11.8565 71.1999 11.2744 72.2109H11.2131V66.4818H11.1825L11.2131 66.4512H8.08813V67.4622L9.5587 67.5847C9.5587 67.5847 9.5587 78.277 9.52806 78.6753L8.0575 78.7978V79.8088H10.9067H10.9374L11.0293 78.3076H11.0599C11.7646 79.5025 12.8062 79.9927 14.1236 79.9927C16.1456 79.9927 18.2289 78.3689 18.2289 75.1214C18.2289 72.456 16.6358 70.5565 14.3687 70.5565Z" fill="#222222"/>
<path d="M22.4568 66.5127H19.3625V67.5237L20.8024 67.6463V78.7062L19.3318 78.8287V79.8703H23.9274V78.8287L22.4568 78.7062V66.5127Z" fill="#222222"/>
<path d="M42.4933 74.4169H37.6527C37.7752 73.2833 38.5105 71.7515 40.1955 71.7515C42.0338 71.7515 42.4933 73.3752 42.4933 74.4169ZM40.3181 70.5566C37.6527 70.5566 36.0289 72.7012 36.0289 75.4585C36.0289 78.2158 37.714 80.0847 40.5019 80.0847C41.9418 80.0847 42.9835 79.7783 43.535 79.5026L43.2286 78.3078C42.6158 78.5835 41.8806 78.7673 40.7164 78.7673C39.0313 78.7673 37.622 77.8482 37.5914 75.6117H43.9945C44.0251 75.4279 44.0558 75.1828 44.0558 74.8458C44.0864 73.1608 43.2899 70.5566 40.3181 70.5566Z" fill="#222222"/>
<path d="M49.3254 74.6013C48.1305 74.1418 47.6097 73.8048 47.6097 73.0388C47.6097 72.3648 48.1305 71.7827 49.1109 71.7827C49.9687 71.7827 50.6121 72.0891 50.9797 72.3342L51.378 71.1393C50.8878 70.833 50.0913 70.5879 49.1415 70.5879C47.2114 70.5879 45.9859 71.7827 45.9859 73.2533C45.9859 74.3562 46.7519 75.2447 48.4062 75.8268C49.6011 76.2863 50.0913 76.6846 50.0913 77.4812C50.0913 78.2471 49.5398 78.8292 48.345 78.8292C47.5178 78.8292 46.66 78.4922 46.1391 78.1858L45.7408 79.4419C46.3842 79.8096 47.3033 80.0853 48.3143 80.0853C50.4283 80.0853 51.715 78.9517 51.715 77.328C51.715 75.98 50.8878 75.1834 49.3254 74.6013Z" fill="#222222"/>
<path d="M55.2688 67.1562C54.6561 67.1562 54.2272 67.6158 54.2272 68.1979C54.2272 68.78 54.6255 69.2089 55.2382 69.2089C55.9122 69.2089 56.2798 68.7494 56.2798 68.1979C56.3105 67.6158 55.8816 67.1562 55.2688 67.1562Z" fill="#222222"/>
<path d="M65.1033 75.9794C65.1033 76.2551 65.0727 76.5921 64.9808 76.8678C64.6438 77.9095 63.7247 78.5529 62.683 78.5529C60.9061 78.5529 59.987 77.0516 59.987 75.2747C59.987 73.1608 61.1205 71.8434 62.683 71.8434C63.9085 71.8434 64.705 72.6399 65.0114 73.6203C65.0727 73.8348 65.1033 74.0799 65.1033 74.3556V75.9794ZM65.2871 72.1191H65.2565C64.8276 71.3532 64.0004 70.5566 62.4073 70.5566C60.2933 70.5566 58.2713 72.3029 58.2713 75.3666C58.2713 77.8788 59.8951 79.809 62.1622 79.809C63.5715 79.809 64.5825 79.135 65.0727 78.2771H65.1033V79.2881C65.1033 81.6165 63.8472 82.4744 62.1622 82.4744C61.0286 82.4744 60.1095 82.1374 59.4968 81.7391L59.0985 83.0258C59.8338 83.516 61.0286 83.7918 62.1315 83.7918C63.2651 83.7918 64.5519 83.516 65.471 82.6888C66.3288 81.8923 66.7577 80.6055 66.7577 78.5222V73.222C66.7577 72.1191 66.7883 71.3838 66.8496 70.7405H65.379L65.2871 72.1191Z" fill="#222222"/>
<path d="M78.1239 74.4475C78.1239 71.3226 76.1631 70.5566 74.907 70.5566C73.4058 70.5566 72.3335 71.4145 71.9046 72.2417H71.874L71.7821 70.7405H68.9022V71.7515L70.3728 71.874C70.4034 72.2723 70.4034 72.7012 70.4034 73.1914V78.6754L68.9329 78.8286V79.8396H73.5284V78.8286L72.0578 78.6754V74.3556C72.0578 74.0799 72.0885 73.8041 72.1804 73.5897C72.4867 72.6706 73.3446 71.9047 74.4168 71.9047C75.9793 71.9047 76.5308 73.1301 76.5308 74.6007V78.6754L75.0602 78.8286V79.8396H79.6251V78.8286L78.1545 78.6754V74.4475H78.1239Z" fill="#222222"/>
<path d="M53.0017 70.7402V71.7819L54.4416 71.9044V79.87H56.096V70.7402H53.0017Z" fill="#222222"/>
<path d="M33.7311 78.7058C33.7311 78.2769 33.7005 77.848 33.7005 77.3578V70.7402H30.5756V71.7512L32.0155 71.9044V76.3161C32.0155 76.6531 31.9542 76.9289 31.8623 77.174C31.5559 77.9399 30.79 78.7058 29.6871 78.7058C28.1859 78.7058 27.6651 77.511 27.6651 75.7953V70.7709H24.5401V71.7819L25.98 71.9351V76.1017C25.98 79.2879 27.6957 80.0845 29.1356 80.0845C30.7594 80.0845 31.7398 79.1347 32.138 78.3994H32.1687L32.2606 79.9006H32.3219H33.5473H33.7311H34.8341V78.8896L33.7311 78.7058Z" fill="#222222"/>
<path d="M79.9315 68.8099V68.1052H80.3604C80.6974 68.1052 80.8812 68.1971 80.8812 68.4422C80.8812 68.718 80.6974 68.8099 80.391 68.8099H79.9315ZM81.2489 68.4422C81.2489 67.9827 80.9425 67.7376 80.391 67.7376H79.5332V70.0353H79.9315V69.1162H80.3298L80.8506 70.0353H81.2795L80.728 69.0856C81.0344 69.0243 81.2489 68.8099 81.2489 68.4422ZM80.3298 70.7094C79.3494 70.7094 78.5528 69.9128 78.5528 68.9324C78.5528 67.952 79.3494 67.1555 80.3298 67.1555C81.3101 67.1555 82.1067 67.952 82.1067 68.9324C82.1067 69.9128 81.3101 70.7094 80.3298 70.7094ZM80.3298 66.7266C79.1349 66.7266 78.1545 67.7069 78.1545 68.9018C78.1545 70.0966 79.1349 71.077 80.3298 71.077C81.5246 71.077 82.505 70.0966 82.505 68.9018C82.505 67.7069 81.5246 66.7266 80.3298 66.7266Z" fill="#222222"/>
<path d="M13.7866 78.7365C12.5917 78.7365 11.6114 77.94 11.305 76.8064C11.2437 76.6226 11.2437 76.4081 11.2437 76.1937V74.5699C11.2437 74.2942 11.2744 74.0797 11.3356 73.8653C11.6726 72.6092 12.7143 71.8433 13.8479 71.8433C15.6248 71.8433 16.5745 73.4057 16.5745 75.2439C16.5439 77.3579 15.5329 78.7365 13.7866 78.7365ZM14.3687 70.5565C12.8981 70.5565 11.8565 71.1999 11.2744 72.2109H11.2131V66.4818H11.1825L11.2131 66.4512H8.08813V67.4622L9.5587 67.5847C9.5587 67.5847 9.5587 78.277 9.52806 78.6753L8.0575 78.7978V79.8088H10.9067H10.9374L11.0293 78.3076H11.0599C11.7646 79.5025 12.8062 79.9927 14.1236 79.9927C16.1456 79.9927 18.2289 78.3689 18.2289 75.1214C18.2289 72.456 16.6358 70.5565 14.3687 70.5565Z" fill="#222222"/>
<path d="M22.4568 66.5127H19.3625V67.5237L20.8024 67.6463V78.7062L19.3318 78.8287V79.8703H23.9274V78.8287L22.4568 78.7062V66.5127Z" fill="#222222"/>
<path d="M42.4933 74.4169H37.6527C37.7752 73.2833 38.5105 71.7515 40.1955 71.7515C42.0338 71.7515 42.4933 73.3752 42.4933 74.4169ZM40.3181 70.5566C37.6527 70.5566 36.0289 72.7012 36.0289 75.4585C36.0289 78.2158 37.714 80.0847 40.5019 80.0847C41.9418 80.0847 42.9835 79.7783 43.535 79.5026L43.2286 78.3078C42.6158 78.5835 41.8806 78.7673 40.7164 78.7673C39.0313 78.7673 37.622 77.8482 37.5914 75.6117H43.9945C44.0251 75.4279 44.0558 75.1828 44.0558 74.8458C44.0864 73.1608 43.2899 70.5566 40.3181 70.5566Z" fill="#222222"/>
<path d="M49.3254 74.6013C48.1305 74.1418 47.6097 73.8048 47.6097 73.0388C47.6097 72.3648 48.1305 71.7827 49.1109 71.7827C49.9687 71.7827 50.6121 72.0891 50.9797 72.3342L51.378 71.1393C50.8878 70.833 50.0913 70.5879 49.1415 70.5879C47.2114 70.5879 45.9859 71.7827 45.9859 73.2533C45.9859 74.3562 46.7519 75.2447 48.4062 75.8268C49.6011 76.2863 50.0913 76.6846 50.0913 77.4812C50.0913 78.2471 49.5398 78.8292 48.345 78.8292C47.5178 78.8292 46.66 78.4922 46.1391 78.1858L45.7408 79.4419C46.3842 79.8096 47.3033 80.0853 48.3143 80.0853C50.4283 80.0853 51.715 78.9517 51.715 77.328C51.715 75.98 50.8878 75.1834 49.3254 74.6013Z" fill="#222222"/>
<path d="M55.2688 67.1562C54.6561 67.1562 54.2272 67.6158 54.2272 68.1979C54.2272 68.78 54.6255 69.2089 55.2382 69.2089C55.9122 69.2089 56.2798 68.7494 56.2798 68.1979C56.3105 67.6158 55.8816 67.1562 55.2688 67.1562Z" fill="#222222"/>
<path d="M65.1033 75.9794C65.1033 76.2551 65.0727 76.5921 64.9808 76.8678C64.6438 77.9095 63.7247 78.5529 62.683 78.5529C60.9061 78.5529 59.987 77.0516 59.987 75.2747C59.987 73.1608 61.1205 71.8434 62.683 71.8434C63.9085 71.8434 64.705 72.6399 65.0114 73.6203C65.0727 73.8348 65.1033 74.0799 65.1033 74.3556V75.9794ZM65.2871 72.1191H65.2565C64.8276 71.3532 64.0004 70.5566 62.4073 70.5566C60.2933 70.5566 58.2713 72.3029 58.2713 75.3666C58.2713 77.8788 59.8951 79.809 62.1622 79.809C63.5715 79.809 64.5825 79.135 65.0727 78.2771H65.1033V79.2881C65.1033 81.6165 63.8472 82.4744 62.1622 82.4744C61.0286 82.4744 60.1095 82.1374 59.4968 81.7391L59.0985 83.0258C59.8338 83.516 61.0286 83.7918 62.1315 83.7918C63.2651 83.7918 64.5519 83.516 65.471 82.6888C66.3288 81.8923 66.7577 80.6055 66.7577 78.5222V73.222C66.7577 72.1191 66.7883 71.3838 66.8496 70.7405H65.379L65.2871 72.1191Z" fill="#222222"/>
<path d="M78.1239 74.4475C78.1239 71.3226 76.1631 70.5566 74.907 70.5566C73.4058 70.5566 72.3335 71.4145 71.9046 72.2417H71.874L71.7821 70.7405H68.9022V71.7515L70.3728 71.874C70.4034 72.2723 70.4034 72.7012 70.4034 73.1914V78.6754L68.9329 78.8286V79.8396H73.5284V78.8286L72.0578 78.6754V74.3556C72.0578 74.0799 72.0885 73.8041 72.1804 73.5897C72.4867 72.6706 73.3446 71.9047 74.4168 71.9047C75.9793 71.9047 76.5308 73.1301 76.5308 74.6007V78.6754L75.0602 78.8286V79.8396H79.6251V78.8286L78.1545 78.6754V74.4475H78.1239Z" fill="#222222"/>
<path d="M53.0017 70.7402V71.7819L54.4416 71.9044V79.87H56.096V70.7402H53.0017Z" fill="#222222"/>
<path d="M33.7311 78.7058C33.7311 78.2769 33.7005 77.848 33.7005 77.3578V70.7402H30.5756V71.7512L32.0155 71.9044V76.3161C32.0155 76.6531 31.9542 76.9289 31.8623 77.174C31.5559 77.9399 30.79 78.7058 29.6871 78.7058C28.1859 78.7058 27.6651 77.511 27.6651 75.7953V70.7709H24.5401V71.7819L25.98 71.9351V76.1017C25.98 79.2879 27.6957 80.0845 29.1356 80.0845C30.7594 80.0845 31.7398 79.1347 32.138 78.3994H32.1687L32.2606 79.9006H32.3219H33.5473H33.7311H34.8341V78.8896L33.7311 78.7058Z" fill="#222222"/>
<path d="M79.9315 68.8099V68.1052H80.3604C80.6974 68.1052 80.8812 68.1971 80.8812 68.4422C80.8812 68.718 80.6974 68.8099 80.391 68.8099H79.9315ZM81.2489 68.4422C81.2489 67.9827 80.9425 67.7376 80.391 67.7376H79.5332V70.0353H79.9315V69.1162H80.3298L80.8506 70.0353H81.2795L80.728 69.0856C81.0344 69.0243 81.2489 68.8099 81.2489 68.4422ZM80.3298 70.7094C79.3494 70.7094 78.5528 69.9128 78.5528 68.9324C78.5528 67.952 79.3494 67.1555 80.3298 67.1555C81.3101 67.1555 82.1067 67.952 82.1067 68.9324C82.1067 69.9128 81.3101 70.7094 80.3298 70.7094ZM80.3298 66.7266C79.1349 66.7266 78.1545 67.7069 78.1545 68.9018C78.1545 70.0966 79.1349 71.077 80.3298 71.077C81.5246 71.077 82.505 70.0966 82.505 68.9018C82.505 67.7069 81.5246 66.7266 80.3298 66.7266Z" fill="#222222"/>
</svg>
