<svg xmlns="http://www.w3.org/2000/svg" fill="none" viewBox="0 0 198 30" height="30" width="198">
<path fill="#222222" d="M124.858 0C124.929 0.313648 124.977 0.632633 125 0.954008C125 10.282 125 19.6091 125 28.9353C125 29.2561 124.962 29.5769 124.934 29.9773H120.984V13.3135L118.615 26.0733H115.379C114.613 21.9392 113.85 17.8213 113.09 13.7195L112.997 13.745V30H109V0H113.654C114.344 3.81034 115.035 7.62067 115.727 11.431C116.102 13.4753 116.496 15.5139 116.882 17.5554L117.115 17.5327C118.241 11.6894 119.365 5.84516 120.488 0H124.858Z"></path>
<path fill="#222222" d="M197.994 30H193.657C193.865 23.8189 190.991 18.4189 189.939 12.6028L189.566 12.6594V29.8755H185.11V28.2651C185.11 19.4462 185.11 10.6264 185.11 1.80566C185.11 1.20283 185.038 0.60283 185 0H189.626L193.275 14.4538L193.663 14.3802V0H198L197.994 30Z"></path>
<path fill="#222222" d="M71.915 0C71.9414 2.66894 71.9883 5.33504 71.9912 8.00398C72.0029 14.7956 72.0029 21.5881 71.9912 28.3816V29.9801H67.5964C67.8395 23.8189 64.8921 18.3731 63.8256 12.5185L63.4623 12.5554V30H59.1641C59.0837 29.8464 59.0284 29.6817 59 29.5116C59 19.6687 59.0098 9.83248 59.0293 0.00284207H63.4242C64.7055 4.82397 65.9839 9.64509 67.2594 14.4662L67.5202 14.4123V0.00284207L71.915 0Z"></path>
<path fill="#222222" d="M52.3848 0C55.1135 0.821039 56.0077 2.78304 55.999 5.37922C55.976 11.823 56.0279 18.2695 55.976 24.7133C55.9471 28.4589 54.3116 29.9679 50.4956 29.9849C49.2466 29.9849 48.0005 30.0189 46.7458 29.9849C43.8383 29.8717 42.0932 28.3541 42.0586 25.54C41.9663 18.5357 42.0009 11.5285 42.0413 4.52421C42.0413 2.27343 43.3335 0.806885 45.4651 0.0198202L52.3848 0ZM51.5657 15.0222C51.5657 12.0325 51.5657 9.04558 51.5657 6.0587C51.5657 4.25524 51.2369 3.94948 49.3822 3.9325C48.9524 3.9325 48.5168 3.9325 48.0899 3.9325C46.9535 3.9325 46.4256 4.51572 46.4112 5.5859C46.4112 6.43525 46.4112 7.26761 46.4112 8.10563C46.4112 13.2886 46.4112 18.4715 46.4112 23.6544C46.4112 25.7551 46.7256 26.0467 48.9264 26.0496C49.1197 26.0496 49.3101 26.0496 49.5033 26.0496C51.2743 26.0326 51.5657 25.7665 51.5714 23.9857C51.5714 20.9959 51.5657 18.0232 51.5657 15.0222Z"></path>
<path fill="#222222" d="M14 0L13.9463 28.2425C13.9463 28.7961 13.9463 29.3498 13.9463 29.9943H9.39996V21.4395H4.57915V30H0V0H4.47475V16.9052H9.35819C9.35819 15.0625 9.35819 13.3419 9.35819 11.6184C9.32438 7.7456 9.2866 3.8728 9.24483 0H14Z"></path>
<path fill="#222222" d="M178.473 0C181.216 0.928803 182.023 2.95348 182 5.58698C181.942 11.8932 182 18.1994 181.976 24.5057C181.976 28.4842 180.392 29.9794 176.27 29.985C175.018 29.985 173.767 30.0332 172.512 29.9567C169.76 29.7925 168.084 28.2577 168.052 25.5931C167.971 18.5421 168 11.4883 168.037 4.43447C168.037 2.15494 169.37 0.733414 171.538 0H178.473ZM177.58 15.0081V6.46198C177.58 4.1513 177.343 3.92759 174.926 3.93042C174.588 3.93042 174.252 3.93042 173.917 3.93042C172.937 3.98423 172.417 4.49677 172.414 5.45105C172.414 11.7998 172.414 18.1494 172.414 24.5C172.414 25.4628 172.952 25.964 173.914 26.0291C174.44 26.0659 174.972 26.049 175.498 26.0291C177.233 26.0121 177.571 25.678 177.577 23.9478C177.585 20.9859 177.58 17.9984 177.58 15.0109V15.0081Z"></path>
<path fill="#222222" d="M105 0.00566012C104.982 7.57551 104.962 15.1454 104.941 22.7152C104.941 23.2277 104.941 23.7431 104.941 24.2556C104.846 28.3926 103.13 29.9896 98.7734 29.9924C97.8843 29.9924 96.9952 30.0094 96.1061 29.9924C93.1425 29.9188 91.4147 28.4605 91.1183 25.6572C91.0091 24.2591 90.9755 22.8566 91.0176 21.4551C91.0353 14.3081 91.06 7.1602 91.0916 0.0113202H95.5371C95.5371 7.93984 95.5193 15.8684 95.5668 23.7969C95.5668 24.4708 95.8631 25.595 96.281 25.7224C97.3394 26.037 98.4692 26.0606 99.541 25.7903C99.9855 25.6657 100.326 24.4906 100.335 23.7884C100.4 18.7962 100.383 13.8013 100.365 8.80914C100.365 5.87276 100.303 2.93638 100.27 0L105 0.00566012Z"></path>
<path fill="#222222" d="M138.197 0C141.097 0.795982 141.997 2.8428 141.991 5.47522C141.991 10.5923 142.012 15.6894 141.991 20.795C141.967 24.5759 140.266 26.1423 136.283 26.1565C135.395 26.1565 134.537 26.1565 133.539 26.1565V30H129.133C129.067 29.8443 129.022 29.6809 129 29.5139C129 19.6759 129.011 9.83796 129.033 0H138.197ZM133.545 22.0771C137.161 22.5149 137.422 22.2989 137.422 19.0098V17.3211C137.422 13.5658 137.422 9.81048 137.422 6.05799C137.422 4.24713 137.084 3.96002 135.149 3.94864H133.548L133.545 22.0771Z"></path>
<path fill="#222222" d="M84.2647 0C87.7178 1.50344 88.3823 3.08049 87.8245 8.57894H83.4043C83.4043 7.75785 83.4043 6.89429 83.4043 6.03074C83.3865 4.35176 82.9831 3.92706 81.4197 3.93272C79.8563 3.93838 79.5181 4.35459 79.5092 6.09019C79.5092 7.30483 79.6012 8.52514 79.4825 9.72846C79.355 11.011 79.972 11.7104 81.0815 12.2625C82.6983 13.0609 84.2706 13.9386 85.8785 14.7512C87.2757 15.4591 87.9551 16.5095 87.9284 18.0327C87.8839 20.462 87.9818 22.8913 87.8928 25.3178C87.78 28.3926 86.098 29.8989 82.8496 29.9753C81.8142 30.0008 80.773 30.0149 79.7436 29.9753C77.1152 29.8422 75.448 28.5058 75.1454 26.0624C74.9585 24.5533 75.1098 23.0074 75.1098 21.3907H79.5122C79.5122 22.4213 79.5122 23.4321 79.5122 24.4429C79.5122 25.7651 80.3754 26.0624 81.565 26.0737C82.7546 26.085 83.4221 25.615 83.4103 24.4202C83.4103 23.1603 83.2738 21.872 83.4399 20.6432C83.6654 18.9444 82.8466 18.0554 81.3633 17.373C79.88 16.6907 78.5273 15.8668 77.0974 15.1335C75.6675 14.4001 75 13.3469 75 11.852C75 9.51611 75 7.18025 75 4.84724C75 2.41795 76.1866 0.775787 78.643 0.0113277L84.2647 0Z"></path>
<path fill="#222222" d="M34.1549 0C37.3893 1.05963 38.2659 2.59524 37.7604 8.61868H33.3777C33.3777 7.64405 33.3601 6.63542 33.3777 5.64096C33.4069 4.24984 32.5654 3.92686 31.309 3.91836C30.0526 3.90986 29.4537 4.4425 29.4566 5.68346C29.4741 11.8996 29.4741 18.1147 29.4566 24.3289C29.4566 25.6974 30.1812 26.0912 31.4756 26.0884C32.7699 26.0855 33.4098 25.6492 33.3777 24.3884C33.3514 23.4195 33.3777 22.4477 33.3777 21.4022H38C37.8598 23.2778 37.886 25.1449 37.5413 26.944C37.2111 28.6609 35.8788 29.7234 34.0614 29.8736C32.3243 30.0421 30.5742 30.0421 28.8372 29.8736C26.5143 29.6129 25.1907 28.117 25.0855 25.7399C24.9687 23.0341 25.0213 20.3199 25.0154 17.6113C25.0154 13.5457 25.0505 9.47999 25.0008 5.4143C24.9687 2.80773 25.8774 0.864134 28.618 0.0169987L34.1549 0Z"></path>
<path fill="#222222" d="M156 0V3.928H152.185V30H147.926V3.97916H144.215C144.14 2.57792 144.07 1.29038 144 0H156Z"></path>
<path fill="#222222" d="M21.905 0C21.9345 2.80806 21.9836 5.61613 21.9902 8.42135C22.0033 15.071 22.0033 21.7197 21.9902 28.3674V30H17V0H21.905Z"></path>
<path fill="#222222" d="M164.896 0C164.931 0.511606 165 1.02321 165 1.53482C165 10.4822 165 19.4278 165 28.3714V30H160V0H164.896Z"></path>
</svg>
