<svg width="112" height="89" viewBox="0 0 112 89" fill="none" xmlns="http://www.w3.org/2000/svg">
<path fill-rule="evenodd" clip-rule="evenodd" d="M93.3596 54.6134C96.0042 54.6134 98.183 56.7914 98.183 59.2808C98.183 61.9267 96.0036 64.1042 93.3596 64.1042C90.8696 64.1042 88.6921 61.9261 88.6921 59.2808C88.6921 56.7914 90.8702 54.6134 93.3596 54.6134ZM93.3596 54.3027C90.7137 54.3027 88.3802 56.4808 88.3802 59.2814C88.3802 62.0833 90.7143 64.4173 93.3596 64.4173C96.1602 64.4173 98.4942 62.0833 98.4942 59.2814C98.4942 56.4802 96.1602 54.3027 93.3596 54.3027Z" fill="white"/>
<path fill-rule="evenodd" clip-rule="evenodd" d="M92.2707 59.1253V57.4132H93.0485C94.1381 57.4132 94.45 57.725 94.45 58.3469C94.45 58.9694 94.1381 59.126 93.0485 59.126L92.2707 59.1253ZM91.6475 56.9466V61.77H92.27V59.7472H92.426C93.5144 59.7472 93.8263 59.9031 94.6041 61.77H95.3831C94.6041 60.0591 94.6041 59.9031 93.8269 59.5919C94.9166 59.4359 95.2272 58.8128 95.2272 58.3463C95.2272 57.4125 94.6047 56.946 93.515 56.946L91.6475 56.9466ZM60.3732 39.8312C57.8832 40.453 53.0598 40.7649 47.9252 38.7421C48.7036 36.4081 50.7258 31.8959 55.2386 28.4729C56.7942 30.3397 59.7507 34.3853 60.3732 39.8312ZM78.733 24.8938H78.5783C74.2215 22.0932 68.4644 20.3817 61.4629 21.9373C51.3483 24.2713 46.8362 33.1403 45.5912 37.4971C44.9687 37.1859 44.3462 36.7187 43.7243 36.2528C43.8796 36.4087 44.0356 36.4087 44.0356 36.4087C44.6581 33.2969 47.3027 24.5832 56.6395 20.5376C65.1972 16.9586 77.178 18.8261 83.557 28.94C83.7129 29.4066 83.8689 29.0954 83.7129 28.94C79.3561 18.982 67.5312 12.7577 55.2386 17.4258C45.4359 21.1601 42.324 31.7406 42.0128 34.8525C41.8568 34.6972 41.5462 34.5412 41.3903 34.2306C41.079 34.0747 40.9231 33.7641 40.6125 33.4522C41.079 29.0954 43.7243 19.9158 52.9045 15.5583C61.151 11.668 73.1324 13.2243 79.9786 23.027C80.1345 23.3382 80.2892 23.1829 80.1345 22.871C75.4658 13.0683 63.3297 7.46715 51.3483 12.6018C41.8568 16.4914 39.3675 26.7607 38.745 31.2735C38.2784 30.4957 37.9672 29.8732 37.5006 29.2507C37.8113 23.1823 40.7678 14.4686 49.948 10.1118C58.3498 6.22153 70.1753 7.93307 76.8655 17.7358C77.1774 18.047 77.3321 17.8911 77.1774 17.5798C72.5099 7.93307 60.3726 2.17595 48.3911 7.31058C39.055 11.2002 36.4103 20.8476 35.9431 25.671C35.4126 24.2124 35.0473 22.6989 34.8541 21.1589C35.1653 17.5798 37.6547 9.02212 46.8349 4.82123C55.2373 0.93096 66.7509 2.33189 73.5977 11.9787C73.9096 12.2899 73.9096 12.1346 73.7537 11.9787C68.3071 2.02064 57.2595 -3.11462 45.2793 2.02064C40.6118 3.88813 37.6553 7.15527 35.7878 10.5784C35.0094 11.9787 34.2316 13.6902 33.765 15.713C33.2978 17.4245 33.1425 18.9808 33.1425 19.9145V20.0698C32.8313 25.2044 34.2316 31.1175 39.055 36.4074C46.213 44.1867 56.171 43.5649 60.5285 42.4752C60.5285 43.0977 60.5285 43.8755 60.3726 44.6539C60.3726 44.498 60.2166 44.3427 60.2166 44.3427C57.2601 45.4317 48.3911 47.4545 40.3006 41.3861C32.9872 35.785 28.631 24.5813 34.2322 14.0008C34.3882 13.5343 34.0763 13.5343 34.0763 13.6896C27.5414 22.5585 28.1639 35.9403 38.2772 44.1861C46.3683 50.721 57.1048 48.231 60.06 46.9867C59.9054 47.1426 59.9054 47.4532 59.7494 47.7645C59.7494 48.0764 59.5935 48.387 59.4388 48.6982C55.3932 50.5651 46.213 52.9004 37.9659 47.1433C30.342 41.8527 25.6732 30.805 30.8085 20.0692C30.9638 19.6026 30.6526 19.6026 30.6526 19.7579C24.4289 28.7822 25.6732 42.1639 36.0984 49.9439C44.1896 56.1675 54.3036 53.211 58.3491 51.5001C58.0385 52.2779 57.7266 52.9004 57.4154 53.5216C51.9695 56.3222 42.9446 58.1903 34.5422 52.4332C27.0735 47.1426 22.5614 35.9396 27.696 25.2032C27.8513 24.8919 27.696 24.8919 27.5401 25.0472C21.4717 34.0721 22.5614 47.4532 32.986 55.2338C40.9212 61.3015 50.5686 58.8122 55.0807 56.7888C53.8364 58.1903 52.5914 59.2787 51.5017 60.0572C48.0786 61.6121 39.6762 63.4803 31.5857 57.7231C24.117 52.4326 19.4489 41.6961 24.4283 30.9597C24.5842 30.6484 24.4283 30.6484 24.2723 30.8037C18.5152 40.4505 19.4489 52.5872 29.8735 60.5231C33.9191 63.6343 38.4312 64.4134 42.1655 64.4134C44.033 64.4134 46.3671 64.1015 48.5452 63.3237C49.7895 63.0118 50.8792 62.5446 51.657 62.0793C51.657 62.0793 51.8129 62.0793 51.8129 61.9234C56.3251 59.5894 60.6819 55.2325 62.8606 48.5423C65.9718 38.5836 60.5266 30.3372 57.2582 27.0694C57.8807 26.7581 58.5038 26.4469 59.281 26.1357C59.125 26.1357 59.125 26.291 59.125 26.291C61.615 28.3137 67.684 35.0046 66.4384 45.1186C65.3487 54.2988 57.7247 63.6343 45.7439 64.1009C45.2774 64.1009 45.5886 64.2568 45.7439 64.4127C56.4804 65.5011 67.8387 58.3437 69.8615 45.4292C71.5724 35.1599 64.1044 27.0694 61.4597 25.3572C61.7703 25.2013 61.9263 25.046 62.2375 25.046C62.5481 24.8907 63.0153 24.8907 63.3272 24.7347C66.9056 27.38 73.5958 34.2262 72.6627 44.3401C71.8849 53.5197 64.7275 63.1671 52.7467 63.9462C52.2801 64.1009 52.4354 64.2568 52.7467 64.2568C63.4825 65.0346 74.5302 57.41 76.0864 44.4954C77.3308 34.3821 69.8628 27.0688 66.2844 24.2682H68.4625C73.5971 27.5359 79.8208 34.3821 78.887 44.4954C78.1092 53.6756 70.7959 63.1671 58.8151 64.1009C58.3485 64.1009 58.5044 64.2568 58.8151 64.2568C69.5521 65.0346 80.5979 57.41 82.1542 44.4954C83.3998 34.5374 76.397 27.38 72.508 24.5794C74.2189 24.8907 75.7752 25.3578 77.0195 25.9797C79.9761 28.1578 85.8879 34.5374 85.1107 44.4954C84.3329 53.6756 77.1755 63.0112 65.5053 63.9462C65.0387 64.1009 65.1947 64.2568 65.3493 64.2568C76.7089 64.4127 86.6669 57.41 88.2232 44.4954C89.626 34.074 82.1561 27.0719 78.733 24.8938ZM49.1702 76.552C49.1702 76.3961 49.3255 76.3961 49.4814 76.3961H51.9708C52.282 76.3961 52.438 76.3961 52.438 76.552H51.9708C51.5042 76.552 51.3489 76.8639 51.3489 77.1745V86.9766C51.3489 87.9103 51.9708 87.7556 53.5277 87.7556H55.3945C55.7058 87.7556 56.1729 87.5997 56.4836 86.8219C56.6395 86.666 56.6395 86.51 56.6395 86.51C56.6395 86.3554 56.6395 86.3553 56.7942 86.3553V86.666C56.6395 87.2885 56.4836 87.4438 56.4836 88.0663C56.4836 88.2222 56.3276 88.2222 56.3276 88.2222H49.0143C49.0143 88.0663 49.0143 88.0663 49.1702 88.0663C49.4814 88.0663 50.1039 88.0663 50.1039 87.2885V77.3304C50.1039 76.8639 49.9486 76.5514 49.4814 76.5514L49.1702 76.552ZM60.5291 76.552C60.3732 76.552 60.2173 76.552 60.2173 76.3961H62.3966C62.7072 76.3961 62.7072 76.552 62.7072 76.8639C63.485 79.3526 64.1075 81.3754 65.9744 86.1994C66.9081 84.0213 68.6203 79.8198 69.5534 76.8639C69.7081 76.3961 69.7081 76.3961 70.02 76.3961H71.5749C71.8868 76.3961 71.8868 76.3961 71.8868 76.552H71.5749C71.1084 76.552 70.7971 76.8639 70.7971 77.6417C70.9531 79.6645 71.5749 86.666 71.7309 87.1332C71.7309 87.4438 71.7309 88.0669 72.5099 88.0669H72.8205C72.8205 88.2228 72.6646 88.2228 72.5099 88.2228H70.0206C69.8647 88.2228 69.554 88.2228 69.554 88.0669H69.8647C70.4871 88.0669 70.4871 87.911 70.4871 87.1332C70.3312 85.4222 69.7081 78.4195 69.7081 78.1089C69.5534 78.4195 65.9737 87.9109 65.8178 88.0669C65.8178 88.2228 65.8178 88.3775 65.6631 88.3775C65.5072 88.3775 65.5072 88.0669 65.5072 87.9109C65.3513 87.9109 62.24 78.5754 62.0841 78.4195C61.6175 81.8426 61.3063 86.8225 61.3063 87.2891C61.3063 88.0669 61.7729 88.0669 62.0841 88.0669H62.24C62.24 88.2228 62.0841 88.2228 62.0841 88.2228H59.5941C59.5941 88.0669 59.7501 88.0669 59.906 88.0669C60.3726 88.0669 60.6838 87.6003 60.6838 86.9772C61.1504 84.0219 61.4629 78.4195 61.4629 77.3311C61.4629 76.552 60.8404 76.552 60.5291 76.552ZM80.4452 76.708C80.4452 76.3961 80.5998 76.2414 80.7558 76.2414C80.9117 76.2414 80.9117 76.552 81.0677 76.708L84.3348 86.9766C84.8014 87.7556 85.2685 87.9103 85.5792 88.0663H85.8898C85.8898 88.2222 85.7351 88.2222 85.4232 88.2222H83.2451C82.9345 88.2222 82.7786 88.2222 82.7786 88.0663H83.0892C83.2451 88.0663 83.4011 87.9103 83.4011 87.5997C82.9345 86.0435 82.0008 83.5548 82.0008 83.3988C81.8448 83.2429 82.0008 83.2429 81.6889 83.2429C81.2223 83.0882 79.5108 83.0882 79.0442 83.2429C78.8883 83.2429 78.7323 83.2429 78.7323 83.3988C78.7323 83.5548 77.7986 86.3554 77.6439 87.1332C77.6439 87.7556 77.9545 88.0669 78.4217 88.0669H78.5777C78.5777 88.2228 78.5777 88.2228 78.2658 88.2228H75.9318C75.7771 88.2228 75.6211 88.2228 75.6211 88.0669H75.9318C76.5542 88.0669 76.7108 87.6003 76.8655 86.9772L80.4452 76.708ZM79.0449 82.4651C79.0449 82.6198 79.0449 82.6197 79.1995 82.6197H81.5348C81.6895 82.6197 81.6895 82.6198 81.6895 82.4651L80.4452 78.2642L79.0449 82.4651ZM90.5591 76.3954H88.6923C88.6923 76.5514 88.8469 76.5514 89.0029 76.5514C89.4694 76.5514 89.9366 76.7073 89.9366 77.3304V87.2885C89.9366 87.9097 89.626 88.0663 89.0029 88.0663H88.8469C88.8469 88.2222 89.0029 88.2222 89.1588 88.2222H91.6475C91.9594 88.2222 92.4266 88.2222 92.4266 88.0663H92.1147C91.8041 88.0663 91.181 88.0663 91.181 86.9766V82.3091C91.181 82.1532 91.3369 82.1532 91.3369 82.1532H92.8932C93.0478 82.1532 93.0478 82.1532 93.2038 82.3091C94.4494 84.0213 95.8497 86.3553 97.094 87.5997C98.0278 88.6894 99.4281 89 100.361 89C100.517 89 100.828 89 100.828 88.8441H100.672C100.051 88.6894 99.4274 88.5334 99.1168 88.2228C98.3378 87.7563 97.8712 86.9772 97.5606 86.5107L94.6041 82.1538C94.4494 81.9992 94.2934 81.8432 94.2934 81.6873C94.4494 81.3767 95.8497 80.5989 95.8497 79.0426C95.8497 78.1089 95.5378 77.4864 95.2272 77.1758C94.2934 76.0861 92.8932 76.242 91.96 76.242C91.6475 76.2408 90.8704 76.3954 90.5591 76.3954ZM94.6041 79.352C94.6041 80.4417 94.2934 81.686 92.8932 81.686H91.4929C91.181 81.686 91.181 81.686 91.181 81.3754V77.1745C91.181 76.7079 91.4929 76.708 91.8035 76.552C92.426 76.552 93.0478 76.7079 93.5144 77.0186C94.2934 77.4851 94.6041 78.4189 94.6041 79.352ZM102.229 76.552C102.074 76.552 102.074 76.552 102.074 76.3961H105.496C105.496 76.552 105.341 76.552 105.341 76.552C105.029 76.552 104.251 76.552 104.251 77.4857V86.3553C104.251 87.1331 104.251 88.0663 105.185 88.0663H105.496C105.496 88.2222 105.341 88.2222 104.562 88.2222H101.917C101.917 88.0663 102.073 88.0663 102.228 88.0663C102.695 88.0663 103.162 87.9103 103.162 87.2885V77.4851C103.162 76.8639 102.851 76.552 102.229 76.552Z" fill="white"/>
<path fill-rule="evenodd" clip-rule="evenodd" d="M108.452 76.5523C108.298 76.5523 108.142 76.5523 108.142 76.3963H110.942C110.942 76.5523 110.942 76.5523 110.631 76.5523C110.164 76.5523 109.852 76.8642 109.541 77.1748C108.297 78.4191 107.051 79.9754 105.651 81.3757C105.651 81.3757 105.495 81.5316 105.495 81.6863L105.807 81.9982C105.807 82.1528 109.23 86.6656 109.385 86.8215C109.541 86.9762 110.008 87.5993 110.631 87.91C110.942 88.0659 111.098 88.0659 111.252 88.0659C111.408 88.0659 111.408 88.0659 111.408 88.2218H108.452C108.452 88.0659 108.763 88.0659 108.763 87.91L108.608 87.7553C108.141 86.8215 105.184 83.0878 104.717 82.6194C104.561 82.3088 104.407 82.3088 104.407 82.1528C104.407 81.9982 104.561 81.8422 104.873 81.5316C105.963 80.286 107.674 78.4191 108.452 77.4854C108.608 77.3307 108.918 77.0188 108.918 76.8642C108.919 76.5523 108.608 76.5523 108.452 76.5523ZM34.544 82.3094C34.544 78.731 36.878 76.0857 39.9899 76.0857C43.1017 76.0857 45.5911 78.8863 45.5911 82.3094C45.5911 85.7325 43.257 88.3771 40.1452 88.3771C37.0334 88.3771 34.544 85.7325 34.544 82.3094ZM36.0996 83.3985C37.0334 86.6656 39.3674 88.3771 41.5455 87.7553C43.8795 87.1328 44.9686 84.4881 44.0348 81.2191C43.1011 77.7973 40.9224 76.0845 38.589 76.7076C36.2556 77.4854 35.1665 80.1313 36.0996 83.3985ZM20.2292 82.3094C20.2292 78.731 22.5632 76.0857 25.6751 76.0857C28.7875 76.0857 31.2769 78.8863 31.2769 82.3094C31.2769 85.7325 28.9428 88.3771 25.831 88.3771C22.7185 88.3771 20.2292 85.7325 20.2292 82.3094ZM21.7848 83.3985C22.7185 86.6656 25.0526 88.3771 27.386 87.7553C29.5647 87.1328 30.6537 84.4881 29.72 81.2191C28.7869 77.7973 26.6082 76.0845 24.2741 76.7076C21.9407 77.4854 20.8517 80.1313 21.7848 83.3985ZM19.4507 72.9739H17.1167C16.8055 72.9739 16.4948 72.8179 16.4948 72.9739C16.4948 73.1286 16.6501 73.1286 16.6501 73.1286C17.1167 73.1286 17.4279 73.2845 17.4279 73.9076C17.4279 74.2182 17.4279 74.6854 17.272 75.152C15.7164 79.1982 14.1602 82.9319 12.7599 86.1997C11.9814 84.0216 11.2036 81.6869 10.4258 79.5088C11.2036 77.642 11.9821 75.9304 12.6046 74.3742C13.0711 73.4404 13.5383 73.1286 13.8489 73.1286C14.1602 73.1286 14.1602 73.1286 14.1602 72.9739C14.1602 72.8179 14.0042 72.8179 13.693 72.9739H11.5149C11.0477 72.9739 10.7371 72.818 10.7371 73.1286H11.0477C11.3589 73.1286 11.6702 73.2845 11.6702 73.9076C11.8255 74.2182 11.6702 74.6854 11.5142 75.152C11.0471 76.3963 10.5805 77.486 10.114 78.731C9.49209 76.7082 9.0249 74.9954 8.71366 73.9076C8.55835 73.4411 8.71366 73.2851 9.0249 73.1286C9.33615 73.1286 9.49146 73.2845 9.64676 73.1286H9.8027C9.8027 72.818 9.33615 72.9739 9.0249 72.9739H6.37962C6.06837 72.9739 5.75712 72.9739 5.75712 73.1286C5.75712 73.1286 5.91307 73.2845 6.06837 73.1286C6.69087 73.1286 7.00211 73.5951 7.31336 74.0623L9.49209 80.5985L7.15805 86.1997C5.44651 81.6869 3.57903 76.2417 2.95717 73.9076C2.80123 73.4411 2.95717 73.2851 3.26841 73.1286C3.57966 73.1286 3.73497 73.2845 3.89027 73.2845L4.04622 73.1286C4.04622 72.818 3.73497 72.9739 3.26778 72.9739H0.622495C0.311248 72.9739 0 72.9739 0 73.1286C0 73.1286 0.155941 73.2845 0.311247 73.2845C0.933742 73.1286 1.24436 73.5951 1.4003 74.0623L6.37962 87.9106C6.37962 88.0665 6.37962 88.3771 6.69087 88.3771C6.84617 88.3771 7.00148 88.2225 7.15742 87.9106C7.77991 86.0437 8.71366 83.7097 9.8027 81.3757L11.9814 87.9106C11.9814 88.0665 12.1374 88.3771 12.2927 88.3771C12.4486 88.3771 12.6039 88.2225 12.7599 87.9106C14.3161 84.1763 16.6495 78.2645 18.3611 74.3742C18.6723 73.4404 19.1389 73.1286 19.6054 73.1286C19.7614 73.1286 19.9167 73.1286 19.9167 72.9739C19.9173 72.8179 19.762 72.8179 19.4507 72.9739Z" fill="white"/>
</svg>
