<svg xmlns="http://www.w3.org/2000/svg" fill="none" viewBox="0 0 65 32" height="32" width="65">
<path fill="#222222" d="M62.8385 23.4664C64.0778 21.1692 64.7147 18.6023 64.6912 15.9998C64.7041 7.21262 57.4527 0.0558724 48.4798 0C39.8801 0.0533328 32.8294 6.71739 32.2685 15.0856C32.3148 14.6183 32.271 14.1281 32.2685 13.7141H17.2922V20.4188L22.0784 20.5712C20.6657 22.2296 18.5531 23.3344 16.2115 23.314C15.2365 23.3201 14.2701 23.1351 13.3682 22.7696C12.4663 22.4042 11.6468 21.8657 10.9574 21.1853C10.2681 20.5049 9.7224 19.6962 9.35215 18.806C8.98189 17.9159 8.7944 16.962 8.80055 15.9998C8.79283 12.01 12.0994 8.74149 16.2115 8.68562C18.9468 8.74149 21.3579 10.2399 22.696 12.4951L30.2613 8.22848C28.8687 5.75091 26.8337 3.68326 24.3649 2.23737C21.8961 0.791473 19.0822 0.0193159 16.2115 0C7.2386 0.0533328 -0.0127755 7.21008 9.06763e-05 15.9998C-0.00704811 18.1029 0.407399 20.1867 1.21957 22.131C2.03174 24.0754 3.22559 25.842 4.73238 27.3291C6.23916 28.8162 8.02913 29.9945 9.99921 30.7961C11.9693 31.5977 14.0806 32.0067 16.2115 31.9997C24.7984 32.02 31.8387 25.3788 32.4229 17.0665C32.8526 25.3788 39.8929 32.0225 48.4798 31.9997C51.6423 32.02 54.5655 31.1438 56.9715 29.5616L58.9786 31.5425L65 25.5997L62.8385 23.4664Z"></path>
<path fill="white" d="M55.9975 17.5933L54.4352 16.1871L48.655 22.2806L50.3734 23.843C49.7549 23.9546 49.1272 24.0069 48.4987 23.9993C44.3979 24.0201 41.0495 20.6713 41 16.4996C41.0335 14.5211 41.8343 12.6329 43.2334 11.2336C44.6325 9.83437 46.5204 9.03349 48.4987 9C52.6595 9.05729 56.0079 12.4087 55.9975 16.4996C56.0079 16.8928 55.9818 17.2444 55.9975 17.5933Z"></path>
</svg>
