<svg width="94" height="89" viewBox="0 0 94 89" fill="none" xmlns="http://www.w3.org/2000/svg">
<path d="M42.1648 16.2706L70.2132 15.961L70.2099 15.7261L42.145 16.0357C42.1571 16.1136 42.1593 16.1916 42.1637 16.2706H42.1648Z" fill="white"/>
<path d="M34.7992 16.1167L24.1301 16.2342L24.1334 16.4691L34.4644 16.3549C34.5654 16.2649 34.6774 16.1848 34.7992 16.1167Z" fill="white"/>
<path d="M38.566 22.5119L76.5601 22.1837V21.9487L38.5594 22.277C38.5638 22.3549 38.5682 22.4329 38.566 22.5119Z" fill="white"/>
<path d="M34.3634 22.314L17.9974 22.4567V22.6916L34.3634 22.5489C34.3601 22.4699 34.3601 22.393 34.3634 22.314Z" fill="white"/>
<path d="M12.8297 32.3354L12.8275 32.1005L82.1613 31.5933L82.1624 31.8282L12.8297 32.3354Z" fill="white"/>
<path d="M17.1992 64.9962L17.1981 64.7601L78.0948 64.2529L78.0959 64.4879L17.1992 64.9962Z" fill="white"/>
<path d="M23.344 71.6446L23.3407 71.4097L72.2069 70.9014L72.2102 71.1363L23.344 71.6446Z" fill="white"/>
<path d="M48.1142 36.459C48.0363 36.4601 47.9572 36.4612 47.8771 36.4612L47.8496 34.8397L47.8453 34.6223L47.8332 33.9471L47.7991 32.0807L47.7948 31.8447L47.6992 26.4783L47.6279 22.4337L47.6235 22.1988L47.517 16.211L47.5115 15.976L47.3831 8.69605L47.3787 8.45781C47.3798 8.45672 47.3787 8.45672 47.3787 8.45672V8.43695L47.3776 8.42927V8.33595L47.3765 8.29423L47.3743 8.17895H47.4939V8.17676H47.6103L47.6125 8.29643V8.41719L47.6136 8.41829L47.6158 8.5665L47.7464 15.9727L47.7519 16.2088L47.8584 22.1966L47.8628 22.4315L47.9375 26.6473L48.0286 31.8436L48.033 32.0785L48.067 33.946L48.0725 34.1678V34.1699L48.0802 34.6333L48.0846 34.8331L48.1131 36.4601L48.1142 36.459Z" fill="white"/>
<path d="M48.8915 80.3792L48.774 80.3814H48.6555L48.6544 80.3155V80.2452L48.6478 79.94L48.6423 79.6425L48.5698 75.5957L48.4963 71.3821L48.493 71.1483L48.4875 70.8694L48.3777 64.7356L48.3744 64.4996L48.325 61.6583L48.2899 59.6766L48.2108 55.2456C48.2888 55.2478 48.3678 55.2511 48.448 55.2522L48.527 59.7074L48.561 61.6714L48.6104 64.4974L48.6137 64.7334L48.7224 70.8233L48.729 71.1472L48.7323 71.381L48.8037 75.3871L48.8816 79.8192L48.8849 80.0114V80.1157L48.8882 80.2397L48.8904 80.3814L48.8915 80.3792Z" fill="white"/>
<path d="M62.4633 33.8988C62.3854 33.8988 62.3074 33.8999 62.2273 33.9043C62.1087 33.1347 62.0791 32.9865 61.9199 32.229C61.9023 32.1444 61.8847 32.061 61.8661 31.9765C61.8496 31.8974 61.832 31.8195 61.8134 31.7426C61.416 29.9465 60.9032 28.1844 60.2731 26.4553C60.2357 26.3543 60.1995 26.2544 60.1611 26.1534C59.6605 24.8074 59.1082 23.536 58.522 22.3383C58.4835 22.2603 58.4451 22.1824 58.4056 22.1055C57.8852 21.0559 57.3374 20.0646 56.7763 19.1325C56.1297 18.0522 55.4644 17.0509 54.8024 16.1309C54.7464 16.0518 54.6904 15.9739 54.6344 15.8981C51.5955 11.7284 48.6565 9.24395 47.7277 8.50618C47.686 8.47434 47.6487 8.4447 47.6157 8.41944C47.5817 8.3931 47.552 8.37004 47.5279 8.35028C47.5279 8.35028 47.5268 8.34918 47.5268 8.35028C47.5191 8.34369 47.5125 8.3393 47.5059 8.33381C47.4928 8.32503 47.4829 8.31624 47.473 8.30966H47.4719C47.4719 8.30966 47.462 8.30087 47.4565 8.29648C47.439 8.28221 47.428 8.27453 47.4258 8.27343L47.4949 8.17901L47.5301 8.12961L47.563 8.0835C47.563 8.0835 47.5861 8.09996 47.6201 8.12631H47.6212C47.653 8.15047 47.6959 8.1834 47.7508 8.22512C47.7771 8.24708 47.8078 8.27123 47.8408 8.29648H47.8419C47.8748 8.32283 47.911 8.35247 47.9506 8.38322C48.9815 9.21101 51.9128 11.7339 54.9198 15.8937C54.9758 15.9717 55.0318 16.0496 55.0867 16.1265C55.7454 17.0487 56.4053 18.05 57.0464 19.127C57.6041 20.0602 58.1465 21.0515 58.6658 22.1011C58.7042 22.1791 58.7426 22.257 58.78 22.335C59.3552 23.5174 59.8987 24.77 60.3894 26.0963C60.4224 26.1841 60.4553 26.2719 60.4872 26.3608C61.1261 28.1185 61.6476 29.9103 62.0494 31.7371C62.067 31.8151 62.0846 31.893 62.0999 31.971C62.1131 32.0259 62.1241 32.0808 62.1351 32.1357C62.3008 32.9217 62.3371 33.0996 62.4578 33.8966L62.4633 33.8988Z" fill="white"/>
<path d="M60.1688 57.6294C60.2588 57.5998 60.351 57.5691 60.4454 57.5361C60.0875 58.6713 59.6945 59.8109 59.263 60.9571C58.8338 62.1055 58.3672 63.2604 57.8644 64.4198C57.8303 64.4988 57.7952 64.5768 57.7612 64.6558C56.8335 66.7802 55.7839 68.9243 54.6147 71.0839C54.574 71.1618 54.5301 71.2409 54.4873 71.3199C53.5497 73.0436 52.5353 74.7771 51.444 76.5194C50.7205 77.6755 49.9641 78.8359 49.1747 80.0008C49.1692 80.0085 49.1648 80.0161 49.1582 80.0238C49.1154 80.0886 49.0704 80.1534 49.0254 80.2181C49.0232 80.2236 49.0188 80.228 49.0155 80.2335C49.0133 80.239 49.0089 80.2423 49.0067 80.2478C48.9606 80.3148 48.9145 80.3817 48.8695 80.4487L48.774 80.3828L48.6774 80.3159C48.6938 80.2917 48.7103 80.2686 48.7257 80.2445C48.7641 80.1896 48.8003 80.1347 48.8377 80.0798C48.8541 80.0568 48.8695 80.0337 48.8849 80.0106C48.9145 79.9689 48.942 79.9261 48.9705 79.8844C49.7741 78.7009 50.5427 77.5218 51.276 76.347C52.3278 74.6629 53.3104 72.9887 54.2194 71.3221C54.2622 71.2431 54.3062 71.164 54.3479 71.0861C55.5204 68.9254 56.5733 66.7824 57.5054 64.658C57.5394 64.579 57.5745 64.4999 57.6075 64.4209C58.1037 63.2802 58.5648 62.1439 58.9908 61.0142C59.42 59.879 59.812 58.7504 60.1688 57.6284V57.6294Z" fill="white"/>
<path d="M62.6138 48.0151C62.5688 48.3456 62.5205 48.6761 62.4678 49.0076C62.3393 49.8321 62.1889 50.6621 62.0176 51.4954C61.9847 51.2703 61.9518 51.0409 61.9155 50.8048C62.033 50.1944 62.1395 49.5851 62.2339 48.9802C62.2778 48.7068 62.3184 48.4323 62.3558 48.1579C62.4436 48.1128 62.5281 48.0645 62.6138 48.0151Z" fill="white"/>
<path d="M41.8409 15.1989C41.8882 15.278 41.9277 15.3603 41.965 15.4448C44.8974 10.8645 47.5301 8.30649 47.5762 8.26367C47.5762 8.26367 44.7613 10.6658 41.8409 15.1989Z" fill="white"/>
<path d="M36.3471 27.2389C36.2187 27.6353 36.0913 28.0371 35.9717 28.4444C35.628 29.6037 35.3283 30.7675 35.0747 31.9378C35.0582 32.0169 35.0407 32.0937 35.0242 32.1728C34.9891 32.3374 34.955 32.501 34.9232 32.6657C34.8365 33.0961 34.7552 33.5275 34.6806 33.959C34.6169 34.3202 34.5576 34.6836 34.5038 35.0481C34.4797 35.2084 34.4555 35.3709 34.4336 35.5311C34.3589 35.5103 34.2831 35.4894 34.2052 35.4708C34.2261 35.3269 34.2469 35.182 34.2678 35.0382C34.3249 34.6605 34.3842 34.2851 34.45 33.9096C34.5236 33.4748 34.6048 33.0434 34.6927 32.6119C34.7212 32.467 34.7508 32.3221 34.7816 32.1761C34.7981 32.0981 34.8156 32.0202 34.8332 31.9411C35.0912 30.7433 35.3975 29.5521 35.7488 28.3686C35.8729 27.946 36.0057 27.5299 36.1386 27.1182C36.2077 27.1599 36.2703 27.2049 36.346 27.24L36.3471 27.2389Z" fill="white"/>
<path d="M48.6621 80.3091L48.6544 80.3157L48.4765 80.4529C48.426 80.3871 48.3744 80.3201 48.325 80.2542C48.0022 79.8326 47.6871 79.411 47.3775 78.9884C47.2118 78.7666 47.0493 78.5437 46.8901 78.3209C46.2292 77.4085 45.5935 76.4962 44.9842 75.5828C44.062 74.206 43.1969 72.8249 42.3888 71.4449C42.3438 71.3669 42.2988 71.289 42.2538 71.2121C41.0143 69.0812 39.9098 66.948 38.9393 64.8149C38.9042 64.7358 38.8679 64.6579 38.8339 64.581C38.1445 63.0484 37.5242 61.5169 36.9741 59.9853C36.5877 58.9138 36.2375 57.8434 35.9224 56.7729C36.0102 56.7905 36.0969 56.8103 36.1848 56.8289C36.5042 57.9016 36.8588 58.9742 37.2475 60.0479H37.2486C37.7942 61.5575 38.409 63.0681 39.093 64.5788C39.127 64.6568 39.1633 64.7347 39.1984 64.8127C40.1733 66.9458 41.2822 69.079 42.525 71.21C42.5711 71.2879 42.615 71.3658 42.6622 71.4427C43.4406 72.7689 44.2717 74.093 45.1544 75.4148C45.913 76.5522 46.7111 77.6885 47.5466 78.8237C47.708 79.0455 47.8738 79.2672 48.0407 79.489C48.2295 79.7426 48.4216 79.9951 48.6138 80.2476H48.6148C48.628 80.2652 48.6401 80.2817 48.6544 80.3003C48.6566 80.3036 48.6599 80.3069 48.6621 80.3102V80.3091Z" fill="white"/>
<path d="M82.1613 31.702V31.6526C82.1548 31.6328 82.1482 31.6119 82.1405 31.5933C82.012 31.2617 81.8803 30.9313 81.743 30.603C81.7057 30.5108 81.6651 30.4175 81.6267 30.3274C81.5685 30.1957 81.5114 30.0629 81.4521 29.9311C81.3237 29.6413 81.1886 29.3481 81.0492 29.055C81.0119 28.976 80.9756 28.898 80.9361 28.819C80.8768 28.6927 80.8143 28.5665 80.7517 28.438C80.6847 28.3041 80.6166 28.1712 80.5486 28.0373C80.4882 27.9198 80.4256 27.8012 80.363 27.6816C80.3619 27.6805 80.3619 27.6772 80.3586 27.675C80.3158 27.5915 80.273 27.5103 80.2291 27.4291C75.079 17.8754 65.6933 10.8347 54.5367 8.72025C52.9503 8.41943 51.3298 8.21852 49.6797 8.1252C49.6699 8.1252 49.6578 8.1241 49.6457 8.1241C49.3877 8.10763 49.1275 8.09556 48.8684 8.08677H48.864C48.8552 8.08677 48.8454 8.08568 48.8366 8.08568C48.7674 8.08348 48.6939 8.08128 48.617 8.08019C48.516 8.0758 48.4172 8.0725 48.3151 8.0714H48.3129C48.2273 8.06921 48.1416 8.06701 48.056 8.06592H48.0538C47.8683 8.06372 47.6827 8.06152 47.4961 8.06152C47.1107 8.06152 46.7287 8.06921 46.3477 8.08238C46.3038 8.08348 46.261 8.08458 46.2192 8.08677C46.1775 8.08897 46.138 8.08897 46.0985 8.09117C46.0546 8.09226 46.0107 8.09336 45.9678 8.09556C45.8646 8.09995 45.768 8.10324 45.6791 8.10763C45.6352 8.10983 45.5924 8.11203 45.5517 8.11422C45.5111 8.11532 45.4727 8.11861 45.4365 8.11971C45.3728 8.12191 45.3091 8.1263 45.2443 8.12959C45.1741 8.13398 45.1181 8.13728 45.0786 8.13947C45.0434 8.14167 45.0083 8.14386 44.9732 8.14606C44.8941 8.15155 44.8019 8.15814 44.6976 8.16582C44.6207 8.17131 44.5395 8.1779 44.4495 8.18558C44.4187 8.18778 44.3869 8.19107 44.3562 8.19327C44.2892 8.19876 44.2222 8.20315 44.1563 8.20974C44.018 8.22291 43.8676 8.23718 43.7062 8.25255C43.6261 8.26024 43.5426 8.26902 43.457 8.2789C43.3297 8.29317 43.1968 8.30745 43.0574 8.32611C43.0102 8.3316 42.9641 8.33819 42.9169 8.34258C42.8477 8.35026 42.7796 8.35795 42.7105 8.36673C42.4459 8.40077 42.1648 8.43809 41.8684 8.48201C41.8014 8.49189 41.7333 8.50287 41.6664 8.51275C41.5807 8.52592 41.4962 8.5391 41.4106 8.55337C39.4311 8.87505 37.5033 9.35152 35.6435 9.96962C35.6424 9.96962 35.6347 9.97182 35.6336 9.97401C32.4607 11.0269 29.4789 12.4925 26.7573 14.3029C26.7562 14.304 26.7551 14.304 26.7529 14.3051C26.7331 14.3194 26.7123 14.3326 26.6947 14.3468C26.4005 14.5423 26.1085 14.7421 25.8208 14.9485C25.5935 15.1088 25.3696 15.2723 25.1478 15.4381C22.4503 17.4472 20.0405 19.8087 17.9941 22.4557C17.9579 22.5029 17.9238 22.5468 17.8909 22.5918V22.6017C17.522 23.0826 17.1652 23.5689 16.8216 24.0652C16.8216 24.0652 16.815 24.074 16.8018 24.0937C16.7886 24.1102 16.7787 24.1267 16.7678 24.1431C16.6975 24.2452 16.5647 24.444 16.3824 24.7151C16.3637 24.7426 16.3462 24.77 16.3264 24.7986C16.3253 24.8008 16.3242 24.803 16.3209 24.8052C15.0222 26.7901 13.9166 28.909 13.0295 31.1333C12.9428 31.3485 12.8582 31.5658 12.777 31.7843C12.519 32.465 12.2819 33.1567 12.0667 33.8571V33.8593C12.0228 34.0031 11.98 34.148 11.9371 34.2919C12.0305 34.2589 12.1227 34.2293 12.2105 34.1996C12.2226 34.1612 12.2336 34.1206 12.2456 34.0822C12.4246 33.4915 12.6178 32.9063 12.8264 32.3289C12.8539 32.2542 12.8813 32.1785 12.9109 32.1038C12.9516 31.9896 12.9944 31.8754 13.0372 31.7646C13.125 31.5329 13.2162 31.3013 13.3106 31.0729C14.2932 28.6378 15.5414 26.3312 17.0192 24.1903C17.3705 23.682 17.735 23.1836 18.1116 22.6928C18.1708 22.6138 18.2312 22.5359 18.2927 22.4568H18.2938C20.0219 20.2457 21.9914 18.2498 24.1861 16.4734H24.1872L24.1971 16.4723C24.2959 16.3922 24.3969 16.312 24.4979 16.2341C24.8086 15.986 25.127 15.7455 25.4475 15.5106C25.8417 15.2185 26.2435 14.9353 26.6486 14.6619C26.877 14.506 27.1064 14.3556 27.337 14.2052C32.9251 10.6042 39.5694 8.45346 46.7078 8.30854C46.8736 8.30415 47.0394 8.30196 47.2051 8.30086C47.2611 8.30086 47.3171 8.29976 47.3731 8.29976H47.5378C47.5619 8.29976 47.585 8.29976 47.6092 8.30086C47.6114 8.29976 47.6146 8.29976 47.6157 8.30086H47.6168C47.6915 8.29976 47.7629 8.30086 47.8375 8.30086H47.8386C47.9264 8.30196 48.0154 8.30306 48.1021 8.30525H48.1032C48.1515 8.30635 48.1976 8.30635 48.2437 8.30745C48.2503 8.30635 48.2558 8.30745 48.2602 8.30745H48.2756C48.4523 8.31184 48.6247 8.31623 48.8003 8.32282H48.8025C48.9837 8.3294 49.1681 8.33709 49.3493 8.34587C50.4384 8.39857 51.5165 8.49848 52.5792 8.64559C52.5814 8.64559 52.5858 8.64559 52.588 8.64669C52.5935 8.64779 52.5968 8.64779 52.6012 8.64888C53.396 8.75538 54.1854 8.88712 54.9638 9.04851C57.154 9.49315 59.2762 10.1299 61.3062 10.9401H61.3084C61.5455 11.0346 61.7805 11.1323 62.0132 11.2322C64.8172 12.4168 67.4422 13.9351 69.8344 15.7356C69.9355 15.8125 70.0343 15.886 70.1342 15.9673H70.1386C72.4199 17.7195 74.485 19.7297 76.2855 21.9562C76.3514 22.033 76.414 22.1121 76.4733 22.19C76.8081 22.6072 77.132 23.031 77.4471 23.4647C77.6776 23.783 77.9038 24.1058 78.1245 24.4319C78.7755 25.3925 79.3804 26.3839 79.9371 27.4049C80.6737 28.7542 81.3237 30.1551 81.8803 31.601C81.911 31.6789 81.9396 31.7569 81.9692 31.8348C83.4371 35.7158 84.2374 39.9119 84.2374 44.2847C84.2374 50.2253 82.7597 55.8343 80.1457 60.778C79.51 61.9791 78.8084 63.1406 78.0432 64.2582C78.0125 64.3065 77.9796 64.3527 77.9477 64.3999V64.4054C77.9247 64.4361 77.9027 64.4635 77.8819 64.4932C77.8819 64.4932 77.8818 64.4943 77.8807 64.4943C76.246 66.8459 74.3324 68.9988 72.1894 70.9069H72.1883C72.1005 70.9871 72.0104 71.0661 71.9204 71.1441H71.9193C68.1898 74.4004 63.7841 76.9244 58.9326 78.4834H58.9315C58.9051 78.491 58.8799 78.4998 58.8535 78.5075C56.0957 79.3891 53.1951 79.9567 50.1957 80.1719H50.1935C49.9344 80.1916 49.6764 80.207 49.4162 80.2191H49.4151C49.402 80.2202 49.391 80.2213 49.3778 80.2213H49.3734C49.3372 80.2235 49.3032 80.2257 49.2669 80.2268H49.2658C49.1912 80.2312 49.1165 80.2345 49.043 80.2366H49.0419C49.032 80.2377 49.021 80.2377 49.0122 80.2377C49.0045 80.2377 48.998 80.2388 48.9914 80.2377C48.9562 80.2399 48.92 80.2421 48.8849 80.2432C48.8289 80.2454 48.7751 80.2476 48.7213 80.2487C48.6971 80.2498 48.673 80.2509 48.6488 80.2509C48.6346 80.252 48.6225 80.252 48.6104 80.252H48.6093C48.5138 80.2542 48.4172 80.2575 48.3206 80.2597C48.0538 80.2652 47.7848 80.2685 47.5158 80.2685H47.4928C47.3039 80.2685 47.1151 80.2674 46.9263 80.2641C42.818 80.2037 38.8745 79.4791 35.1955 78.1935C35.1791 78.188 35.1615 78.1836 35.145 78.177C30.8996 76.6916 27.012 74.4597 23.6503 71.6469C23.6492 71.6458 23.6481 71.6447 23.6459 71.6425C23.5537 71.5657 23.4637 71.4899 23.3726 71.4131H23.3715L23.3693 71.412C23.1124 71.1891 22.8599 70.9684 22.6084 70.739C22.5854 70.7181 22.5612 70.6973 22.5393 70.6753C20.652 68.9648 18.9459 67.0611 17.4583 64.996C17.4012 64.9181 17.3452 64.8401 17.2915 64.7622C17.2904 64.7622 17.2904 64.7611 17.2904 64.7611C17.1882 64.6172 17.0883 64.4745 16.9884 64.3296C16.9171 64.2242 16.8457 64.121 16.7776 64.0156C16.7579 63.9915 16.7502 63.975 16.7502 63.975C15.7391 62.4676 14.841 60.8823 14.067 59.2278C14.0286 59.1465 13.9902 59.0631 13.9528 58.9819C13.2941 57.5513 12.7309 56.0692 12.2665 54.5454C12.2467 54.7408 12.2259 54.9395 12.2072 55.1415C12.6387 56.4875 13.1492 57.7973 13.7354 59.0708C13.7695 59.1476 13.8046 59.2256 13.8408 59.3013C14.6236 60.9778 15.5338 62.573 16.5581 64.0969C16.7381 64.3636 16.9215 64.6183 17.1059 64.8796C17.107 64.8796 17.107 64.8807 17.107 64.8807V64.8906C17.107 64.8906 17.1081 64.8917 17.1081 64.8928V64.9071C17.1279 64.9367 17.1498 64.9675 17.1718 64.996C17.2497 65.108 17.3299 65.2178 17.41 65.3276C18.7736 67.1907 20.3128 68.9231 22.0024 70.4985C22.0024 70.4996 22.0035 70.4996 22.0035 70.4996C22.144 70.6303 22.2824 70.7587 22.424 70.8872C22.4503 70.9091 22.4624 70.9212 22.4624 70.9212C22.6633 71.1024 22.8664 71.2813 23.0717 71.4592C23.1431 71.5196 23.2134 71.581 23.2858 71.6414C26.7233 74.5618 30.714 76.8728 35.0813 78.3988C36.1573 78.7765 37.2551 79.1047 38.3739 79.3836C38.3892 79.3891 38.4046 79.3924 38.4222 79.3968C41.326 80.117 44.3638 80.5001 47.495 80.5001C48.0977 80.5001 48.6982 80.4859 49.2944 80.4562C49.3372 80.4551 49.3789 80.454 49.4206 80.4507H49.4228C51.7953 80.3311 54.1096 79.9907 56.3449 79.4517C56.3504 79.4506 56.3548 79.4495 56.3603 79.4473C57.2616 79.2299 58.1509 78.9796 59.0226 78.6996C59.0446 78.6919 59.0556 78.6876 59.0556 78.6876C68.225 75.7255 75.82 69.3403 80.2532 61.0821C80.2532 61.0821 80.2554 61.0777 80.2609 61.0689C80.2631 61.0634 80.2675 61.059 80.2708 61.0503C80.3334 60.9339 80.3938 60.8153 80.4564 60.6989C80.4564 60.6989 80.4575 60.6978 80.4575 60.6967C83.0287 55.7651 84.4811 50.1846 84.4811 44.2792C84.4811 39.8405 83.661 35.6356 82.1613 31.702Z" fill="white"/>
<path d="M69.8542 27.2305C69.9267 27.2008 70.0057 27.1778 70.0837 27.1558C67.4236 22.7523 63.985 19.1249 60.922 16.4285C54.8354 11.0698 48.9014 8.10337 48.8421 8.07373L48.7389 8.28452C48.7982 8.31416 54.7091 11.2685 60.7727 16.6097C63.8083 19.283 67.2139 22.8752 69.8553 27.2316L69.8542 27.2305Z" fill="white"/>
<path d="M74.4368 39.7502C74.136 36.5994 73.2774 33.6604 72.0753 30.9541C72.0138 31.0057 71.949 31.0529 71.8809 31.0968C73.0622 33.7701 73.9076 36.6685 74.204 39.7733C75.4534 52.8918 66.957 66.4834 48.9497 80.1717L49.0913 80.3583C67.1689 66.6173 75.6971 52.9543 74.4368 39.7502Z" fill="white"/>
<path d="M49.3076 80.4914L49.2285 80.2697C65.2201 74.5827 72.7603 64.6491 76.2702 57.3165C80.0721 49.3756 80.0941 42.6972 80.0941 42.6313H80.3301C80.3301 42.6972 80.3081 49.4283 76.4832 57.4175C72.9546 64.7886 65.376 74.7759 49.3087 80.4903L49.3076 80.4914Z" fill="white"/>
<path d="M22.9324 40.0868C22.9807 39.4687 23.0542 38.8154 23.1629 38.1304C23.1618 38.8111 23.1618 39.4917 23.1618 40.1724V40.1812C23.0608 41.5074 23.063 42.8369 23.1618 44.1687V46.2414C22.85 44.184 22.7732 42.131 22.9324 40.0868Z" fill="white"/>
<path d="M33.0931 19.8667C32.3378 20.6714 31.6373 21.4718 30.9874 22.2622C30.9654 22.2886 30.9446 22.316 30.9215 22.3424L30.7305 22.5795C30.4132 22.9725 30.1102 23.3645 29.8181 23.752C27.8156 26.4188 26.3829 28.9834 25.3696 31.3669C25.2774 31.5831 25.1895 31.7972 25.105 32.0102C25.0984 32.0278 25.0907 32.0453 25.083 32.0629C25.06 32.1255 25.0358 32.187 25.0117 32.2463C24.6516 33.1718 24.3529 34.0676 24.1103 34.9284C24.0335 34.9141 23.9566 34.8987 23.8776 34.8833C24.118 34.0369 24.4089 33.1564 24.7603 32.2474C24.7866 32.176 24.8151 32.1046 24.8448 32.0322C24.847 32.0256 24.8503 32.019 24.8536 32.0113C24.9425 31.7819 25.038 31.5513 25.1368 31.3186C26.1326 28.9647 27.5357 26.4374 29.4844 23.8091C29.7852 23.4029 30.0992 22.9945 30.4286 22.5828C30.4922 22.5038 30.5559 22.4247 30.6196 22.3446C30.7118 22.2326 30.8029 22.1195 30.8974 22.0075C31.5407 21.2269 32.2346 20.4398 32.9811 19.646C33.0151 19.7207 33.0525 19.7953 33.0953 19.8667H33.0931Z" fill="white"/>
<path d="M49.4855 80.2609L49.3471 80.4509C49.323 80.4333 49.2999 80.4168 49.2758 80.3982C49.2362 80.3685 49.1956 80.34 49.1561 80.3103C49.121 80.2851 49.0836 80.2576 49.0474 80.2313H49.0463C49.0397 80.2258 49.0331 80.2214 49.0276 80.217C49.0046 80.2005 48.9815 80.1841 48.9585 80.1665C48.9354 80.15 48.9113 80.1325 48.8871 80.1138C48.8718 80.1028 48.8553 80.0908 48.8388 80.0787C48.7751 80.0326 48.7126 79.9854 48.6489 79.9404C48.4447 79.7888 48.2427 79.6384 48.0418 79.488C47.8189 79.3223 47.5982 79.1554 47.3786 78.9885C45.9865 77.9367 44.6526 76.8817 43.378 75.8277C41.628 74.3807 39.9889 72.9326 38.4606 71.4856C38.3794 71.4077 38.2982 71.3298 38.2169 71.254C35.9882 69.1241 34.0011 66.9965 32.2544 64.8699C32.1907 64.7919 32.127 64.714 32.0644 64.636C30.2771 62.4392 28.75 60.2446 27.483 58.0521C26.899 57.0421 26.3698 56.0331 25.8977 55.0264C25.9855 55.0341 26.0756 55.0428 26.1678 55.0527C26.6465 56.0628 27.1811 57.0739 27.7729 58.085H27.774C29.0453 60.2643 30.5757 62.4469 32.3642 64.6327C32.4278 64.7118 32.4915 64.7897 32.5563 64.8666C34.3129 66.9921 36.3121 69.1208 38.554 71.2485C38.6352 71.3265 38.7175 71.4022 38.7999 71.4802C40.338 72.9304 41.9903 74.3818 43.7546 75.8321C44.7635 76.661 45.8076 77.491 46.8901 78.3199C47.1075 78.4879 47.327 78.6547 47.5477 78.8216C47.9089 79.0939 48.2745 79.3684 48.6445 79.6406C48.7235 79.701 48.8026 79.7592 48.8827 79.8163C48.9124 79.8393 48.9409 79.8613 48.9717 79.8822C49.032 79.9272 49.0924 79.9711 49.1539 80.0161C49.155 80.0172 49.1572 80.0183 49.1605 80.0216C49.2231 80.0677 49.2878 80.1149 49.3515 80.1599C49.3702 80.1753 49.3899 80.1896 49.4097 80.2027C49.413 80.2049 49.4174 80.2082 49.4207 80.2115H49.4218C49.4437 80.228 49.4635 80.2434 49.4855 80.2587V80.2609Z" fill="white"/>
<path d="M73.666 25.1027C68.6608 17.5713 60.1611 8.50177 48.0944 8.06152H48.0637L48.0373 8.0747C47.9802 8.10324 42.5051 10.9434 36.7314 16.0167C36.8105 16.0496 36.8819 16.0914 36.9532 16.1342C42.47 11.3002 47.6959 8.51934 48.1175 8.29866C60.0667 8.74989 68.4983 17.7524 73.4684 25.23C78.8677 33.351 81.4631 41.4763 81.4883 41.5576L81.7123 41.4873C81.686 41.4061 79.0829 33.2544 73.6671 25.1049L73.666 25.1027Z" fill="white"/>
<path d="M47.528 8.29208C47.528 8.29208 47.5203 8.29318 47.5093 8.29647C47.5016 8.29867 47.4895 8.30306 47.4731 8.30964H47.472C47.4478 8.31623 47.4171 8.32502 47.3787 8.33819C47.3051 8.36124 47.2052 8.39308 47.0789 8.43261C45.8866 8.81906 42.4448 10.0179 38.3959 12.1763C37.679 12.5573 36.9445 12.9712 36.199 13.4125C35.3888 13.8934 34.5654 14.4105 33.7442 14.9649C33.1975 15.3338 32.6397 15.728 32.0776 16.1462H32.0732C31.9722 16.2253 31.8668 16.3043 31.7636 16.3856H31.7592C31.4881 16.5909 31.2158 16.8017 30.9457 17.018C29.0464 18.5308 27.1427 20.316 25.4432 22.3909C25.3784 22.4689 25.3147 22.5479 25.2511 22.627C24.7746 23.2209 24.3135 23.8368 23.8743 24.4769C22.9631 25.8097 22.1441 27.2446 21.4612 28.7838C21.1889 29.3986 20.9386 30.0299 20.7147 30.6788C20.6861 30.7589 20.6587 30.8391 20.6312 30.9203C20.5906 31.0411 20.5511 31.1596 20.5138 31.2815C20.4731 31.4045 20.4358 31.5274 20.3985 31.6526C20.3579 31.7832 20.3194 31.9128 20.2821 32.0456C20.2612 32.1247 20.2393 32.2026 20.2173 32.2817C20.1328 32.5913 20.0537 32.9052 19.9824 33.2214H19.9813C19.9066 33.2203 19.8287 33.217 19.7496 33.2148C19.821 32.9085 19.8978 32.5978 19.9813 32.2838C20.0032 32.2059 20.0252 32.1269 20.0472 32.0478C20.0845 31.9128 20.124 31.7766 20.1668 31.6405C20.2623 31.3199 20.3666 30.9993 20.4775 30.6733C20.7092 29.9981 20.9792 29.3119 21.2888 28.617C21.8872 27.2633 22.6425 25.8811 23.5801 24.4846C23.9962 23.8676 24.4474 23.2484 24.9382 22.6292H24.9393C25.0018 22.549 25.0622 22.4711 25.127 22.392C26.6508 20.5004 28.5436 18.6066 30.882 16.7611C31.039 16.6381 31.1971 16.5129 31.3607 16.3878H31.3618C31.465 16.3087 31.5704 16.2286 31.6769 16.1495C32.2928 15.6851 32.9395 15.224 33.6168 14.7662C34.4918 14.1756 35.3679 13.6266 36.2287 13.1205C36.9664 12.6847 37.6932 12.2806 38.4003 11.9063C42.1231 9.9323 45.3168 8.77075 46.7111 8.30416C46.9252 8.23279 47.0965 8.1779 47.2206 8.13838C47.371 8.09117 47.4522 8.06811 47.4599 8.06592L47.4797 8.12959L47.4939 8.1779L47.5269 8.29208H47.528Z" fill="white"/>
<path d="M19.6541 54.3027C19.8901 55.2183 20.2041 56.1976 20.6158 57.2296C20.7091 57.4646 20.809 57.7006 20.9122 57.94C20.9902 58.1189 21.0703 58.3001 21.1548 58.4823C22.1857 60.7077 23.5131 62.7783 25.0523 64.6941H25.0534C25.116 64.7742 25.1774 64.8511 25.2422 64.929C27.1668 67.2872 29.4152 69.4138 31.8185 71.3208H31.8196C31.9151 71.3999 32.0117 71.4756 32.1094 71.5525L32.1116 71.5547C34.2151 73.1993 36.4361 74.6781 38.6604 75.9977H38.6615C41.4808 77.6698 44.3078 79.085 46.9274 80.2597C47.1008 80.3376 47.2732 80.4145 47.4445 80.4891L47.54 80.274C47.5323 80.2696 47.5246 80.2674 47.5169 80.2641C44.2573 78.8248 41.3754 77.3393 38.8295 75.8331H38.8284C36.4273 74.4146 34.3271 72.9764 32.4838 71.5503L32.4816 71.5481C32.3817 71.4701 32.2829 71.3933 32.1862 71.3175H32.1851C29.4152 69.1349 27.2491 66.9754 25.5551 64.9257C25.4914 64.8467 25.4278 64.7698 25.3663 64.6919H25.3652C23.5131 62.4105 22.2439 60.2729 21.3766 58.4011C21.302 58.2386 21.2284 58.0794 21.1614 57.9202C21.0538 57.6765 20.9528 57.4349 20.8573 57.1967C20.4412 56.168 20.1272 55.1887 19.8901 54.2764L19.6541 54.3027Z" fill="white"/>
<path d="M16.7513 63.9727C16.7513 63.9727 17.0818 64.6095 18.6693 64.3525C18.6693 64.3525 19.3489 64.1758 20.0614 63.7476C20.2975 63.6049 20.4676 63.3754 20.5291 63.1065C20.6576 62.5466 21.0264 61.6199 22.0057 62.3478C22.0057 62.3478 23.0399 62.8825 23.3309 63.9507C23.3429 63.9968 23.3462 64.0451 23.3506 64.0935C23.3605 64.2274 23.4945 64.5787 24.5726 64.7291C24.5726 64.7291 26.5037 65.1287 26.4532 68.1676C26.4488 68.4169 26.2721 68.6299 26.0272 68.6727C25.0886 68.8363 22.8182 69.3874 22.4636 70.9211C22.4636 70.9211 19.047 68.0074 16.5581 64.0946L16.7513 63.9738V63.9727Z" fill="white"/>
<path d="M38.1248 60.6297C38.1248 60.6297 38.2609 62.0931 40.5115 64.1582C40.5115 64.1582 42.6249 65.7556 42.693 66.2211V68.2181C42.693 68.2181 42.8972 69.417 44.5341 69.4829H46.3753C46.3753 69.4829 47.1251 69.5499 48.3525 70.8805C48.3525 70.8805 50.3287 70.8146 49.3066 68.8165L48.9651 63.4907L50.5329 59.9632L38.1248 58.3647V60.6286V60.6297Z" fill="white"/>
<path d="M69.5239 55.1549V57.0191C69.2516 58.3508 66.7968 60.6805 66.7968 60.6805C65.8427 61.4786 65.6396 63.8753 65.6396 63.8753C65.5803 64.0619 65.5166 64.2222 65.4519 64.3573C65.4101 64.4462 65.3673 64.5241 65.3245 64.5933C64.8151 65.4057 64.2332 64.9468 63.9335 64.6054C63.8468 64.5066 63.7831 64.4176 63.7535 64.3715C63.7403 64.3518 63.7337 64.3419 63.7337 64.3419L63.7282 62.0111C63.7974 61.0121 63.1156 60.4126 63.1156 60.4126L62.8763 59.5716L62.0485 56.6656C62.1198 56.6425 62.1923 56.6173 62.2658 56.592C62.3899 56.5503 62.5162 56.5053 62.6479 56.4581C62.6172 56.1759 62.5875 55.9037 62.5568 55.6413C62.5381 55.4766 62.5206 55.313 62.5008 55.1538H69.5239V55.1549Z" fill="white"/>
<path d="M35.0836 78.4002L36.1057 76.548C36.1057 76.548 36.2583 76.2483 37.0773 76.548C37.0773 76.548 37.8953 76.9477 38.6627 75.9991L39.3785 75.2998C39.3785 75.2998 39.6859 74.4511 41.3733 75.7993L44.7987 75.8498C44.7987 75.8498 45.5397 74.2579 47.8947 75.5303C47.9572 75.5644 48.0045 75.6181 48.0473 75.6741C48.1 75.7444 48.2592 75.8004 48.7367 75.5007C48.7367 75.5007 49.0946 74.7014 50.4242 74.5521C50.4242 74.5521 52.0095 74.0526 51.2421 75.7005C51.2421 75.7005 50.8326 76.3987 51.9074 76.749L53.339 77.5482C53.339 77.5482 53.6464 77.748 54.3106 77.748L57.9402 77.6975C57.9402 77.6975 58.7493 78.3892 59.0556 78.6889C59.0556 78.6889 47.4939 82.9991 35.0825 78.4013L35.0836 78.4002Z" fill="white"/>
<path d="M70.1386 61.5805C69.7456 61.5827 69.4492 61.2117 69.5688 60.8373C69.6622 60.5441 69.9235 60.1588 70.5229 59.6757C72.0918 58.411 71.6822 58.411 72.9777 58.8765C72.9777 58.8765 74.3413 59.4562 73.3181 60.0644C73.3181 60.0644 71.6713 61.5696 70.1386 61.5794V61.5805Z" fill="white"/>
<path d="M51.5111 28.9211C51.5111 28.9211 50.8985 27.2732 53.8638 26.6749C56.8292 26.0755 56.0629 28.4227 56.0629 28.9211C56.0629 29.4196 55.705 31.567 53.4543 32.117C53.4543 32.117 52.6364 32.4662 52.329 31.4177C52.0227 30.3692 52.5859 30.5196 52.0227 29.8697C51.4606 29.2209 51.51 28.9211 51.51 28.9211H51.5111Z" fill="white"/>
<path d="M64.1926 15.7927C64.1541 15.381 64.0334 14.933 63.8643 14.4862C63.8094 14.3369 63.7501 14.1931 63.6864 14.0471V14.0449C63.0607 12.6023 62.0879 11.2826 62.0879 11.2826C62.0879 11.2826 62.066 11.2607 62.021 11.2277C61.9134 11.1487 61.6751 11.0038 61.3161 10.9357H61.3139C60.8825 10.8544 60.2765 10.8885 59.5178 11.2925C59.4388 11.3331 59.3586 11.3781 59.2752 11.4286C59.1489 11.5055 59.0183 11.5911 58.8855 11.6888C57.9874 12.3432 57.4055 12.88 57.0333 13.2763C56.9763 13.34 56.9236 13.3982 56.8764 13.4531C56.5305 13.8494 56.4317 14.0635 56.4317 14.0635C56.4317 14.0635 55.5446 13.7912 55.3404 13.0458C55.1351 12.2992 52.4102 11.8239 51.7954 11.8239C51.1806 11.8239 51.3189 10.3835 52.6133 10.9006C52.8472 10.9939 53.0986 11.0202 53.35 10.995H53.3511C53.4631 10.9829 53.5729 10.9609 53.6815 10.9302H53.6826C54.3974 10.7348 55.0286 10.1628 55.0978 9.59079C55.1077 9.50516 55.1066 9.42282 55.0901 9.33938C55.0715 9.23947 55.033 9.13957 54.9726 9.04405C54.9419 8.99685 54.9057 8.95073 54.8629 8.90682C54.8036 8.84314 54.6927 8.77947 54.5379 8.71908C53.1249 8.16685 49.6809 8.12404 49.6809 8.12404C49.671 8.12404 49.659 8.12294 49.6469 8.12294C49.4756 8.11525 49.2044 8.10428 48.8696 8.08561H48.8652C48.8564 8.08561 48.8465 8.08451 48.8377 8.08451C48.7686 8.08232 48.695 8.08012 48.6182 8.07902C48.549 8.07683 48.4798 8.07463 48.4052 8.07354H48.392C48.392 8.07354 48.3821 8.07354 48.3766 8.07244C48.2712 8.07134 48.1615 8.07024 48.0473 8.06805H48.0462C47.8639 8.06585 47.6685 8.06366 47.4632 8.06585H47.3776C46.9999 8.06695 46.6541 8.07354 46.3489 8.08122C46.305 8.08232 46.2621 8.08342 46.2204 8.08561C46.1787 8.08781 46.1392 8.08781 46.0997 8.09C46.0557 8.0911 46.0118 8.0922 45.969 8.0944C45.8658 8.09879 45.7692 8.10208 45.6803 8.10647C45.6364 8.10867 45.5935 8.11086 45.5529 8.11306C45.5123 8.11416 45.4739 8.11745 45.4376 8.11855C45.374 8.12074 45.3103 8.12514 45.2455 8.12843C45.1752 8.13282 45.1193 8.13611 45.0797 8.13831C45.0446 8.14051 45.0095 8.1427 44.9743 8.1449C44.8953 8.15039 44.8031 8.15697 44.6988 8.16466C44.6219 8.17015 44.5407 8.17674 44.4506 8.18442C44.4199 8.18662 44.3881 8.18991 44.3573 8.19211C44.2904 8.19759 44.2234 8.20199 44.1575 8.20857C44.0192 8.22175 43.8688 8.23602 43.7074 8.25139C43.6272 8.25908 43.5438 8.26786 43.4582 8.27774C43.3308 8.29201 43.198 8.30628 43.0585 8.32495C42.9466 8.33702 42.8313 8.3513 42.7127 8.36667C42.4481 8.4007 42.1671 8.43803 41.8707 8.48194C41.8037 8.49182 41.7356 8.5028 41.6686 8.51268C41.583 8.52586 41.4985 8.53903 41.4128 8.55331C41.3843 8.5577 41.3558 8.56099 41.3261 8.56648C39.6991 8.82777 37.8843 9.13079 35.6457 9.97066C35.6446 9.97066 35.6369 9.97285 35.6358 9.97505C32.1183 11.0279 28.6556 12.6165 25.8132 14.9484C25.6068 15.1164 25.3488 15.2646 25.1512 15.4392L25.4531 15.5094L27.5215 15.897L27.8223 16.1967L28.0572 16.4283H28.0583L28.75 17.1178L29.7985 16.4097H29.8281L30.152 16.1703L30.6592 15.8289L30.7382 16.1637L30.7953 16.3987L30.8832 16.7654L30.9457 17.0212L31.7494 20.3741C31.7494 20.3741 30.6866 21.1173 30.8941 22.0099C30.9128 22.0944 30.9435 22.1801 30.9875 22.2657C31.0006 22.2921 31.016 22.3173 31.0314 22.3448C31.0786 22.4227 31.1368 22.5018 31.2059 22.5786C31.2971 22.6807 31.4079 22.7839 31.5441 22.8827C33.1799 24.1046 33.5894 23.155 33.5894 23.155C33.5894 23.155 34.0659 25.3244 32.1567 24.3078C30.2486 23.2911 32.7726 23.2911 30.1794 23.6973C30.0499 23.7182 29.9291 23.738 29.816 23.7555C29.6942 23.7764 29.5811 23.7961 29.4801 23.8137C27.8069 24.1057 28.6248 24.1057 27.5874 24.1057C26.428 24.1057 26.2238 23.2922 26.2238 23.2922L24.8613 24.445L23.8722 24.4812L23.5779 24.49L21.111 24.5789L19.9517 26.0051L17.0182 24.1903L16.8194 24.0684C16.8194 24.0684 16.8129 24.0772 16.7997 24.097C16.792 24.1101 16.7799 24.1255 16.7656 24.1464C16.6954 24.2485 16.5625 24.4472 16.3803 24.7184C16.3616 24.7458 16.3441 24.7732 16.3243 24.8018C16.3232 24.804 16.3221 24.8062 16.3188 24.8084C15.4537 26.0018 13.7487 28.5324 12.7595 31.2002C12.6849 31.4011 12.6146 31.6031 12.5487 31.8051C12.3237 32.4946 12.1535 33.1873 12.0657 33.8592V33.8614C12.0569 33.9328 12.0492 34.0042 12.0415 34.0755L12.2446 34.0843L12.5333 34.0975C12.9407 33.9679 13.3084 33.8658 13.6828 33.7769C13.7696 33.7571 13.8574 33.7363 13.9463 33.7198C14.4436 33.6122 14.9717 33.5255 15.6304 33.4333C15.6853 33.7088 15.738 33.9767 15.7896 34.2369L16.1058 34.2512L16.2848 32.9458C16.3144 32.7251 16.399 32.5088 16.5054 32.3134C16.5505 32.2289 16.5999 32.1509 16.6493 32.0763C16.7832 31.8765 16.927 31.7096 17.0346 31.5932C17.1356 31.4856 17.2048 31.4231 17.2048 31.4231L18.1775 30.7545L18.1676 30.6842L17.9217 28.9891L19.6102 27.0107C19.6102 27.0107 20.393 27.7693 21.2867 28.6224C21.3438 28.6773 21.4009 28.7311 21.459 28.7882C22.3121 29.6006 23.2244 30.4624 23.6372 30.8181C23.6811 30.8566 23.7207 30.8895 23.7525 30.9158C24.1532 31.2375 24.6846 31.2474 25.1325 31.3242C25.2138 31.3374 25.2928 31.3539 25.3675 31.3726C25.5629 31.4274 25.732 31.5098 25.8483 31.6624C25.9175 31.7535 25.9537 31.8732 25.9636 32.0093C25.9702 32.0664 25.9702 32.1257 25.968 32.1883C25.9669 32.2069 25.9658 32.2245 25.9636 32.2443C25.9131 32.9184 25.4915 33.8021 25.4915 33.8021L25.4575 33.9152C25.5497 33.9317 25.6386 33.9504 25.7276 33.9657C25.8066 33.9811 25.8846 33.9965 25.9614 34.0096C27.864 34.3697 29.0772 34.5893 31.0577 34.9022L34.2657 35.0405L34.5017 35.0504L46.4071 35.5664C46.4071 35.5664 46.2951 35.2952 46.1677 34.8726C46.1381 34.7727 46.1073 34.664 46.0744 34.5487C46.0239 34.3577 45.9734 34.148 45.9295 33.9262C45.8142 33.3531 45.7417 32.7021 45.8098 32.0971C45.8175 32.0181 45.8285 31.9391 45.8427 31.8611C45.8482 31.8282 45.8548 31.7985 45.8614 31.7678C46.2029 30.1396 46.7485 30.1396 46.7485 30.1396C46.7485 30.1396 46.7485 28.6487 44.1564 25.6636C44.1564 25.6636 43.681 25.0532 44.7723 25.0532C45.8636 25.0532 45.7933 25.3924 45.9295 25.5956C45.9295 25.5956 46.3379 25.7317 46.7485 25.3244C46.7485 25.3244 47.0855 25.9974 47.7003 26.4804C47.775 26.5397 47.8562 26.5968 47.9397 26.6484C48.1878 26.8043 48.4733 26.9185 48.7927 26.9514C50.0893 27.0876 50.9072 25.3233 51.1114 23.0178H53.4982C53.4982 23.0178 53.7112 22.796 53.8451 22.381C53.8682 22.3085 53.889 22.2306 53.9055 22.146C54.0427 21.4928 53.9439 20.4916 52.8823 19.2191C52.8823 19.2191 51.7229 18.9479 53.5652 17.1837C53.5652 17.1837 53.7002 15.4205 55.201 17.7271L55.5424 19.15L56.7764 19.1335L57.0476 19.1313L60.5872 19.083C60.5872 19.083 61.5555 18.7624 62.4898 18.1926C62.6116 18.1191 62.672 18.0784 62.6951 18.0631C63.0508 17.8248 64.1717 17.0717 64.2013 16.0298C64.2024 16.0078 64.2024 15.987 64.2024 15.965C64.2014 15.9167 64.197 15.8772 64.1904 15.7949L64.1926 15.7927ZM35.447 25.5626C35.447 24.2638 35.447 24.9643 34.5281 24.0146C33.607 23.0661 34.5281 22.7169 34.5281 22.7169C35.7039 21.9155 37.0334 22.2668 37.0334 22.2668C36.7765 24.1628 37.2387 23.8642 37.3397 24.2627C37.4418 24.6635 38.005 25.2113 37.6471 25.9611C37.2892 26.7099 35.447 26.8603 35.447 25.5615V25.5626ZM33.8924 12.6473V11.5812H35.3932C35.3932 11.5812 36.2111 11.5812 35.3932 12.6473H33.8924ZM35.4975 16.9751C35.4975 16.9751 37.2003 16.9081 37.0642 17.3725C36.928 17.8391 36.3824 19.1708 35.4975 18.4396C34.6104 17.7063 35.4975 16.9751 35.4975 16.9751ZM40.6147 19.7703C40.6147 19.7703 40.82 18.5231 41.8926 17.9236C41.8926 17.9236 41.9947 17.2759 42.8631 19.072C43.7326 20.8703 43.8874 21.2194 43.3264 21.5686C42.761 21.9177 41.4842 22.0681 41.0242 21.5686C40.5631 21.069 40.6147 19.7703 40.6147 19.7703ZM38.3959 12.1752C38.3794 12.6242 38.3125 13.1358 38.2609 13.3532C38.1588 13.7781 36.9324 14.9759 36.4219 14.3775C36.2199 14.1415 36.176 13.7704 36.1991 13.4114C36.2056 13.3115 36.2177 13.2149 36.2298 13.1215C36.2704 12.8559 36.333 12.6176 36.3758 12.4738C36.4022 12.3827 36.445 12.297 36.5054 12.2246C37.2892 11.2892 38.0138 11.3803 38.2609 11.3803C38.3564 11.3803 38.3959 11.6054 38.4014 11.9062C38.4025 11.9918 38.4014 12.083 38.3959 12.1741V12.1752ZM33.6465 17.1255C35.0759 16.1934 34.8059 17.7238 34.8059 17.9577C34.8059 18.1915 33.9177 18.7899 33.9177 18.7899H32.2818C32.2818 18.7899 32.2127 18.0576 33.6465 17.1255ZM37.5066 18.8382C36.6195 17.3736 38.8361 15.7751 38.8361 15.7751C38.8361 15.7751 39.6991 15.1702 39.7551 15.7751L40.1657 20.1029C40.1657 20.1029 38.3926 20.3027 37.5055 18.8382H37.5066ZM27.37 14.8661C27.2404 14.7815 27.0988 14.5839 27.1504 14.4357C27.1768 14.3621 27.2459 14.3138 27.2668 14.2996C27.3239 14.2578 27.4073 14.2249 27.5281 14.2293C27.6796 14.2348 27.6763 14.2238 27.8948 14.2666C27.9551 14.2787 28.4053 14.3841 28.4184 14.5312C28.4371 14.7222 27.7367 15.1076 27.3689 14.8661H27.37ZM30.2519 14.2776C30.2519 14.2776 30.354 13.1797 31.8372 13.1797C33.3204 13.1797 31.1214 15.1263 30.2519 14.2776Z" fill="white"/>
<path d="M82.1614 31.6231C82.157 31.6132 82.1537 31.6022 82.1493 31.5934C82.0197 31.2652 81.8847 30.9347 81.742 30.6032C81.7046 30.5109 81.664 30.4176 81.6256 30.3276C81.5674 30.1959 81.5103 30.063 81.451 29.9313C81.3226 29.6414 81.1876 29.3483 81.0481 29.0552C81.0108 28.9761 80.9746 28.8982 80.935 28.8191C80.8758 28.6929 80.8132 28.5666 80.7506 28.4382C80.6836 28.3042 80.6156 28.1714 80.5475 28.0374C80.4871 27.92 80.4245 27.8014 80.362 27.6817C80.3609 27.6806 80.3609 27.6773 80.3576 27.6751C80.3147 27.5939 80.2719 27.5116 80.2291 27.4292H80.228C80.1929 27.4281 80.0897 27.4237 79.9437 27.4007C79.2981 27.2931 77.8478 26.8023 78.141 24.5429C78.141 24.5418 78.141 24.4979 78.1322 24.4276C78.1025 24.2037 77.9763 23.7085 77.4548 23.4604C77.266 23.3726 77.0244 23.3144 76.7203 23.3144C76.7203 23.3144 76.6457 22.592 75.371 23.3144C75.371 23.3144 72.6758 24.5429 74.698 25.4091C74.698 25.4091 76.7093 27.3469 75.5972 28.1988C75.5401 28.2427 75.4742 28.2845 75.3974 28.3218C75.1097 28.4656 74.6893 28.5611 74.0964 28.5831C74.0964 28.5831 73.1994 28.728 73.0501 26.058C73.0501 26.058 72.9755 24.8306 71.4011 23.6756V20.0669H68.6301C68.6301 20.0669 67.3555 20.4995 67.5816 20.9331C67.8056 21.3657 66.5332 21.0769 66.3092 20.8607C66.2466 20.8014 65.8294 20.7399 65.2915 20.7443H65.2904C65.1905 20.7443 65.0873 20.7465 64.9819 20.752H64.9808C63.929 20.808 62.6269 21.1154 62.5106 22.0716C62.4985 22.1485 62.4974 22.2242 62.504 22.3066C62.5204 22.558 62.6094 22.8434 62.7894 23.1717C62.7894 23.1717 64.5175 25.094 60.395 26.1008C60.3203 26.1195 60.2435 26.1381 60.1644 26.1568C59.9767 26.1974 59.778 26.2369 59.5683 26.2765C59.5683 26.2765 58.5352 29.2638 57.0454 31.7801C57.0004 31.8591 56.9531 31.9382 56.9037 32.0161C56.6139 32.4926 56.3054 32.9493 55.9837 33.3588C55.7817 33.619 55.5731 33.8616 55.3601 34.0779C55.3151 34.1262 55.269 34.1712 55.2229 34.2163L56.1539 35.144C57.1541 34.8805 58.5451 34.5259 60.0327 33.9769C60.3675 33.854 61.2458 33.7156 62.1801 33.596C62.257 33.5861 62.3349 33.5762 62.414 33.5663C63.5316 33.4302 64.6712 33.3237 65.0104 33.3105C65.0906 33.3061 65.1685 33.305 65.2465 33.305C65.7745 33.3116 66.2532 33.4137 66.6825 33.6234C67.6881 34.1185 68.3831 35.1681 68.7684 37.0916C69.1648 39.0666 69.0418 41.0692 68.4017 42.8938C68.1174 43.7041 65.8283 46.6815 65.3189 47.3369L70.906 54.6004C70.906 54.6004 71.1234 54.405 71.4933 54.1327C71.6086 54.0471 71.7382 53.9538 71.882 53.8572H71.8831C71.9918 53.7836 72.1082 53.7068 72.2322 53.6288C72.6044 53.395 73.0359 53.1567 73.5003 52.9569C74.1129 52.6923 74.7837 52.498 75.449 52.476C76.492 52.4431 77.3922 52.6265 78.0608 52.9503H78.0619C78.1355 52.9855 78.2046 53.0228 78.2716 53.0601C78.9193 53.4279 79.3069 53.9362 79.3431 54.4972C79.4178 55.6522 78.2958 56.6622 78.2958 56.6622C78.2958 56.6622 77.6195 57.3824 78.8183 58.466C79.6933 59.2565 80.0337 60.2764 80.1556 60.7705C80.1995 60.9527 80.2555 61.0801 80.2555 61.0801C80.2555 61.0801 80.2577 61.0757 80.2631 61.0669C80.2653 61.0614 80.2697 61.057 80.273 61.0482C80.3027 60.9966 80.3674 60.8813 80.4586 60.6969C80.4586 60.6969 80.4597 60.6958 80.4597 60.6947C81.8353 58.5418 88.293 47.1569 82.1625 31.6209L82.1614 31.6231ZM72.5704 39.7078C73.5606 39.1742 73.7297 40.5389 73.8329 40.7716C73.935 41.0055 74.4971 42.436 72.8009 42.0364C71.1058 41.6368 71.7865 41.0044 71.7865 41.0044C71.7865 41.0044 71.5834 40.2381 72.5704 39.7067V39.7078ZM72.5188 28.1846C73.1577 28.2351 73.2598 28.7851 73.2862 28.9355C73.3103 29.0848 73.0809 30.2068 71.8282 30.7569C70.5755 31.3069 69.9355 30.5571 69.9355 30.5571V28.1846C69.9355 28.1846 71.8787 28.1351 72.5188 28.1846Z" fill="white"/>
<path d="M90.8874 42.1458C90.7732 41.7066 90.5503 41.4047 90.177 41.2894V41.2697C90.6854 41.1193 91.0883 40.7482 91.0883 40.1883C91.0883 39.8589 90.9521 39.5702 90.7073 39.3824C90.4076 39.1387 89.9772 39.0322 89.313 39.0322C88.8826 39.0322 88.4314 39.0663 88.1163 39.1233V43.3139H88.741V41.4728H89.3284C89.8927 41.4893 90.1507 41.7121 90.2923 42.2973C90.4295 42.8287 90.5349 43.1943 90.614 43.3139H91.2595C91.1596 43.1503 91.0455 42.7386 90.8874 42.1458ZM89.3789 41.0556H88.741V39.5054C88.8409 39.4791 89.055 39.4549 89.3558 39.4549C90.0135 39.4615 90.4658 39.703 90.4658 40.2487C90.4658 40.7361 90.0431 41.0567 89.38 41.0567L89.3789 41.0556Z" fill="white"/>
<path d="M89.5051 37.1055C87.4202 37.1055 85.7262 38.8763 85.7262 41.0556C85.7262 43.2349 87.4202 45.0079 89.5051 45.0079C91.5899 45.0079 93.2839 43.2349 93.2839 41.0556C93.2839 38.8763 91.5888 37.1055 89.5051 37.1055ZM89.5051 44.3975C87.7254 44.3975 86.2784 42.8978 86.2784 41.0545C86.2784 39.2112 87.7254 37.7115 89.5051 37.7115C91.2847 37.7115 92.7284 39.2112 92.7284 41.0545C92.7284 42.8978 91.2814 44.3975 89.5051 44.3975Z" fill="white"/>
<path d="M71.5373 81.5958C71.7448 80.9558 71.6745 80.2498 71.3386 79.6109C71.1882 79.3254 71.0015 79.0773 70.7809 78.8731C69.986 78.131 68.8431 78.0102 67.7991 78.5591C66.4443 79.2738 65.9645 80.7516 66.6573 82.0723C66.8077 82.3578 66.9943 82.6059 67.215 82.8101C68.011 83.5533 69.1538 83.6719 70.1968 83.123C70.8533 82.7782 71.3287 82.2359 71.5373 81.5958ZM69.8894 82.5389C69.1725 82.9155 68.4018 82.8211 67.8265 82.2842C67.6508 82.1206 67.5015 81.9219 67.3819 81.6935C66.8571 80.6956 67.1557 79.646 68.1065 79.1443C68.8234 78.7677 69.5941 78.8621 70.1683 79.399C70.3439 79.5626 70.4943 79.7624 70.614 79.9907C71.1388 80.992 70.8413 82.0405 69.8894 82.54V82.5389Z" fill="white"/>
<path d="M15.4702 68.2163L10.2882 69.6238L10.8393 70.3473L11.8099 70.0728L11.845 70.064L11.8549 70.0618L11.8615 70.0706L11.8834 70.0992L13.36 72.0336L13.3809 72.0611L13.3886 72.0698L13.382 72.0797L13.3633 72.1105L12.8451 72.9734L13.3974 73.6958L16.1179 69.0672L15.4702 68.2163ZM15.2572 69.0705L15.188 69.1846L13.831 71.4232L13.7926 71.488L13.7794 71.5088L13.7652 71.4891L13.718 71.4287L12.5586 69.9125L12.5136 69.8532L12.4982 69.8335L12.5213 69.8258L12.5937 69.8049L15.1101 69.0847L15.2374 69.0474L15.2791 69.0342L15.2572 69.0716V69.0705Z" fill="white"/>
<path d="M19.3357 72.5602C18.8076 72.0299 18.1489 71.7225 17.477 71.6951C17.4419 71.694 17.4111 71.6929 17.3782 71.6929C16.7316 71.6929 16.1058 71.9597 15.6161 72.4449C14.5622 73.4901 14.5973 75.0556 15.6974 76.1689C16.1826 76.6574 16.7535 76.9067 17.3958 76.9067C17.5407 76.9067 17.6922 76.8935 17.847 76.8682L17.6186 76.1865C17.5242 76.2062 17.4243 76.215 17.3244 76.215C16.8864 76.215 16.4571 76.036 16.1475 75.7221C15.368 74.9371 15.379 73.7942 16.1705 73.0081C16.5526 72.6294 17.0368 72.4208 17.533 72.4208C18.0325 72.4219 18.5101 72.6305 18.8834 73.0081C19.2654 73.3946 19.4378 73.96 19.3346 74.4848L20.0142 74.7208C20.1668 73.8985 19.9373 73.1728 19.3346 72.5613L19.3357 72.5602Z" fill="white"/>
<path d="M23.2584 75.9419C22.7325 75.5357 22.1375 75.3228 21.5358 75.3228C20.7563 75.3228 20.0537 75.6796 19.5564 76.3262C19.1128 76.9015 18.9306 77.591 19.0426 78.2683C19.1546 78.9336 19.5421 79.5496 20.1328 80.0041C20.5862 80.3532 21.0791 80.5289 21.5951 80.5289C21.8432 80.5289 22.099 80.4882 22.3581 80.4081L22.0398 79.7636C21.8817 79.8185 21.7115 79.8449 21.538 79.8449C21.1713 79.8449 20.809 79.723 20.5203 79.5013C19.6442 78.8261 19.5015 77.6931 20.1822 76.8082C20.5104 76.3822 20.9638 76.111 21.4568 76.0451C21.5358 76.0353 21.6149 76.0298 21.6939 76.0298C22.11 76.0298 22.5173 76.1736 22.8708 76.447C23.2957 76.7741 23.5471 77.322 23.5153 77.8479L24.2212 77.9895C24.2629 77.1551 23.9391 76.4667 23.2584 75.943V75.9419Z" fill="white"/>
<path d="M28.1988 79.7052C28.0792 79.3133 27.7915 78.9762 27.3689 78.7303L25.4179 77.5918L22.9115 81.8867L23.5955 82.2863L24.5232 80.6966L24.5506 80.6516L24.5583 80.6373L24.5737 80.6461L24.6176 80.6724L25.4135 81.139L25.4377 81.1544L25.4454 81.1599V81.1961L25.4981 83.4006L26.2831 83.8584L26.1821 81.5979L26.1777 81.5178V81.4903L26.2007 81.5002L26.2754 81.5299C26.4477 81.5968 26.6355 81.6331 26.8188 81.6331C27.3238 81.6331 27.7542 81.3718 28.032 80.8942C28.2592 80.5066 28.3163 80.0949 28.1956 79.7041L28.1988 79.7052ZM27.3304 80.4847C27.1712 80.757 26.9045 80.914 26.5981 80.914C26.4137 80.914 26.2227 80.858 26.0437 80.7537L24.9459 80.1125L24.9008 80.0851L24.8866 80.0774L24.8954 80.062L24.9217 80.0181L25.7407 78.6161L25.7682 78.5711L25.7758 78.5568L25.7912 78.5656L25.8351 78.592L26.933 79.2331C27.4281 79.5219 27.5928 80.0368 27.3304 80.4869V80.4847Z" fill="white"/>
<path d="M22.8928 81.8857L22.8884 81.8934L23.5526 82.281L22.8928 81.8857Z" fill="white"/>
<path d="M30.0454 80.8644L30.052 80.849L30.0674 80.8556L32.5277 81.9381L32.7802 81.365L29.6019 79.9663L27.6147 84.4961L30.792 85.8948L31.0445 85.3217L28.5842 84.2392L28.5688 84.2326L28.5754 84.2173L29.1968 82.7988L29.2034 82.7834L29.2187 82.79L31.6286 83.8506L31.88 83.2775L29.4701 82.218L29.4548 82.2115L29.4614 82.1961L30.0454 80.8633V80.8644Z" fill="white"/>
<path d="M37.1157 83.4543C36.7776 82.8747 36.1979 82.4498 35.4393 82.2214L33.6179 81.6758L32.1852 86.4416L34.0087 86.9884C34.3326 87.0839 34.6554 87.1333 34.9639 87.1333C36.1057 87.1333 36.9829 86.4801 37.3144 85.3844C37.5208 84.6938 37.4517 84.0263 37.1146 83.4532L37.1157 83.4543ZM36.5317 85.1505C36.2901 85.9597 35.6391 86.4614 34.8321 86.4614C34.6257 86.4614 34.4139 86.4285 34.1987 86.3626L33.2007 86.064L33.1502 86.0508L33.1348 86.0453L33.1403 86.0288L33.1557 85.9783L34.1723 82.5925L34.1866 82.5431L34.191 82.5277L34.2075 82.5332L34.2569 82.5486L35.2537 82.8472C35.8005 83.0108 36.21 83.3204 36.4361 83.7398C36.6557 84.1471 36.6886 84.6345 36.5338 85.1505H36.5317Z" fill="white"/>
<path d="M38.9284 83.145L37.9458 87.9965L38.6978 88.148L39.6793 83.2965L38.9284 83.145Z" fill="white"/>
<path d="M40.4511 83.4875L40.3743 84.11L41.953 84.3044L41.9684 84.3066V84.323L41.4458 88.5948L42.2077 88.6882L42.7259 84.4142L42.7281 84.3988H42.7446L44.3222 84.5942L44.3991 83.9717L40.4489 83.4854L40.4511 83.4875Z" fill="white"/>
<path d="M45.946 84.657V84.6406H45.9624L48.6478 84.6768L48.6555 84.0521L45.1851 84.0049L45.1182 88.953L48.5885 89.0002L48.5973 88.3733L45.9097 88.3382H45.8933V88.3217L45.9141 86.7737V86.7572H45.9306L48.5622 86.7913L48.571 86.1666L45.9394 86.1315H45.9229V86.115L45.9449 84.6592L45.946 84.657Z" fill="white"/>
<path d="M54.393 86.0137C54.2525 84.6699 53.2435 83.7993 51.8218 83.7993C51.6933 83.7993 51.5682 83.8059 51.4441 83.8202L49.5547 84.02L50.074 88.9648L51.9634 88.7639C52.7484 88.6805 53.3983 88.3719 53.8386 87.868C54.2766 87.3685 54.4688 86.7273 54.3919 86.0126L54.393 86.0137ZM53.2084 87.453C52.9054 87.8285 52.4498 88.058 51.8953 88.1183L50.8579 88.2281L50.8063 88.2336H50.7898L50.7887 88.2182L50.7832 88.1666L50.4176 84.6535L50.4121 84.6019V84.5854L50.4275 84.5843L50.4791 84.5788L51.5133 84.469C51.6066 84.4602 51.6955 84.4547 51.779 84.4547C52.7693 84.4547 53.4763 85.1003 53.5806 86.1005C53.6333 86.6099 53.5015 87.0907 53.2073 87.4541L53.2084 87.453Z" fill="white"/>
<path d="M61.0504 83.3918C60.8616 82.7056 60.3039 82.2808 59.5947 82.2808C59.4157 82.2808 59.228 82.3082 59.0369 82.362L56.8566 82.9647L58.1938 87.7558L58.959 87.5429L58.4628 85.7731L58.4496 85.7215L58.4452 85.7061L58.4606 85.7017L58.51 85.6875L59.8592 85.312C60.3478 85.1769 60.7178 84.9102 60.9275 84.538C61.1196 84.1987 61.1635 83.7903 61.0493 83.3907L61.0504 83.3918ZM60.1952 84.2591C60.0722 84.4787 59.8461 84.6423 59.5628 84.7224L58.3376 85.0617L58.2871 85.0748L58.2717 85.0792L58.2673 85.0639L58.2531 85.0145L57.8139 83.45L57.8007 83.3984L57.7963 83.383L57.8117 83.3786L57.8611 83.3644L59.0885 83.0218C59.195 82.9933 59.3037 82.9779 59.4113 82.9779C59.8285 82.9779 60.1557 83.2205 60.2655 83.6092C60.3291 83.8408 60.3039 84.067 60.1941 84.2602L60.1952 84.2591Z" fill="white"/>
<path d="M64.9567 83.5107L64.8755 83.4536L64.8535 83.4383L64.8755 83.4251L64.9611 83.3735C65.4354 83.0869 65.868 82.4535 65.5265 81.6081C65.2817 81.012 64.7854 80.6694 64.1652 80.6694C63.9236 80.6694 63.6722 80.721 63.4208 80.8242L61.3392 81.6751L63.2045 86.2543L63.917 85.9656L63.2276 84.2748L63.2034 84.2156L63.1968 84.2002L63.2122 84.1936L63.2715 84.1694L64.1256 83.8203L64.1597 83.8061L64.1684 83.8017L64.1761 83.8082L64.2058 83.8302L65.9777 85.1235L66.7902 84.793L64.9556 83.5107H64.9567ZM64.2135 83.1078L63.0354 83.5876L62.9762 83.6117L62.9608 83.6183L62.9542 83.6029L62.93 83.5437L62.3185 82.0396L62.2944 81.9803L62.2878 81.9649L62.3032 81.9583L62.3624 81.9342L63.5394 81.4544C63.6854 81.394 63.8347 81.3622 63.9829 81.3622C64.3507 81.3622 64.6548 81.5653 64.7931 81.9078C64.8886 82.1439 64.8843 82.3931 64.78 82.6094C64.6746 82.8257 64.4759 83.0035 64.2146 83.1089L64.2135 83.1078Z" fill="white"/>
<path d="M75.9211 76.0417C75.4402 75.417 74.7684 75.0723 74.0317 75.0723C73.4344 75.0723 72.8273 75.2973 72.2762 75.7233L70.7765 76.8761L73.7945 80.7999L75.292 79.646C76.5491 78.6766 76.8082 77.1945 75.9222 76.0428L75.9211 76.0417ZM74.9111 79.1476L74.0855 79.7854L74.0339 79.8239L74.0207 79.8337L74.0108 79.8206L73.9702 79.769L71.8162 76.9694L71.7778 76.9189L71.7679 76.9057L71.781 76.8958L71.8315 76.8552L72.6571 76.2173C73.0425 75.922 73.4608 75.765 73.8681 75.765C74.4115 75.765 74.9199 76.0351 75.2953 76.5258C75.9573 77.3855 75.8004 78.4636 74.9133 79.1465L74.9111 79.1476Z" fill="white"/>
<path d="M80.2665 72.4813L78.1235 70.3701L77.5789 70.9223L79.7044 73.0182C80.014 73.3223 80.1798 73.6703 80.1831 74.0216C80.1853 74.373 80.0239 74.7243 79.7121 75.0361C79.397 75.3566 79.0424 75.5246 78.6845 75.5246C78.3266 75.5246 77.9939 75.3654 77.6876 75.0635L75.561 72.9688L75.0154 73.521L77.165 75.6377C77.5965 76.0626 78.0631 76.2778 78.5538 76.2778C79.094 76.2778 79.6528 76.0033 80.1666 75.4818C80.6826 74.9592 80.9417 74.4213 80.9373 73.8833C80.9329 73.3948 80.7013 72.9095 80.2676 72.4813H80.2665Z" fill="white"/>
<path d="M79.6759 75.9165C79.7429 75.8715 79.8109 75.821 79.8779 75.7661C79.8109 75.821 79.7429 75.8693 79.6759 75.9165Z" fill="white"/>
<path d="M84.7008 68.3861L84.0618 68.711C84.2364 69.2062 84.1409 69.8023 83.817 70.2338C83.4986 70.6587 83.0518 70.9298 82.5621 70.999C82.4809 71.0111 82.3964 71.0155 82.3129 71.0155C81.8968 71.0155 81.4873 70.8727 81.1283 70.6038C80.6969 70.281 80.4202 69.832 80.3488 69.3401C80.2786 68.8494 80.4147 68.3443 80.7342 67.9206C81.0383 67.5122 81.5433 67.2596 82.0494 67.2596C82.0758 67.2596 82.1021 67.2596 82.1274 67.2607L82.2613 66.5548C82.2262 66.5537 82.1889 66.5537 82.1537 66.5537C81.3666 66.5537 80.7188 66.8853 80.2281 67.5418C79.7735 68.1456 79.566 68.8494 79.644 69.5235C79.7219 70.1975 80.0809 70.8069 80.6551 71.2383C81.114 71.582 81.6399 71.7631 82.179 71.7631C82.9947 71.7631 83.7764 71.3448 84.3242 70.6147C84.8336 69.9374 84.961 69.1875 84.7019 68.3861H84.7008Z" fill="white"/>
<path d="M83.435 63.8949L83.4196 63.8872L83.4284 63.873L84.2177 62.4962L83.6754 62.1855L81.697 65.6307L82.2394 65.9436L83.0298 64.5668L83.0375 64.5515L83.0518 64.5602L86.7846 66.7044L87.1666 66.0391L83.4339 63.8949H83.435Z" fill="white"/>
<path d="M84.3176 60.7329L83.9905 61.429L88.4742 63.5226L88.7992 62.8276L84.3165 60.7329H84.3176Z" fill="white"/>
<path d="M90.3252 57.1307C90.0397 56.5214 89.5072 56.0537 88.8255 55.8154C88.5213 55.7089 88.215 55.6562 87.9142 55.6562C86.8262 55.6562 85.9095 56.3468 85.5198 57.4601C85.0169 58.907 85.6746 60.3145 87.082 60.8086C87.3861 60.9151 87.6925 60.9678 87.9933 60.9678C89.0824 60.9678 89.9991 60.2761 90.3877 59.1618C90.6326 58.4613 90.6106 57.7411 90.3252 57.1307ZM89.7641 58.9444C89.4974 59.7096 88.8683 60.1652 88.0811 60.1652C87.8418 60.1652 87.5958 60.1224 87.3521 60.0368C86.2883 59.6646 85.7898 58.6941 86.1423 57.6785C86.409 56.9133 87.0381 56.4577 87.8231 56.4577C88.0624 56.4577 88.3095 56.5005 88.5532 56.5861C89.6203 56.9594 90.1177 57.9288 89.763 58.9444H89.7641Z" fill="white"/>
<path d="M92.1993 51.535L92.342 50.772L87.4762 49.8662L87.3346 50.6193L90.9312 51.2891L90.9806 51.2978L90.9367 51.3209L86.8142 53.4025L86.6594 54.2204L91.5285 55.1261L91.6701 54.3719L87.9725 53.6835L87.9231 53.6747L87.967 53.6517L92.1993 51.535Z" fill="white"/>
<path d="M9.83587 21.6299L13.5071 22.775L13.9781 22.0339L10.5649 18.1519L10.0906 18.8973L12.8298 21.8187L12.9637 21.9604L13.0043 22.0032L12.9472 21.9845L12.7606 21.9274L8.91366 20.745L8.57881 21.2742L11.2818 24.2538L11.4113 24.3976L11.4497 24.4405L11.3937 24.4218L11.2093 24.3625L7.3953 23.1307L6.92212 23.874L11.8933 25.3089L12.3643 24.5689L9.7667 21.7397L9.63606 21.5981L9.59763 21.5553L9.65362 21.5739L9.83806 21.631L9.83587 21.6299Z" fill="white"/>
<path d="M16.512 15.1527C16.0103 14.7081 15.4185 14.4731 14.8026 14.4731C14.0802 14.4731 13.394 14.8025 12.866 15.3987C11.8691 16.5295 11.9547 18.0654 13.0691 19.0513C13.5719 19.4948 14.1615 19.7287 14.7763 19.7287C15.4987 19.7287 16.1881 19.3993 16.7151 18.8021C17.712 17.6734 17.6263 16.1386 16.512 15.1516V15.1527ZM16.22 18.3662C15.8632 18.7691 15.4119 18.9832 14.9146 18.9832C14.4579 18.9832 13.9913 18.7922 13.6004 18.4474C13.1997 18.0917 12.9505 17.6427 12.9022 17.1805C12.8506 16.6985 13.0087 16.2341 13.36 15.8367C13.7179 15.4338 14.1702 15.2197 14.6676 15.2197C15.1254 15.2197 15.5909 15.4107 15.9806 15.7555C16.3879 16.1156 16.635 16.5723 16.6778 17.0422C16.7217 17.5131 16.5581 17.983 16.22 18.3651V18.3662Z" fill="white"/>
<path d="M18.4125 14.2229L19.0964 13.6279L19.1184 13.6081L19.125 13.6015L19.1338 13.6059L19.1612 13.6147L21.2483 14.2811L21.9257 13.6937L19.765 13.0526L19.6882 13.0306L19.6651 13.0229L19.6805 13.0043L19.731 12.9439C20.0867 12.5223 20.2854 11.7834 19.6827 11.0907C19.3786 10.7405 18.9801 10.5483 18.5629 10.5483H18.5618C18.1753 10.5483 17.7878 10.7075 17.4408 11.0094L15.76 12.4685L19.0196 16.2156L19.6091 15.7017L18.4048 14.3162L18.3707 14.2778L18.3609 14.2657L18.3729 14.2559L18.4114 14.2218L18.4125 14.2229ZM17.9821 13.7289L17.9437 13.7629L17.9316 13.7728L17.9217 13.7607L17.8877 13.7223L16.8217 12.5004L16.7865 12.4619L16.7766 12.4499L16.7887 12.44L16.8293 12.4059L17.7757 11.5858C17.9755 11.4124 18.2116 11.3179 18.4399 11.3179C18.6825 11.3179 18.9087 11.4244 19.0778 11.6188C19.2348 11.7988 19.3094 12.0118 19.2941 12.2358C19.2776 12.4817 19.148 12.7221 18.9285 12.9099L17.9832 13.73L17.9821 13.7289Z" fill="white"/>
<path d="M24.8338 10.8479L23.0026 12.1248L22.9598 12.1544L22.9466 12.1632L22.9378 12.15L22.9082 12.1072L20.4841 8.62695L19.8451 9.07269L22.6787 13.1414L25.2049 11.3793L24.8338 10.8468V10.8479Z" fill="white"/>
<path d="M28.7126 6.5926C28.2636 5.76151 27.4951 5.28613 26.6036 5.28613C26.1359 5.28613 25.6594 5.41458 25.1884 5.66819L23.5394 6.55637L25.8977 10.9281L27.5456 10.0366C28.2317 9.66774 28.706 9.13966 28.9168 8.51058C29.1254 7.88699 29.0551 7.22388 28.7137 6.5926H28.7126ZM28.1867 8.33712C28.0561 8.8092 27.7267 9.19785 27.2371 9.46353L26.3346 9.94989L26.2896 9.97404L26.2753 9.98063L26.2676 9.96745L26.2435 9.92244L24.5692 6.82096L24.5451 6.77594L24.5385 6.76167L24.5517 6.75399L24.5967 6.72983L25.5002 6.24348C25.8285 6.06672 26.1546 5.97779 26.4707 5.97779C27.1064 5.97779 27.6641 6.34119 28.0067 6.97356C28.2449 7.41381 28.3097 7.89907 28.1878 8.33821L28.1867 8.33712Z" fill="white"/>
<path d="M32.0403 3.95323L34.2514 7.09643L35.0737 6.79781L34.7422 1.64111L33.9122 1.94193L34.2986 5.925L34.3173 6.11933L34.3228 6.17752L34.2887 6.12921L34.1757 5.97002L31.8504 2.68958L31.2619 2.90257L31.5858 6.91199L31.6011 7.10522L31.6066 7.1634L31.5726 7.1151L31.4628 6.95591L29.1946 3.65461L28.3646 3.95543L31.4255 8.12184L32.2489 7.82322L31.9184 3.99714L31.902 3.80611L31.8965 3.74903L31.9305 3.79623L32.0425 3.95323H32.0403Z" fill="white"/>
<path d="M36.6634 1.26807L35.9048 1.45361L37.0828 6.27436L37.8425 6.08772L36.6634 1.26807Z" fill="white"/>
<path d="M43.0585 2.65223C42.8642 1.3809 41.8871 0.558594 40.5696 0.558594C40.4028 0.558594 40.2271 0.572866 40.0504 0.600313L38.1993 0.881368L38.9503 5.78666L40.8013 5.5045C41.5709 5.38813 42.1945 5.04998 42.6062 4.52959C43.0124 4.0103 43.1683 3.36146 43.0596 2.65223H43.0585ZM40.7036 4.86005L39.6892 5.01595L39.6387 5.02363L39.6233 5.02583L39.6211 5.01046L39.6123 4.95886L39.0798 1.47751L39.0721 1.42701L39.07 1.41164L39.0853 1.40944L39.1369 1.40066L40.1514 1.24367C40.2743 1.225 40.3973 1.21622 40.5158 1.21622C41.4468 1.21622 42.1176 1.81346 42.267 2.7752C42.4294 3.83684 41.7861 4.69537 40.7047 4.86115L40.7036 4.86005Z" fill="white"/>
<path d="M47.7464 4.30475L45.1543 4.38819H45.1027L45.0874 4.38929V4.32232L45.0402 2.90936V2.85776L45.0391 2.84239H45.106L47.6432 2.76115L47.6202 2.10901L45.083 2.19025H45.0314L45.016 2.19135V2.12438L44.9721 0.804739V0.753139L44.971 0.737769H45.038L47.63 0.652135L47.6081 0L44.1674 0.111983L44.3298 5.06887L47.7684 4.95689L47.7464 4.30585V4.30475Z" fill="white"/>
<path d="M54.6015 1.00576C54.3424 0.691772 53.9505 0.495253 53.4685 0.435968L51.2585 0.162598L50.6481 5.08545L51.4232 5.18097L51.6482 3.3607L51.6548 3.3091L51.657 3.29373H51.6713L51.7229 3.30141L52.6242 3.4112L52.6539 3.41559H52.6616L52.666 3.42437L52.678 3.45182L53.5772 5.44775L54.4676 5.55534L53.5003 3.52538L53.4663 3.45401L53.4564 3.43316H53.4806L53.5596 3.42876C54.1097 3.4079 54.7925 3.06207 54.9056 2.15304C54.9616 1.7106 54.8551 1.31426 54.6015 1.00466V1.00576ZM54.1086 2.05423C54.0504 2.51863 53.6925 2.81725 53.1973 2.81725C53.1556 2.81725 53.1084 2.81505 53.0469 2.80847L51.8052 2.65367L51.7536 2.64708L51.7383 2.64488V2.63061L51.7459 2.57901L51.9458 0.971729L51.9523 0.920129L51.9545 0.904758H51.9688L52.0204 0.912443L53.2632 1.06505C53.8231 1.13531 54.17 1.54152 54.1086 2.05423Z" fill="white"/>
<path d="M56.8247 3.08504L57.131 1.79944L57.1431 1.74894L57.1475 1.73466L57.1628 1.73686L57.2133 1.74894L59.734 2.34618L59.8867 1.71051L56.537 0.918945L55.392 5.74628L58.7416 6.53785L58.8931 5.90438L56.368 5.30823L56.3175 5.29616L56.3032 5.29177L56.3054 5.2764L56.3175 5.22589L56.6446 3.85026L56.6567 3.79976L56.6611 3.78549L56.6765 3.78768L56.727 3.79976L59.1961 4.38383L59.3476 3.74816L56.8752 3.16519L56.8247 3.15311L56.8104 3.14872L56.8126 3.13335L56.8247 3.08285V3.08504Z" fill="white"/>
<path d="M62.1253 3.11038C62.2691 3.11038 62.4217 3.13893 62.5798 3.19492C63.1255 3.38705 63.5635 3.74715 63.8149 4.21155L64.4165 3.83168C64.108 3.26518 63.5888 2.85019 62.8729 2.59768C62.5952 2.49997 62.3229 2.45166 62.0616 2.45166C61.3853 2.45166 60.8649 2.78212 60.6706 3.33435C60.3336 4.29499 61.1504 4.83184 61.8706 5.30612C62.4283 5.67062 62.9542 6.01535 62.7829 6.49951C62.6841 6.78605 62.4041 6.95732 62.0375 6.95732C61.8673 6.95732 61.6796 6.92219 61.4786 6.85083C60.6959 6.57526 60.3116 6.00217 60.1502 5.67501L59.5541 6.07903C59.8571 6.70481 60.4346 7.18239 61.2228 7.45905C61.561 7.57652 61.8783 7.638 62.1637 7.638C62.8389 7.638 63.3494 7.29108 63.5635 6.68395C63.9159 5.6794 63.0673 5.12168 62.3174 4.62984C61.7729 4.27193 61.303 3.96233 61.449 3.54185C61.5445 3.26738 61.7915 3.11038 62.1242 3.11038H62.1253Z" fill="white"/>
<path d="M68.0373 4.8548L66.0337 3.88867L63.8807 8.3581L64.5834 8.69735L65.3793 7.04286L65.4013 6.99565L65.4079 6.98137L65.4222 6.98796L65.4694 7.00992L66.71 7.60826C66.9833 7.74 67.2545 7.80697 67.518 7.80697C68.0922 7.80697 68.5895 7.4842 68.8508 6.94185C69.1813 6.25458 69.0583 5.34225 68.0395 4.8526L68.0373 4.8548ZM68.124 6.59383C67.9736 6.90452 67.6936 7.08348 67.3566 7.08348C67.1996 7.08348 67.0393 7.04505 66.8812 6.9682L65.7526 6.42585L65.7054 6.40389L65.6911 6.39731L65.6977 6.38303L65.7197 6.33583L66.4234 4.87676L66.4454 4.82955L66.452 4.81527L66.4662 4.82186L66.5134 4.84382L67.6399 5.38727C67.9 5.51023 68.0889 5.70784 68.1701 5.94059C68.2437 6.15138 68.2283 6.37755 68.1251 6.59273L68.124 6.59383Z" fill="white"/>
<path d="M73.9219 9.06911C73.7792 8.41917 73.3631 7.84169 72.7516 7.44536C72.2905 7.14454 71.7789 6.98535 71.2761 6.98535C70.434 6.98535 69.6688 7.4223 69.1747 8.18532C68.7828 8.78806 68.6434 9.47642 68.7828 10.1231C68.9233 10.7752 69.3405 11.3527 69.9575 11.7523C70.4208 12.0542 70.9313 12.2134 71.4342 12.2134C72.2751 12.2134 73.0414 11.7765 73.5355 11.0134C73.9274 10.4107 74.0647 9.72015 73.9219 9.06911ZM72.8614 10.5787C72.4782 11.1671 71.9074 11.5042 71.2969 11.5042C70.9588 11.5042 70.6283 11.4021 70.3154 11.2001C69.8971 10.9278 69.626 10.5479 69.5316 10.1011C69.4295 9.62134 69.5414 9.09656 69.8488 8.62118C70.232 8.03162 70.8018 7.69128 71.41 7.69128C71.7482 7.69128 72.0797 7.79338 72.3948 7.99759C73.2819 8.57397 73.4729 9.63561 72.8614 10.5798V10.5787Z" fill="white"/>
<path d="M78.8414 12.2456L76.5688 14.8717L76.4678 14.9891L76.4382 15.0243L76.4404 14.9771L76.4503 14.8212L76.7489 10.4319L76.1132 9.88184L72.8635 13.6355L73.4564 14.146L75.7926 11.4463L75.8937 11.3288L75.9233 11.2937L75.9211 11.3409L75.9112 11.4968L75.5895 15.9981L76.1835 16.5086L79.4332 12.7561L78.8425 12.2445L78.8414 12.2456Z" fill="white"/>
<path d="M81.798 15.159C81.372 14.687 80.8637 14.4268 80.3653 14.4268C80.0436 14.4268 79.7494 14.5398 79.5134 14.7517C78.758 15.4335 79.2202 16.2953 79.6286 17.0562C79.9437 17.6446 80.2401 18.1979 79.8603 18.5416C79.7395 18.6503 79.588 18.7074 79.4211 18.7074C79.2213 18.7074 78.9062 18.6228 78.5461 18.2254C77.9917 17.6128 77.9247 16.9244 77.9379 16.5555L77.2232 16.628C77.1903 17.324 77.4691 18.019 78.0312 18.6382C78.511 19.1696 79.0281 19.4506 79.5243 19.4506C79.8625 19.4506 80.1853 19.32 80.4564 19.0729C81.2436 18.3626 80.766 17.4668 80.3433 16.6774C80.0348 16.101 79.7692 15.6037 80.0985 15.3051C80.2149 15.1986 80.3587 15.1426 80.5135 15.1426C80.7594 15.1426 81.0229 15.2842 81.2568 15.54C81.6443 15.9704 81.8584 16.4962 81.8573 17.0232L82.5665 16.976C82.5654 16.3305 82.3074 15.719 81.798 15.1557V15.159Z" fill="white"/>
<path d="M83.8565 17.7065L79.9207 20.7345L80.396 21.3537L84.3319 18.3257L83.8565 17.7065Z" fill="white"/>
<path d="M86.6275 21.6666L85.2771 19.562L81.1019 22.2452L82.4918 24.4091C82.7948 24.8845 83.2098 25.148 83.6567 25.148C83.8982 25.148 84.1452 25.07 84.3725 24.924C84.8665 24.6078 85.0806 23.9744 84.8588 23.4814L84.7392 23.2168L84.7029 23.1367L84.7655 23.2004L84.9686 23.4079C85.164 23.6088 85.4407 23.724 85.7262 23.724C85.9457 23.724 86.1587 23.6593 86.3596 23.5297C86.9777 23.1323 87.0853 22.3835 86.6275 21.6688V21.6666ZM84.3802 23.6966C84.3417 23.892 84.2221 24.0633 84.0442 24.1786C83.9037 24.2697 83.7588 24.3147 83.6128 24.3147C83.3515 24.3147 83.1044 24.1577 82.9211 23.8723L82.1098 22.6053L82.0823 22.5614L82.0746 22.5482L82.0867 22.5405L82.1295 22.512L83.3207 21.7468L83.3646 21.7193L83.3778 21.7116L83.3855 21.7237L83.414 21.7665L84.2254 23.0335C84.3681 23.2563 84.4208 23.4858 84.3813 23.6955L84.3802 23.6966ZM85.7953 22.9336C85.6713 23.0137 85.5351 23.0554 85.4012 23.0554C85.1509 23.0554 84.9203 22.9116 84.7513 22.6514L83.9608 21.4174L83.9333 21.3735L83.9256 21.3603L83.9377 21.3526L83.9805 21.3241L85.0916 20.6083L85.1366 20.5808L85.1498 20.5731L85.1575 20.5852L85.186 20.628L85.9776 21.8621C86.2367 22.2661 86.1642 22.6964 85.7953 22.9336Z" fill="white"/>
<path d="M84.6372 26.8748L84.6514 26.8671L84.6987 26.844L88.5006 24.9568L88.1548 24.2563L83.7073 26.4642L85.0752 29.2275L85.6593 28.9377L84.6679 26.9352L84.6383 26.8759L84.6372 26.8748Z" fill="white"/>
<path d="M90.0606 28.2604L85.4045 29.995L86.6056 33.2184L87.2182 32.9889L86.3136 30.5593L86.2949 30.5099L86.2894 30.4956L86.3037 30.4902L86.352 30.4737L87.6782 29.9796L87.7276 29.9632L87.7419 29.9577L87.7474 29.972L87.7639 30.0203L88.6509 32.3993L89.2625 32.1699L88.3787 29.7908L88.36 29.7414L88.3545 29.7271L88.3688 29.7216L88.4171 29.703L89.6577 29.243L89.7071 29.2265L89.7214 29.221L89.7269 29.2353L89.7455 29.2836L90.648 31.7143L91.2628 31.4859L90.0617 28.2593L90.0606 28.2604Z" fill="white"/>
<path d="M62.863 38.5453C62.4952 38.2247 61.9243 38.2368 61.169 38.5233C61.1427 38.5321 61.1174 38.542 61.0922 38.5519C60.6816 38.7078 60.4532 38.789 60.0305 38.9318C60.316 40.7883 60.4795 41.7709 60.8023 43.7602C61.2107 43.6175 61.4138 43.5406 61.8266 43.3792C62.6358 43.0576 63.1748 42.5591 63.4251 41.9509C63.4592 41.8697 63.4899 41.7862 63.5163 41.7006C63.6886 41.167 63.7172 40.5972 63.6041 40.0077C63.48 39.3468 63.2308 38.867 62.8641 38.5453H62.863Z" fill="white"/>
<path d="M33.2611 39.7541C32.9251 39.3644 32.3092 39.0965 31.4331 38.9581C30.5933 38.8264 30.1783 38.7583 29.3669 38.6299C29.401 40.235 29.4185 41.0276 29.4581 42.613C30.2474 42.7337 30.6504 42.7985 31.4661 42.9302C31.6867 42.9665 32.1204 42.9368 32.7495 42.8754C33.0657 42.8424 33.3314 42.6876 33.5268 42.389C33.7222 42.0926 33.8122 41.7292 33.7979 41.2977C33.7771 40.6609 33.5959 40.1449 33.2611 39.753V39.7541Z" fill="white"/>
<path d="M49.9433 48.7117V48.7018C49.3691 46.1778 49.0167 44.6474 48.4271 41.9214C47.9924 45.0042 47.708 46.5401 47.1854 49.5505C48.4183 49.6394 48.9695 49.6394 49.9608 49.6438C50.0234 49.6449 50.0882 49.6449 50.1541 49.6449C50.0816 49.3177 50.0113 49.0092 49.9444 48.7139V48.7117H49.9433Z" fill="white"/>
<path d="M73.2862 50.6568L73.1863 50.1671L69.5117 31.9216L69.4645 31.6867L69.3284 31.0137L69.2822 30.7798L68.7948 28.3623C68.7948 28.3623 67.6409 29.5392 64.9017 30.8117H64.8864C64.7151 30.8907 64.5372 30.9697 64.3539 31.0499C64.2254 31.1059 64.0937 31.1619 63.9598 31.2168C63.8873 31.2464 63.8137 31.2761 63.7391 31.3057C63.3823 31.4495 63.0156 31.5922 62.6171 31.7339H62.616L62.6072 31.735C62.4403 31.7932 62.269 31.8524 62.0923 31.9117C62.0286 31.9326 61.977 31.9534 61.9122 31.9743H61.9111L61.9013 31.9754C61.8914 31.9776 61.8804 31.982 61.8705 31.9842C60.5333 32.42 58.9776 32.8241 57.1859 33.1523C56.7973 33.2237 56.3965 33.2906 55.9848 33.3543C54.1854 33.6321 52.1697 33.8297 49.9202 33.9076C49.8422 33.912 49.7632 33.9142 49.6842 33.9153C49.1594 33.9318 48.6214 33.9417 48.0714 33.9439H48.0055C47.9495 33.9439 47.8935 33.9439 47.8375 33.945C47.2194 33.945 46.5849 33.9384 45.9349 33.9219C43.4834 33.8571 40.8024 33.6551 37.8711 33.283C37.4934 33.2347 37.0455 33.1479 36.5273 33.0337C36.4526 33.0184 36.3758 33.0008 36.2989 32.9832C35.8828 32.8899 35.425 32.7812 34.9266 32.6627C34.8519 32.6462 34.7751 32.6275 34.6971 32.6078C34.135 32.476 33.5224 32.3333 32.8615 32.1862H32.8417C32.5025 32.1115 32.1687 32.0347 31.8042 31.9589H31.7845C30.6998 31.7339 29.5185 31.5088 28.2054 31.3123H28.1834C28.0638 31.2936 27.9452 31.2772 27.8233 31.2607C27.5346 31.219 27.2393 31.1772 26.9385 31.1399C26.8594 31.13 26.7793 31.1191 26.7002 31.1092C26.6453 31.1026 26.5926 31.096 26.5377 31.0894C26.2106 31.0488 25.8779 31.0115 25.5398 30.9763C25.4585 30.9686 25.3762 30.9599 25.2949 30.9522C24.7581 30.8995 24.207 30.8512 23.6426 30.8106C23.1903 30.7776 22.7292 30.7513 22.2582 30.7293C22.1814 30.7249 22.1056 30.7216 22.0277 30.7172C21.5984 30.6986 21.1626 30.6843 20.719 30.6755C20.64 30.6744 20.5609 30.6733 20.4819 30.67C19.9659 30.6623 19.44 30.6601 18.9031 30.6645C18.6616 30.6667 18.4201 30.6711 18.1742 30.6766C17.1224 30.6986 16.0333 30.7502 14.908 30.8369C14.8213 30.8435 14.7345 30.8501 14.6489 30.8578C14.5742 30.8633 14.4974 30.8698 14.4216 30.8764C14.3832 30.8786 14.3426 30.8819 14.3042 30.8852C14.3042 30.8852 13.9452 30.928 13.3183 31.0653C13.2304 31.0839 13.1371 31.1037 13.0383 31.1278C12.9527 31.1476 12.8638 31.1696 12.7704 31.1915C10.1828 31.8316 4.76586 33.6936 0 38.7339L5.58597 64.0102C5.58597 64.0102 8.60401 61.1359 13.7431 59.0643C13.8156 59.0346 13.8881 59.0061 13.9605 58.9764C14.5204 58.7569 15.1034 58.5461 15.7105 58.3506C15.7852 58.3265 15.8609 58.3012 15.9378 58.2782C17.1257 57.9049 18.4003 57.5887 19.754 57.3604C20.046 57.311 20.3359 57.267 20.6224 57.2264C20.7026 57.2144 20.7827 57.2034 20.8639 57.1935C21.5139 57.1057 22.1506 57.0387 22.7753 56.9915C22.8599 56.9849 22.9422 56.9783 23.0245 56.9717C24.3683 56.8795 25.6507 56.8707 26.8583 56.919C26.9494 56.9234 27.0395 56.9267 27.1295 56.9322C27.898 56.9684 28.6358 57.0277 29.3395 57.1046C29.435 57.1133 29.5327 57.1254 29.6271 57.1375H29.6282C32.6683 57.4877 35.0407 58.13 36.4647 58.4879C36.5591 58.512 36.6491 58.534 36.7359 58.5548H36.737C36.9653 58.6108 37.1629 58.657 37.3298 58.6899C37.4813 58.7195 37.7525 58.7843 38.1313 58.8743C38.3322 58.9215 38.5627 58.9753 38.8218 59.0346C38.9096 59.0544 39.0008 59.0752 39.0941 59.0972H39.0952C39.3631 59.1565 39.6551 59.2213 39.9724 59.2904C41.9804 59.7219 44.9282 60.2741 48.3107 60.5738C48.3898 60.5804 48.4688 60.587 48.5479 60.5947C49.0759 60.6386 49.615 60.6759 50.1617 60.7078C50.176 60.7089 50.1914 60.7089 50.2056 60.71C50.2693 60.7144 50.333 60.7177 50.3978 60.7199C50.7908 60.7396 51.1893 60.7561 51.5901 60.7682C54.0636 60.8406 56.671 60.7385 59.2455 60.3433C59.3333 60.3301 59.4223 60.3158 59.5101 60.3016C59.9481 60.2313 60.384 60.1523 60.8177 60.0644C60.9088 60.0458 60.9999 60.0282 61.0899 60.0073C61.6916 59.88 62.2888 59.7351 62.8817 59.5693C63.5272 59.3892 64.1662 59.1861 64.7952 58.9567C66.4596 58.3517 68.0548 57.5701 69.5304 56.5732C70.132 56.1692 70.7128 55.7267 71.2694 55.2459C71.2935 55.225 71.3177 55.2041 71.3419 55.1833C71.4648 55.0768 71.5856 54.9692 71.7063 54.8583H71.7074C72.2685 54.3434 72.8031 53.789 73.307 53.1896C73.3729 53.1116 73.4377 53.0337 73.5025 52.9546C73.5694 52.8712 73.6375 52.7877 73.7034 52.7032L73.2917 50.6535L73.2862 50.6568ZM21.1077 49.3481L20.9638 50.4097C20.7926 51.6789 20.629 52.9469 20.4731 54.215C20.2656 54.2358 20.0724 54.2567 19.8912 54.2775C19.8111 54.2863 19.732 54.294 19.6552 54.3039C18.5584 54.4334 17.8206 54.5685 16.5713 54.8715C15.4899 49.6621 14.9124 47.0788 13.7717 41.865C13.4303 44.3561 13.1777 46.3279 12.9516 48.2382C12.9175 48.5335 12.8824 48.8277 12.8495 49.1219C12.6552 50.8149 12.4751 52.5144 12.2698 54.5432C12.25 54.7387 12.2292 54.9374 12.2105 55.1394C12.1699 55.5423 12.1293 55.9595 12.0865 56.3931C10.4935 57.0914 9.67773 57.5152 7.91565 58.5691C6.00426 50.8895 5.01727 46.4311 3.79754 39.1895C5.40592 37.7304 6.21834 37.1376 7.85527 36.1682C8.55681 40.6069 8.96851 42.9794 9.81277 47.6124C10.4155 42.2548 10.7449 39.5957 11.5035 34.4467C11.6583 34.3907 11.8043 34.3402 11.9437 34.2908C12.0371 34.2579 12.1293 34.2282 12.2171 34.1986C12.3291 34.1613 12.4367 34.1261 12.541 34.0932C12.9483 33.9636 13.3161 33.8615 13.6904 33.7726C13.7772 33.7529 13.865 33.732 13.9539 33.7155C14.4513 33.6079 14.9794 33.5212 15.6381 33.429C15.693 33.7045 15.7457 33.9724 15.7973 34.2326C16.6316 38.4232 17.1081 40.7693 17.9754 45.14C18.4662 40.3313 18.7483 37.9939 19.3522 33.2061C19.4905 33.2083 19.6244 33.2116 19.7529 33.2138C19.8319 33.216 19.9099 33.2193 19.9845 33.2204H19.9856C20.5104 33.2358 20.9562 33.261 21.4019 33.3005C21.4787 33.3071 21.5523 33.3137 21.6292 33.3214C22.1935 33.3774 22.7742 33.4553 23.5208 33.5695C22.6666 38.8151 21.8356 44.0772 21.111 49.347L21.1077 49.3481ZM51.9249 57.8654C51.6384 56.4711 51.4869 55.7586 51.1773 54.3335C50.849 54.3259 50.5548 54.3193 50.2792 54.3105C50.1991 54.3094 50.12 54.3061 50.0421 54.3039C48.8684 54.2688 47.9901 54.2194 46.3389 54.0239C46.0787 55.3732 45.9426 56.0418 45.6495 57.3659C43.7172 57.0793 42.7017 56.8718 40.6629 56.448C40.6575 56.436 40.6542 56.425 40.6498 56.4151C40.6454 56.4228 40.6432 56.4338 40.641 56.4425C39.6134 56.2285 38.8108 56.055 38.0281 55.8848C37.9402 55.8651 37.8535 55.8475 37.7646 55.8288C36.9181 55.6444 36.0629 55.4611 34.9364 55.2327C33.81 52.555 33.2282 51.2419 32.0996 48.6597C31.7405 47.8265 31.4309 47.2698 31.1642 47.0009C30.8107 46.6408 30.4055 46.4267 29.9708 46.3597C29.8028 46.3323 29.7183 46.3213 29.5503 46.2949C29.6249 49.459 29.6656 51.0388 29.7095 54.3182C29.0519 54.2303 28.5128 54.1612 28.021 54.1118C27.9287 54.1019 27.8387 54.092 27.7498 54.0843H27.7487C26.8902 54.0042 26.126 53.9778 25.0172 53.9888C25.0172 51.0959 25.0183 48.2019 25.0183 45.3079V39.2444C25.0183 38.5648 25.0183 37.8841 25.0194 37.2057V33.8275C25.1709 33.8561 25.3191 33.8846 25.4618 33.912C25.554 33.9285 25.643 33.9472 25.7319 33.9625C25.8109 33.9779 25.8889 33.9933 25.9657 34.0065C27.8684 34.3666 29.0815 34.5861 31.0621 34.899C31.4771 34.9638 31.925 35.0341 32.4201 35.1098C33.0778 35.2097 33.6739 35.3305 34.2075 35.4699C34.2854 35.4897 34.3601 35.5105 34.4358 35.5303C34.988 35.6862 35.4667 35.8663 35.8642 36.0705C35.8861 36.0803 35.907 36.0913 35.9278 36.1012C35.9805 36.1297 36.0343 36.1594 36.087 36.1901C36.8391 36.6293 37.4616 37.2924 37.9534 38.1861C38.4793 39.1456 38.7658 40.2676 38.8141 41.5565C38.8569 42.6774 38.7043 43.6183 38.353 44.3704C38.0006 45.1191 37.4945 45.6878 36.8402 46.0688C36.6327 46.1895 36.3867 46.2883 36.1013 46.3652C36.0277 46.386 35.952 46.4036 35.8729 46.4223C35.638 46.4739 35.38 46.5145 35.0989 46.5419C35.4294 46.733 35.7104 46.913 35.9465 47.0865H35.9476C36.042 47.1579 36.1298 47.2281 36.2089 47.294C36.2956 47.3664 36.3725 47.4389 36.4427 47.5092C36.6349 47.7079 36.9181 48.1042 37.2936 48.7069C37.669 49.3108 37.9227 49.7708 38.0522 50.0859C39.1193 52.5901 39.6551 53.8691 40.6509 56.4129C42.6512 49.829 44.1959 43.1045 45.9108 36.4437C46.71 36.4624 47.327 36.4668 47.8782 36.4602C47.9583 36.4602 48.0373 36.4591 48.1153 36.458C48.6631 36.4503 49.1583 36.4306 49.727 36.4053C49.8038 36.4009 49.8818 36.3987 49.9619 36.3932C50.1035 36.3866 50.2496 36.3801 50.4022 36.3724C52.0479 43.5744 54.2601 50.7281 56.5502 57.7446C54.641 57.9181 53.7024 57.9126 51.9271 57.8643L51.9249 57.8654ZM67.5421 43.1726C67.2578 43.9817 66.8603 44.7316 66.352 45.3881C65.8283 46.0622 65.1883 46.6386 64.4318 47.081C64.3473 47.1304 64.2617 47.1765 64.1739 47.2237C64.0893 47.2676 64.0059 47.3094 63.9202 47.3511C62.9596 47.8045 62.4809 47.9955 61.5324 48.3271C61.6773 49.2592 61.8035 50.0639 61.9144 50.805C61.9507 51.041 61.9847 51.2705 62.0165 51.4955C62.1944 52.6944 62.3382 53.7725 62.4875 55.0395C62.4919 55.0779 62.4963 55.1174 62.5007 55.1547C62.5205 55.3139 62.538 55.4775 62.5567 55.6422C62.5863 55.9035 62.616 56.1758 62.6478 56.459C62.5161 56.5051 62.3898 56.5512 62.2658 56.593C62.1922 56.6193 62.1197 56.6435 62.0484 56.6665C62.0286 56.6731 62.0099 56.6797 61.9902 56.6863C60.5344 57.1737 59.6078 57.3549 57.9862 57.5832C57.4461 50.3011 56.4415 43.0705 55.8048 35.7993C56.8719 35.6072 57.6931 35.4392 58.5308 35.2185C59.531 34.955 60.5531 34.6158 62.0385 34.069C62.7982 33.7891 63.5085 33.6233 64.1552 33.597C64.2353 33.5926 64.3133 33.5915 64.3912 33.5915C64.9171 33.5981 65.3969 33.7002 65.8251 33.9098C66.8307 34.405 67.5257 35.4535 67.9099 37.3747C68.3062 39.3487 68.1833 41.3501 67.5443 43.1726H67.5421Z" fill="white"/>
<path d="M40.7388 56.4053C40.7344 56.413 40.7322 56.4239 40.73 56.4327C40.7377 56.4349 40.7443 56.4371 40.7519 56.4382C40.7464 56.4261 40.7432 56.4152 40.7388 56.4053Z" fill="white"/>
<path d="M40.7388 56.4053C40.7344 56.413 40.7322 56.4239 40.73 56.4327C40.7377 56.4338 40.7443 56.4349 40.7519 56.4371C40.7464 56.4272 40.7432 56.4151 40.7388 56.4064V56.4053Z" fill="white"/>
</svg>
