<svg width="89" height="89" viewBox="0 0 89 89" fill="none" xmlns="http://www.w3.org/2000/svg">
<g clip-path="url(#clip0_0_354)">
<path d="M88.3315 44.5C88.3315 53.169 85.7608 61.6434 80.9445 68.8514C76.1283 76.0595 69.2827 81.6775 61.2736 84.995C53.2644 88.3125 44.4514 89.1805 35.9489 87.4893C27.4464 85.798 19.6364 81.6235 13.5064 75.4935C7.37647 69.3636 3.20193 61.5536 1.51068 53.0511C-0.180566 44.5486 0.687463 35.7355 4.00497 27.7264C7.32247 19.7172 12.9405 12.8717 20.1485 8.0554C27.3566 3.23913 35.8309 0.668457 44.5 0.668457C56.1248 0.668457 67.2735 5.28641 75.4935 13.5064C83.7135 21.7264 88.3315 32.8751 88.3315 44.5Z" fill="white"/>
<path d="M44.5 0C35.6987 0 27.0951 2.60988 19.7771 7.4996C12.4592 12.3893 6.75546 19.3393 3.38737 27.4706C0.0192656 35.6019 -0.861962 44.5494 0.85508 53.1815C2.57212 61.8137 6.81033 69.7428 13.0338 75.9662C19.2572 82.1897 27.1863 86.4279 35.8185 88.1449C44.4506 89.862 53.3981 88.9807 61.5294 85.6126C69.6607 82.2445 76.6107 76.5409 81.5004 69.2229C86.3901 61.9049 89 53.3013 89 44.5C89 32.6979 84.3116 21.3791 75.9663 13.0337C67.6209 4.68838 56.3021 0 44.5 0ZM44.5 87.3259C36.0297 87.3265 27.7495 84.8153 20.7064 80.1098C13.6634 75.4044 8.17381 68.7161 4.93198 60.8907C1.69015 53.0654 0.84165 44.4544 2.49378 36.1468C4.14591 27.8392 8.22445 20.2081 14.2137 14.2185C20.2029 8.22889 27.8337 4.14983 36.1412 2.49716C44.4487 0.844478 53.0597 1.69241 60.8853 4.93372C68.7109 8.17503 75.3995 13.6641 80.1054 20.7069C84.8113 27.7496 87.3231 36.0297 87.3231 44.5C87.3235 50.1238 86.2161 55.6927 84.0642 60.8886C81.9123 66.0844 78.758 70.8055 74.7815 74.7823C70.805 78.7591 66.0841 81.9137 60.8884 84.0659C55.6926 86.2182 50.1239 87.3259 44.5 87.3259Z" fill="#231F20"/>
<path d="M63.9655 50.5956C64.3848 50.3973 69.475 48.8309 68.3051 45.7802C67.4836 43.6444 65.9031 46.1739 64.8012 45.3496C64.4471 45.0862 64.2346 44.8766 65.7756 43.3668C67.3165 41.8571 67.7952 40.792 67.951 39.8686C68.1068 38.9452 68.1012 38.2342 67.4638 37.8858C66.8265 37.5374 65.988 38.4721 65.7359 37.4949C65.583 36.9708 65.7812 36.6762 65.7841 35.7387C65.7841 34.7133 64.736 32.1526 62.2915 33.0165C60.7109 33.5831 61.5494 36.2995 61.1443 36.815C60.7392 37.3306 60.371 35.7273 59.4816 35.4724C58.4562 35.1891 57.7424 36.1296 57.7509 37.0077C57.7594 37.8858 58.3174 39.5258 58.5213 40.1575C58.6261 40.6617 58.898 42.0298 58.7281 42.4236C58.4675 43.0298 58.2437 42.8315 57.6602 42.061C57.1447 41.3812 57.4166 41.6673 56.5074 40.5711C55.3743 39.1774 54.686 41.1121 54.6039 42.4037C54.5217 43.6954 55.5018 48.1992 55.4876 48.7969C55.4196 51.4964 53.9184 48.4003 53.8702 48.3267C52.8845 46.8283 50.9895 47.5307 51.5815 49.1425C52.6607 52.077 53.6323 54.6122 52.6097 57.1304C52.4709 57.4675 52.2896 58.0566 52.0432 58.6373C60.3625 50.893 62.6512 40.1632 62.6541 40.1518C62.6827 40.0906 62.7298 40.0399 62.7887 40.0069C62.8477 39.9739 62.9155 39.9602 62.9826 39.9677C63.0875 40.0017 63.1385 40.2085 63.1045 40.319C63.1045 40.3388 60.388 56.2721 45.8823 64.396C45.5622 64.5716 45.5254 64.396 45.4631 64.0957C45.5311 61.569 45.6359 59.8468 46.5735 59.2973C54.3858 54.6604 51.8477 52.5274 50.2275 52.2158C48.6072 51.9043 47.6782 49.2501 49.9159 48.1001C53.8504 45.8878 55.8643 37.9906 50.9753 39.7156C50.5306 39.7553 47.3184 41.4152 50.1482 36.5828C52.8278 31.7362 52.0035 27.4222 49.2248 29.303C48.4968 29.7931 46.4318 31.977 46.8454 28.8186C47.5847 24.0231 46.395 22.3037 44.99 22.0006C44.99 22.0006 44.8427 21.9751 44.7238 21.9638H44.5963V21.9468C44.4642 21.9547 44.3327 21.9708 44.2026 21.9949C42.7863 22.3065 41.6079 24.0174 42.3444 28.813C42.758 31.9713 40.693 29.7874 39.9678 29.2973C37.1862 27.4165 36.362 31.7305 39.0416 36.5771C41.8742 41.418 38.662 39.7496 38.2145 39.71C33.3311 37.9849 35.3422 45.8822 39.2767 48.0944C41.5088 49.2445 40.5825 51.8929 38.9651 52.2102C37.3477 52.5274 34.804 54.6604 42.6163 59.2917C43.5539 59.8582 43.67 61.5776 43.7494 64.1071C43.687 64.3903 43.6389 64.5603 43.3216 64.3903C28.8188 56.2551 26.1052 40.3133 26.1023 40.3133C26.0889 40.2464 26.096 40.1771 26.1228 40.1144C26.1496 40.0516 26.1948 39.9985 26.2525 39.9621C26.3544 39.9281 26.5159 40.1065 26.5357 40.2198C26.5357 40.2198 28.833 50.8874 37.1523 58.6317C36.9002 58.051 36.7161 57.4618 36.5858 57.1247C35.566 54.6065 36.5348 52.0714 37.614 49.1368C38.206 47.5251 36.3138 46.8226 35.3281 48.321C35.2799 48.3947 33.7758 51.4907 33.7107 48.7912C33.6937 48.1936 34.6737 43.6926 34.5916 42.3981C34.5095 41.1036 33.824 39.1718 32.6909 40.5654C31.7817 41.6616 32.0508 41.3755 31.5352 42.0553C30.9687 42.8258 30.7308 43.0241 30.4702 42.4179C30.3002 42.0157 30.5693 40.6475 30.677 40.1518C30.8668 39.5202 31.4389 37.8858 31.4474 37.002C31.4559 36.1182 30.7393 35.175 29.7167 35.4667C28.8273 35.7217 28.4732 37.3391 28.054 36.8094C27.6348 36.2797 28.4874 33.5689 26.9039 33.0109C24.4594 32.1469 23.4114 34.7104 23.4142 35.733C23.4142 36.6706 23.6153 36.9652 23.4595 37.4892C23.2074 38.4664 22.369 37.5232 21.7345 37.8801C21.1 38.237 21.0943 38.9452 21.2473 39.8629C21.4002 40.7807 21.8733 41.8457 23.4199 43.3612C24.9665 44.8766 24.7512 45.0607 24.3971 45.344C23.2952 46.1683 21.7146 43.6444 20.8932 45.7745C19.7233 48.8139 24.8135 50.3803 25.2299 50.5899C26.3204 51.1111 26.9294 52.2895 25.431 51.9496C24.8333 51.8108 23.9156 51.3831 23.1961 52.1733C21.3011 54.2865 26.244 57.9745 29.5269 58.6515C32.0958 59.2175 34.597 60.056 36.988 61.1527C38.2116 61.7192 43.4293 65.2854 43.7862 66.7357C43.8797 67.1634 44.1006 67.4807 44.6048 67.4807C45.109 67.4807 45.3243 67.1974 45.4149 66.764C45.7463 65.3477 50.9895 61.7079 52.2131 61.1527C54.6031 60.0559 57.1034 59.2174 59.6714 58.6515C62.9543 57.9745 67.8859 54.2865 66.0022 52.1733C65.2827 51.3746 64.3678 51.8108 63.7701 51.9496C62.2802 52.3008 62.8778 51.0998 63.9684 50.5899M44.8881 65.6735C44.8881 65.6735 44.8541 65.9567 44.6218 65.9567C44.3895 65.9567 44.4037 65.6735 44.4037 65.6735C44.4037 65.6735 44.2366 55.4762 44.2366 48.4797C44.2366 41.4832 44.4037 33.8776 44.4037 33.8776C44.4037 33.8776 44.466 33.5944 44.6615 33.5944C44.8569 33.5944 44.8881 33.8776 44.8881 33.8776C44.8881 33.8776 45.058 41.4917 45.058 48.4797C45.058 55.4677 44.8881 65.6735 44.8881 65.6735Z" fill="#231F20"/>
<path d="M44.5 3.25195C36.3419 3.25195 28.367 5.67112 21.5838 10.2035C14.8005 14.7359 9.51366 21.178 6.39168 28.7151C3.2697 36.2523 2.45285 44.5459 4.04442 52.5473C5.63599 60.5486 9.56449 67.8983 15.3332 73.667C21.1018 79.4357 28.4515 83.3642 36.4529 84.9557C44.4543 86.5473 52.7479 85.7305 60.285 82.6085C67.8222 79.4865 74.2642 74.1996 78.7966 67.4164C83.329 60.6332 85.7482 52.6583 85.7482 44.5001C85.7475 33.5607 81.4014 23.0695 73.6661 15.3341C65.9307 7.59872 55.4395 3.2527 44.5 3.25195ZM81.6665 41.4126L81.692 42.5457L78.205 44.8117L77.9756 44.9505L78.6441 44.9307L81.7373 44.8684L81.7628 46.0467L75.7548 46.1714L75.7322 45.0893L79.3097 42.7099L79.4542 42.6193L78.7914 42.6363L75.6755 42.7014L75.65 41.5203L81.4795 41.4013L81.6665 41.4126ZM80.3606 34.2462L80.6184 35.4217L77.2646 36.1582C76.8376 36.2125 76.4485 36.431 76.1797 36.7672C76.1107 36.8859 76.0662 37.0172 76.0487 37.1534C76.0312 37.2896 76.0411 37.428 76.0777 37.5603C76.0981 37.7023 76.1473 37.8386 76.2223 37.9609C76.2973 38.0832 76.3966 38.1888 76.514 38.2713C76.8793 38.4563 77.303 38.4889 77.6923 38.3619L81.0914 37.6141L81.3492 38.7925L77.9501 39.5374C76.2958 39.9 75.2081 39.2825 74.8796 37.8011C74.568 36.3848 75.3271 35.348 76.9672 34.9883L80.1709 34.2858L80.3606 34.2462ZM78.7007 29.5894C78.8332 29.8772 78.9068 30.1887 78.917 30.5054C78.9272 30.8221 78.8739 31.1376 78.7602 31.4334C78.3627 32.2164 77.7055 32.8369 76.901 33.1888C76.0964 33.5406 75.1946 33.602 74.3499 33.3624C73.7613 33.1179 73.2898 32.6556 73.0338 32.0718C72.7779 31.4881 72.7572 30.8281 72.9761 30.2295C73.3398 29.4217 74.009 28.7912 74.8371 28.4762C76.5366 27.734 78.0832 28.1929 78.7007 29.5894ZM70.0217 25.485C70.2337 24.6241 70.776 23.8813 71.5314 23.4172C73.0639 22.3804 74.6728 22.5362 75.5339 23.8081C75.7923 24.1399 75.95 24.5389 75.9881 24.9577C76.0263 25.3765 75.9433 25.7974 75.7492 26.1704L75.6699 26.3234L74.5368 25.8249L74.6076 25.6634C74.7148 25.4817 74.7642 25.2719 74.7496 25.0615C74.7349 24.8511 74.6568 24.6501 74.5255 24.4851C74.4429 24.351 74.3337 24.2353 74.2046 24.1451C74.0754 24.055 73.9292 23.9923 73.7748 23.961C73.333 23.876 72.7948 24.0403 72.2113 24.4341C71.2199 25.1082 70.9224 25.8985 71.3983 26.6038C71.5121 26.7978 71.6797 26.9546 71.8808 27.0552C72.0819 27.1557 72.3079 27.1957 72.5314 27.1703H72.7126V28.3629H72.5455C72.1233 28.3952 71.7003 28.3118 71.322 28.1217C70.9436 27.9315 70.6243 27.6418 70.3984 27.2837C70.2166 27.0256 70.0883 26.7337 70.0211 26.4253C69.954 26.1168 69.9494 25.7981 70.0075 25.4878M68.8745 16.313C69.209 16.5672 69.4645 16.9111 69.6114 17.3046C69.7583 17.6982 69.7906 18.1254 69.7044 18.5366L69.6704 18.7066L68.4637 18.5168L68.4893 18.344C68.5431 18.1394 68.5338 17.9233 68.4625 17.7241C68.3912 17.5249 68.2613 17.3519 68.0898 17.228C67.9741 17.12 67.8375 17.0369 67.6884 16.9838C67.5394 16.9307 67.381 16.9087 67.2231 16.9192C66.7727 16.9532 66.294 17.2506 65.8379 17.7831C65.3819 18.3157 65.1609 18.8312 65.1949 19.2844C65.2091 19.4419 65.2551 19.5949 65.33 19.7342C65.405 19.8734 65.5074 19.996 65.6311 20.0945C65.7372 20.1983 65.8632 20.2796 66.0014 20.3336C66.1396 20.3876 66.2873 20.4133 66.4356 20.409C66.6757 20.3821 66.898 20.2694 67.0616 20.0917L66.3818 19.5054L67.1438 18.6159L68.7697 20.0096L68.2258 20.6412C68.0182 20.9077 67.7594 21.1299 67.4646 21.2948C67.1698 21.4597 66.845 21.564 66.5093 21.6015C66.2105 21.6175 65.9114 21.5742 65.6294 21.474C65.3475 21.3739 65.0881 21.2189 64.8664 21.018C64.6228 20.8167 64.4221 20.5685 64.2761 20.2883C64.1301 20.008 64.0419 19.7014 64.0166 19.3864C64.0355 18.5078 64.3587 17.6629 64.931 16.996C65.5034 16.3291 66.2895 15.8815 67.1551 15.7295C67.4698 15.7074 67.7858 15.7483 68.0844 15.85C68.3831 15.9516 68.6584 16.112 68.8943 16.3215M60.9092 11.0614L61.8978 11.6279L62.0621 15.7862C62.0621 15.7862 62.0621 15.9448 62.0621 16.0553L62.3907 15.4717L63.9203 12.7836L64.9457 13.3671L61.9686 18.5904L61.0282 18.0522L60.8214 13.7609C60.8214 13.7609 60.8214 13.6589 60.8214 13.5909C60.6996 13.809 60.4957 14.1574 60.4957 14.1574L58.9576 16.8597L57.9322 16.2762L60.8186 11.2087L60.9092 11.0614ZM57.5101 9.85756L57.5753 9.69327L58.7083 10.1323L56.513 15.7267L55.38 15.2848L57.5101 9.85756ZM51.0603 8.0362L51.1028 7.86341L52.774 8.26281C54.5614 8.69053 55.3687 10.0388 54.9296 11.8687C54.4113 14.0215 52.7542 14.4379 51.3804 14.1093L49.7035 13.707L51.0603 8.0362ZM44.8484 7.48668V7.31106L46.0523 7.3762C46.0523 7.3762 45.7973 11.863 45.769 12.1916L48.6016 12.3502L48.5308 13.5399L44.5142 13.3105L44.8484 7.48668ZM42.4237 7.4102H42.5994L43.0072 13.4068L41.8062 13.4889L41.3983 7.49234L42.4237 7.4102ZM35.6652 8.40727L36.3818 11.7639C36.5829 12.7128 37.0531 13.115 37.7783 12.9621C38.2513 12.8573 38.8518 12.5768 38.5884 11.3532L37.8604 7.93989L38.8632 7.72462L39.0388 7.68779L39.7639 11.0869C39.9481 11.9537 39.8659 12.6675 39.5175 13.2028C39.3429 13.4527 39.1197 13.6648 38.8613 13.8263C38.6028 13.9879 38.3144 14.0957 38.0134 14.1433C37.7285 14.22 37.4311 14.2382 37.139 14.1969C36.8469 14.1555 36.5662 14.0553 36.3138 13.9025C35.7756 13.5513 35.4046 12.9253 35.2176 12.0443L34.4925 8.6622L35.6652 8.40727ZM30.3087 10.172C30.5324 10.0629 30.7754 9.99897 31.0237 9.9839C31.2721 9.96883 31.521 10.0029 31.7562 10.0842C31.9506 10.1696 32.1259 10.2931 32.2718 10.4473C32.4178 10.6015 32.5314 10.7833 32.606 10.9821C32.6869 11.1651 32.7293 11.3627 32.7306 11.5628C32.7009 11.7964 32.6122 12.0187 32.4729 12.2086C32.7585 12.2194 33.0347 12.3137 33.2673 12.4798C33.4999 12.646 33.6787 12.8767 33.7815 13.1434C33.9015 13.411 33.9669 13.6999 33.9741 13.9931C33.974 14.1959 33.9356 14.3967 33.8608 14.5851C33.7334 14.8491 33.5549 15.0852 33.3356 15.2797C33.1163 15.4742 32.8606 15.6232 32.5833 15.7182L30.3541 16.6671L28.0002 11.1351L30.3087 10.172ZM20.3692 16.2649L24.2952 17.6415L24.5444 17.735L24.1224 17.2166L22.1877 14.8033L22.9667 14.1744L23.1055 14.064L26.8728 18.7519L26.023 19.4289L21.9554 18.0437L21.794 17.9871C21.8789 18.0862 22.2132 18.4998 22.2132 18.4998L24.1592 20.9245L23.2414 21.6638L19.4769 16.9787L20.3692 16.2649ZM17.6074 18.8397L17.7235 18.7066L18.6186 19.477L16.7973 21.5845L17.5847 22.2643L18.6441 21.035L19.5392 21.8026L18.4798 23.0348L19.5619 23.9667L21.4654 21.7573L22.3577 22.5277L19.6695 25.6436L15.1176 21.7204L17.6074 18.8397ZM7.82931 38.1551C7.87449 37.7375 8.03749 37.3413 8.29929 37.0128C8.56109 36.6843 8.91089 36.437 9.30792 36.2998L9.46939 36.2403L9.93111 37.3733L9.76679 37.4413C9.56426 37.5008 9.38434 37.6199 9.25045 37.7831C9.11656 37.9463 9.03491 38.146 9.01615 38.3563C8.98351 38.5115 8.98303 38.6717 9.0147 38.8271C9.04636 38.9825 9.10951 39.1298 9.20028 39.2598C9.46371 39.6281 9.96791 39.8858 10.6562 40.002C11.8403 40.2031 12.6022 39.832 12.7438 38.9879C12.7585 38.8942 12.7661 38.7995 12.7665 38.7047C12.7705 38.5027 12.711 38.3046 12.5965 38.1381C12.45 37.9457 12.2387 37.8128 12.0017 37.7642C11.9592 38.005 11.8516 38.6508 11.8516 38.6508L10.6959 38.4554L11.0528 36.3451L11.8743 36.4839C12.2078 36.5262 12.5297 36.6341 12.8214 36.8013C13.1131 36.9686 13.3688 37.1918 13.5738 37.4583C13.7452 37.7086 13.8646 37.9908 13.9249 38.2881C13.9853 38.5853 13.9853 38.8917 13.9251 39.189C13.8789 39.5018 13.77 39.802 13.605 40.0716C13.44 40.3413 13.2222 40.5748 12.9648 40.7583C12.2027 41.1963 11.3119 41.3556 10.4452 41.2088C9.57856 41.062 8.78993 40.6184 8.21454 39.9538C7.93212 39.5601 7.78142 39.0872 7.78398 38.6027C7.78478 38.4536 7.79805 38.3048 7.82364 38.158M14.4122 52.151C14.4525 52.3087 14.4449 52.4749 14.3906 52.6283C14.3362 52.7818 14.2375 52.9156 14.1069 53.0128C13.9763 53.1101 13.8198 53.1663 13.6572 53.1744C13.4946 53.1825 13.3332 53.1421 13.1936 53.0584C13.054 52.9746 12.9425 52.8513 12.8731 52.704C12.8038 52.5567 12.7797 52.3921 12.804 52.2312C12.8284 52.0702 12.9 51.9201 13.0099 51.7999C13.1197 51.6797 13.2627 51.5949 13.4208 51.5561C13.631 51.5069 13.8521 51.5415 14.0372 51.6525C14.2222 51.7636 14.3568 51.9424 14.4122 52.151ZM13.469 44.7862C13.4729 44.9491 13.4283 45.1095 13.3408 45.247C13.2534 45.3844 13.127 45.4928 12.9778 45.5583C12.8286 45.6237 12.6633 45.6433 12.5029 45.6146C12.3425 45.5858 12.1943 45.5101 12.0771 45.3969C11.9599 45.2837 11.879 45.1382 11.8447 44.9789C11.8104 44.8196 11.8243 44.6537 11.8845 44.5023C11.9448 44.3509 12.0487 44.2209 12.183 44.1287C12.3174 44.0365 12.4761 43.9863 12.639 43.9846C12.8541 43.9852 13.0606 44.069 13.2153 44.2184C13.3701 44.3678 13.461 44.5713 13.469 44.7862ZM7.56019 49.0861C7.51108 48.7224 7.53594 48.3525 7.63329 47.9986C7.73064 47.6448 7.89847 47.3142 8.12671 47.0268L8.23435 46.8852L9.1946 47.6245L9.08133 47.7661C8.93896 47.9364 8.8349 48.1354 8.77625 48.3494C8.7176 48.5635 8.70571 48.7877 8.7414 49.0068C8.75031 49.2366 8.84657 49.4544 9.01051 49.6158L9.35325 49.7036C9.59118 49.6753 9.74698 49.5818 9.91976 48.5167C10.0926 47.4517 10.3701 46.5113 11.5485 46.3725C11.7836 46.3319 12.0245 46.3398 12.2563 46.3959C12.4882 46.4519 12.7062 46.5548 12.8968 46.6982C13.3302 47.041 13.6021 47.6103 13.6956 48.3978C13.7475 48.8016 13.7111 49.2119 13.5889 49.6002C13.4666 49.9885 13.2614 50.3457 12.9874 50.6469L12.8741 50.7715L11.9451 50.0209L12.064 49.8792C12.2304 49.6857 12.3556 49.4603 12.432 49.2168C12.5085 48.9733 12.5346 48.7168 12.5088 48.4629C12.404 47.5905 12.047 47.5197 11.7496 47.5537C11.4522 47.5877 11.2992 47.7831 11.1293 48.7887C10.9282 49.967 10.7072 50.7488 9.53737 50.8905C9.32243 50.921 9.10351 50.9079 8.89375 50.852C8.68398 50.796 8.48765 50.6983 8.31651 50.5647C8.09675 50.3792 7.91582 50.152 7.78408 49.8963C7.65235 49.6406 7.57242 49.3614 7.54889 49.0748M13.7806 58.513L10.5429 59.7281L10.1209 58.5951L13.3359 57.3884C13.7508 57.2751 14.1047 57.0035 14.3216 56.6321C14.3749 56.5057 14.4024 56.3699 14.4024 56.2327C14.4024 56.0955 14.3749 55.9597 14.3216 55.8333C14.1488 55.3773 13.7863 54.8249 12.6221 55.2668L9.34758 56.516L8.92269 55.383L12.1802 54.1593C13.7636 53.5644 14.9306 54.0205 15.4631 55.4396C15.9758 56.8049 15.3697 57.9323 13.7976 58.5215M15.7209 32.6316L13.2339 32.9148L12.8883 33.8383L14.9844 34.6229L14.5681 35.7333L8.9397 33.6287L9.86876 31.1388C10.305 29.9859 11.2397 29.5242 12.3161 29.9265C12.6784 30.0313 12.9963 30.2521 13.2209 30.555C13.4456 30.8579 13.5646 31.2262 13.5596 31.6034V31.6373L16.2053 31.3541L15.7209 32.6316ZM11.659 27.0995L13.6248 23.8222L13.7154 23.6693L14.7267 24.2754L13.2906 26.6718L14.1828 27.2072C14.3273 26.9636 15.0326 25.8164 15.0326 25.8164L16.0438 26.4225C16.0438 26.4225 15.3555 27.5726 15.2082 27.8133L16.4347 28.5498L17.9332 26.0486L18.9472 26.6548L16.8285 30.1899L11.659 27.0995ZM44.5 71.3729C39.1854 71.3712 33.9907 69.7938 29.5726 66.8399C25.1545 63.8861 21.7115 59.6885 19.6789 54.778C17.6462 49.8675 17.1153 44.4646 18.1531 39.2523C19.191 34.0401 21.751 29.2526 25.5096 25.4952C29.2682 21.7378 34.0564 19.1793 39.269 18.1431C44.4816 17.1069 49.8844 17.6395 54.7943 19.6737C59.7041 21.7079 63.9006 25.1523 66.853 29.5713C69.8055 33.9903 71.3813 39.1856 71.3813 44.5001C71.3817 48.029 70.687 51.5233 69.3368 54.7837C67.9866 58.044 66.0074 61.0065 63.5123 63.5019C61.0172 65.9973 58.0549 67.9768 54.7947 69.3273C51.5345 70.6778 48.0402 71.3729 44.5114 71.3729M78.5987 59.4959L74.2139 57.4762C74.0808 57.7595 73.0327 60.0256 73.0327 60.0256L71.9478 59.5412L73.5568 56.0486L73.6332 55.8872L79.0916 58.4053L78.5987 59.4959ZM79.8677 56.2016L74.1317 54.4057L74.4349 53.4256L74.4887 53.2585L80.2247 55.0515L79.8677 56.2016ZM81.2642 50.9726C81.2229 51.3919 81.0614 51.7902 80.7991 52.1199C80.5368 52.4495 80.1849 52.6964 79.7856 52.8308L79.627 52.8903L79.1596 51.7572L79.3211 51.6893C79.5244 51.6316 79.7055 51.514 79.841 51.3518C79.9764 51.1896 80.0597 50.9903 80.0802 50.78C80.1118 50.6267 80.112 50.4687 80.0809 50.3153C80.0497 50.162 79.9878 50.0165 79.8989 49.8877C79.6355 49.5167 79.1313 49.2617 78.4373 49.1456C77.2561 48.9473 76.4942 49.3127 76.3525 50.1512C76.3023 50.3659 76.3143 50.5905 76.387 50.7986C76.4597 51.0068 76.5902 51.1899 76.7632 51.3267L76.8992 51.4485L76.0806 52.3181L75.9531 52.2104C75.6245 51.9425 75.3757 51.5895 75.2339 51.1899C75.0921 50.7904 75.0626 50.3595 75.1487 49.9444C75.4036 48.4261 76.8 47.616 78.6271 47.9247C79.5066 48.0327 80.3078 48.4837 80.8563 49.1796C81.0391 49.4366 81.168 49.728 81.2351 50.0361C81.3023 50.3443 81.3064 50.6628 81.2472 50.9726" fill="#231F20"/>
<path d="M30.9829 15.1882L32.2094 14.667C32.3232 14.6317 32.4287 14.5739 32.5197 14.497C32.6107 14.4201 32.6853 14.3258 32.7391 14.2195L32.691 13.636L32.3001 13.2111C32.1917 13.1756 32.0773 13.1618 31.9636 13.1705C31.8498 13.1793 31.7389 13.2104 31.6372 13.2621L30.3881 13.7946L30.9829 15.1882Z" fill="#231F20"/>
<path d="M11.9139 31.0396C11.8203 30.9971 11.7184 30.9759 11.6156 30.9776C11.5129 30.9793 11.4118 31.0038 11.3196 31.0493C11.2274 31.0949 11.1466 31.1603 11.0828 31.2409C11.019 31.3215 10.9739 31.4153 10.9508 31.5155L10.4381 32.8921L11.8063 33.4048L12.3218 32.0282C12.3677 31.9097 12.3926 31.7841 12.3954 31.6571C12.3953 31.5153 12.3479 31.3775 12.2607 31.2657C12.1735 31.1538 12.0514 31.0743 11.9139 31.0396Z" fill="#231F20"/>
<path d="M74.0212 31.0764C74.023 31.2543 74.0615 31.4298 74.1346 31.592C74.4801 32.3794 75.3101 32.5579 76.4006 32.0763C77.038 31.7931 77.4657 31.4277 77.63 31.0056C77.6892 30.8584 77.7181 30.7008 77.7152 30.5422C77.7123 30.3835 77.6775 30.2271 77.613 30.0822C77.2674 29.2976 76.4403 29.1219 75.3469 29.6035C74.4971 29.9774 74.0411 30.5014 74.0411 31.0821" fill="#231F20"/>
<path d="M52.9694 12.8287C53.1744 12.6812 53.3482 12.4947 53.4809 12.2799C53.6137 12.065 53.7026 11.826 53.7427 11.5767C53.796 11.3627 53.8236 11.143 53.8249 10.9224C53.8331 10.6383 53.7615 10.3576 53.6181 10.1123C53.4888 9.92568 53.3234 9.76689 53.1317 9.64526C52.9401 9.52363 52.7259 9.44164 52.5021 9.40412L51.9978 9.28516C51.9242 9.58541 51.2217 12.5341 51.1481 12.8344L51.6523 12.9534C51.869 13.0217 52.0973 13.0459 52.3235 13.0245C52.5497 13.0031 52.7694 12.9365 52.9694 12.8287Z" fill="#231F20"/>
<path d="M31.5778 11.7381C31.5777 11.6561 31.5603 11.5751 31.5268 11.5002C31.3795 11.149 31.1217 11.0583 30.7507 11.2169L29.5156 11.741C29.6091 11.9591 29.8555 12.5426 29.949 12.7579L31.1812 12.2339C31.4984 12.0979 31.5778 11.9024 31.5778 11.7381Z" fill="#231F20"/>
<path d="M77.3297 79.0206V77.1936H76.6357V76.8735H78.3919V77.1936H77.6895V79.0206H77.3297ZM78.6299 79.0206V76.8735H79.1567L79.7006 78.5901L80.2246 76.8735H80.7288V79.0206H80.4002V77.2191L79.8479 79.0206H79.5221L78.9556 77.1936V79.0206H78.6299Z" fill="#231F20"/>
<path d="M53.7625 79.6044C53.7625 79.3178 53.6706 79.0389 53.5003 78.8084C53.33 78.578 53.0903 78.4082 52.8164 78.324C52.7966 78.324 52.7853 78.2985 52.7541 78.273C52.7966 78.2136 52.8249 78.1711 52.8561 78.1314C53.3745 77.4714 53.026 76.1996 52.0431 76.0126C51.715 75.9574 51.3799 75.9574 51.0517 76.0126C50.3719 76.1231 49.7034 76.2789 49.0293 76.4205C48.8536 76.4573 48.6808 76.5027 48.4939 76.548C48.6865 77.4884 48.8706 78.4005 49.0604 79.3098C49.2502 80.219 49.4173 81.1255 49.6269 82.0291C49.7459 82.0121 49.828 82.0064 49.9102 81.9894C50.6637 81.8336 51.42 81.6891 52.1763 81.5135C52.4749 81.4474 52.7615 81.3356 53.026 81.1821C53.2925 81.0229 53.5051 80.7875 53.6363 80.5062C53.7676 80.225 53.8116 79.9108 53.7625 79.6044ZM49.7969 77.3383L50.1906 77.2505L51.1679 77.0465C51.2666 77.0254 51.3672 77.0141 51.4681 77.0125C51.529 77.0071 51.5904 77.0138 51.6487 77.0323C51.707 77.0508 51.761 77.0807 51.8076 77.1202C51.8543 77.1597 51.8926 77.2081 51.9204 77.2626C51.9482 77.317 51.9649 77.3765 51.9695 77.4374C51.9867 77.4953 51.9922 77.556 51.9857 77.616C51.9792 77.676 51.9607 77.734 51.9315 77.7868C51.9022 77.8396 51.8626 77.886 51.8152 77.9233C51.7677 77.9605 51.7133 77.988 51.6551 78.0039C51.4919 78.0568 51.3254 78.0984 51.1565 78.1286L50.0235 78.3665C49.9244 78.0181 49.8536 77.6952 49.7856 77.3383H49.7969ZM52.1054 80.423C51.5899 80.5589 51.0631 80.6552 50.5079 80.7742C50.4059 80.2955 50.3124 79.8423 50.2076 79.3579C50.7741 79.2446 51.2812 79.1228 51.7967 79.0378C51.9759 79.01 52.159 79.0515 52.3088 79.1537C52.4585 79.256 52.5638 79.4115 52.6031 79.5885C52.6424 79.7656 52.6128 79.9509 52.5204 80.107C52.428 80.263 52.2796 80.378 52.1054 80.4286V80.423Z" fill="white"/>
<path d="M46.7377 78.066L45.7378 78.5022C45.6893 78.4507 45.6457 78.3948 45.6075 78.3351C45.1883 77.5817 44.0723 77.6581 43.6445 78.3351C43.3657 78.8004 43.2585 79.3485 43.3415 79.8845C43.3671 80.2296 43.4813 80.5623 43.6729 80.8505C43.8563 81.1096 44.1292 81.2915 44.4389 81.3611C44.7486 81.4306 45.0732 81.3829 45.3498 81.2272C45.4741 81.1548 45.5771 81.051 45.6487 80.9262C45.7203 80.8014 45.7579 80.6601 45.7577 80.5162H44.888V79.4795H46.8709C46.8879 80.0828 46.9417 80.6975 46.6754 81.2838C46.5684 81.5262 46.4125 81.7438 46.2176 81.9232C46.0226 82.1025 45.7928 82.2397 45.5424 82.3262C45.0464 82.5155 44.5038 82.5452 43.9901 82.4112C43.623 82.3218 43.2844 82.1409 43.006 81.8853C42.7277 81.6297 42.5186 81.3078 42.3982 80.9496C42.0658 80.1111 42.0527 79.1798 42.3614 78.3323C42.8656 76.933 44.1488 76.4203 45.5084 76.814C45.8004 76.9058 46.0652 77.068 46.2796 77.2863C46.494 77.5047 46.6514 77.7724 46.7377 78.066Z" fill="white"/>
<path d="M40.5202 77.4741L39.6223 78.0973C39.543 78.0094 39.4807 77.933 39.4127 77.8593C39.2534 77.6741 39.0534 77.5284 38.8283 77.4336C38.6032 77.3387 38.3592 77.2973 38.1154 77.3126C37.9848 77.3196 37.8581 77.3595 37.7471 77.4288C37.6952 77.4613 37.6517 77.5056 37.6199 77.5579C37.5881 77.6103 37.569 77.6693 37.564 77.7304C37.5591 77.7915 37.5685 77.8528 37.5914 77.9096C37.6143 77.9664 37.6502 78.0171 37.6961 78.0576C37.8348 78.1719 37.9882 78.2672 38.1522 78.3409C38.4524 78.4881 38.7612 78.6241 39.0643 78.7544C39.201 78.8199 39.3327 78.8957 39.458 78.981C39.7421 79.15 39.9617 79.4089 40.0823 79.7167C40.2028 80.0244 40.2174 80.3636 40.1237 80.6806C40.0569 81.0439 39.8663 81.3728 39.5843 81.6114C39.3024 81.85 38.9464 81.9835 38.5771 81.9892C37.7404 82.0778 36.9026 81.8324 36.2458 81.3066C36.0038 81.1104 35.81 80.8614 35.6793 80.5786L36.5801 80.0121L36.7586 80.2245C36.9643 80.4682 37.2272 80.657 37.5238 80.7742C37.8204 80.8914 38.1414 80.9332 38.4581 80.8959C38.5603 80.8942 38.6597 80.8616 38.7431 80.8025C38.8265 80.7433 38.8901 80.6604 38.9255 80.5644C38.9782 80.4641 38.9929 80.3481 38.9669 80.2377C38.9409 80.1274 38.8759 80.0301 38.7839 79.9639C38.6385 79.8533 38.4818 79.7583 38.3165 79.6807C38.053 79.5532 37.7783 79.4456 37.512 79.3209C37.3657 79.2525 37.2238 79.1749 37.0871 79.0887C36.8474 78.9625 36.6508 78.7675 36.5226 78.5287C36.3944 78.29 36.3404 78.0184 36.3677 77.7488C36.373 77.4578 36.4615 77.1745 36.6226 76.9321C36.7837 76.6897 37.0107 76.4984 37.2769 76.3807C38.2202 75.97 39.8631 76.2872 40.5202 77.4741Z" fill="white"/>
<path d="M33.8438 75.18L34.8749 75.5624C34.8437 75.6757 34.8211 75.772 34.7871 75.8627C34.4642 76.737 34.1422 77.6113 33.8212 78.4857C33.6766 78.917 33.4453 79.3142 33.1413 79.6527C32.9058 79.9136 32.6052 80.1073 32.2702 80.2138C31.9353 80.3203 31.578 80.3359 31.235 80.2589C30.7201 80.1782 30.244 79.9362 29.8754 79.5677C29.635 79.3171 29.4609 79.0105 29.3689 78.6756C29.2769 78.3408 29.2699 77.9883 29.3485 77.65C29.4199 77.3036 29.5194 76.9635 29.6459 76.6331C29.9292 75.8712 30.2125 75.112 30.4957 74.3529C30.5382 74.2396 30.5864 74.1291 30.643 73.9932L31.6656 74.3642C31.6541 74.4351 31.638 74.5051 31.6174 74.5739C31.2917 75.4661 30.9603 76.3584 30.6317 77.2506C30.513 77.5325 30.4588 77.8374 30.473 78.1429C30.4854 78.3499 30.5568 78.5489 30.6788 78.7165C30.8008 78.8842 30.9683 79.0133 31.1614 79.0887C31.3546 79.1641 31.5652 79.1826 31.7685 79.142C31.9718 79.1014 32.1593 79.0034 32.3086 78.8596C32.529 78.6333 32.6938 78.3588 32.7901 78.0579L33.7673 75.4066C33.773 75.3471 33.8013 75.282 33.8438 75.18Z" fill="white"/>
<path d="M60.0226 77.6329C60.0208 77.9222 59.9569 78.2077 59.8352 78.4701C59.7135 78.7326 59.5369 78.9658 59.3173 79.154C58.2267 80.0576 56.7169 80.0491 55.7567 78.7943C55.1952 78.1029 54.9034 77.2314 54.9352 76.3413C54.947 75.9804 55.0398 75.6268 55.2068 75.3067C55.3737 74.9865 55.6105 74.708 55.8997 74.4918C56.1888 74.2755 56.5229 74.1271 56.8771 74.0574C57.2314 73.9878 57.5968 73.9987 57.9463 74.0894C58.269 74.1796 58.5622 74.3535 58.796 74.5936C58.6601 74.7409 58.5326 74.8768 58.4023 75.0156L58.0313 75.415C57.9885 75.3964 57.9477 75.3736 57.9094 75.347C57.3118 74.8655 56.1731 75.2904 56.0966 76.2393C56.0559 76.6353 56.1137 77.0351 56.2649 77.4033C56.4161 77.7715 56.6561 78.0966 56.9634 78.3496C57.116 78.4845 57.3011 78.5773 57.5005 78.6189C57.6998 78.6605 57.9066 78.6494 58.1004 78.5868C58.2943 78.5242 58.4684 78.4122 58.6058 78.2618C58.7432 78.1115 58.839 77.9279 58.8839 77.7292C58.9058 77.6448 58.9323 77.5616 58.9632 77.48L60.0226 77.6329Z" fill="white"/>
<path d="M75.0014 66.5432C75.0014 66.5432 63.7503 61.0423 44.4094 61.0366H44.3782C25.0345 61.0366 13.7863 66.5432 13.7863 66.5432L17.2108 75.1203C17.2108 75.1203 29.2465 70.8034 44.4037 70.8006C59.5609 70.7977 71.5966 75.1203 71.5966 75.1203L75.0014 66.5432Z" fill="white" stroke="#231F20" stroke-width="0.5" stroke-miterlimit="10"/>
<path d="M30.2775 64.249L31.0197 68.7217L33.7843 68.3393L33.9684 69.4412L30.1954 69.9652L30.0198 69.9879L29.0935 64.4105L30.2775 64.249Z" fill="#231F20"/>
<path d="M38.3533 63.3254L42.1093 63.1753H42.2849L42.3359 64.2857L39.5883 64.3933L39.6392 65.3706L41.234 65.3082L41.285 66.413L39.6902 66.4781C39.6902 66.7189 39.7441 67.5771 39.7554 67.8179L42.622 67.7018L42.6758 68.8093L38.6252 68.9736L38.3533 63.3254Z" fill="#231F20"/>
<path d="M47.2278 63.144L50.9838 63.3338H51.1594L51.1112 64.4414L48.3636 64.3026C48.3636 64.5207 48.3325 65.0617 48.324 65.2798L49.9187 65.3591L49.8706 66.4667L48.2786 66.3874C48.2786 66.6281 48.2305 67.4892 48.222 67.7272L51.0858 67.8716L51.0404 68.9792L46.9927 68.7752L47.2278 63.144Z" fill="#231F20"/>
<path d="M58.442 64.2604L56.7765 64.0225L56.751 64.1867L55.8644 69.6168L57.5328 69.8576C58.9009 70.0559 60.4872 69.5318 60.8242 67.4697C61.1132 65.7163 60.2181 64.5182 58.442 64.2604ZM59.6431 67.2998C59.6227 67.5394 59.5539 67.7723 59.441 67.9846C59.328 68.1969 59.1732 68.384 58.9859 68.5348C58.6055 68.773 58.1471 68.8533 57.7084 68.7586L57.2099 68.6877C57.2552 68.4045 57.7141 65.5719 57.7764 65.2886L58.2778 65.3594C58.7151 65.3923 59.1221 65.5958 59.4108 65.926C59.5708 66.1427 59.6634 66.4018 59.6771 66.6709C59.6924 66.8811 59.681 67.0924 59.6431 67.2998Z" fill="#231F20"/>
</g>
<defs>
<clipPath id="clip0_0_354">
<rect width="89" height="89" fill="white"/>
</clipPath>
</defs>
</svg>
