<svg width="89" height="89" viewBox="0 0 89 89" fill="none" xmlns="http://www.w3.org/2000/svg">
<path d="M44.5 0C19.9716 0 0 19.9538 0 44.5C0 69.0284 19.9716 89 44.5 89C69.0284 89 89 69.0284 89 44.5C89 19.9538 69.0462 0 44.5 0ZM44.5 76.0772C27.0916 76.0772 12.9228 61.9084 12.9228 44.5C12.9228 27.0916 27.0916 12.9228 44.5 12.9228C61.9084 12.9228 76.0772 27.0916 76.0772 44.5C76.0772 61.9084 61.9084 76.0772 44.5 76.0772Z" fill="#848587"/>
<path d="M5.3578 56.7645L4.84161 54.8065C4.59241 53.8631 5.00181 53.1155 5.94521 52.8485C6.60381 52.6705 7.36921 52.7239 7.70741 53.3825H7.72521C7.65401 52.8485 8.01001 52.4391 8.50841 52.2611L9.52301 51.9407C10.1816 51.7271 10.324 51.5847 10.3952 51.3711L10.6266 52.2611C10.5376 52.4213 10.0926 52.5993 9.80781 52.6883L8.88221 52.9909C8.06341 53.2757 8.13461 53.7385 8.24141 54.1123L8.50841 55.1269L11.1962 54.4149L11.392 55.1625L5.3578 56.7645ZM7.90321 55.3049L7.70741 54.5751C7.60061 54.1301 7.38701 53.3291 6.21221 53.6317C5.62481 53.7919 5.3578 54.2903 5.5358 54.9845L5.76721 55.8745L7.90321 55.3049Z" fill="white"/>
<path d="M3.9516 50.4274L3.6134 47.2234L4.2898 47.1522L4.539 49.5908L6.497 49.395L6.2478 47.081L6.9242 47.0098L7.1734 49.3238L9.39841 49.0746L9.1314 46.5292L9.8078 46.458L10.1638 49.7688L3.9516 50.4274Z" fill="white"/>
<path d="M5.30446 41.3138C4.64586 41.2782 4.18306 41.4918 4.12966 42.2216C4.09406 42.8624 4.41446 43.2718 5.09086 43.3074C6.85306 43.4142 5.96306 40.406 8.25926 40.5306C9.70106 40.6196 10.0571 41.6876 10.0037 42.5776C9.91466 44.0372 9.14926 44.4288 7.81426 44.3398L7.86766 43.5744C8.56186 43.61 9.32726 43.61 9.38066 42.4886C9.41626 41.8834 9.00686 41.385 8.34826 41.3494C6.58606 41.2426 7.44046 44.2508 5.14426 44.1262C4.57466 44.0906 3.43546 43.788 3.52446 42.2038C3.59566 41.0112 4.21866 40.5128 5.37566 40.5662L5.30446 41.3138Z" fill="white"/>
<path d="M4.16516 37.3801L4.50336 35.8137C4.62796 35.2797 4.91276 33.9269 6.67496 34.3007C7.81416 34.5499 8.29476 35.4221 8.06336 36.4545L7.86756 37.3801L10.4486 37.9497L10.2884 38.6973L4.16516 37.3801ZM7.22676 37.2555L7.42256 36.3655C7.54716 35.8137 7.26236 35.2797 6.46136 35.1017C5.78496 34.9593 5.28656 35.1729 5.12636 35.9205L4.94836 36.7749L7.22676 37.2555Z" fill="white"/>
<path d="M9.96802 29.014C11.4454 29.5836 12.8872 30.4558 12.2642 32.0578C11.6412 33.6598 9.98582 33.3394 8.50842 32.7698C7.03102 32.2002 5.58922 31.328 6.21222 29.726C6.81742 28.124 8.49062 28.4444 9.96802 29.014ZM8.79322 32.0222C10.146 32.5384 11.2852 32.841 11.6768 31.8442C12.0684 30.8474 11.0182 30.2956 9.66542 29.7794C8.31262 29.2632 7.17342 28.9606 6.78182 29.9574C6.39022 30.9542 7.45822 31.506 8.79322 32.0222Z" fill="white"/>
<path d="M8.34814 25.2405L8.86434 24.3861L14.4001 25.2761L14.4179 25.2583L9.93235 22.5883L10.3239 21.9297L15.6995 25.1337L15.1477 26.0415L9.77214 25.1693V25.1871L14.1153 27.7681L13.7237 28.4445L8.34814 25.2405Z" fill="white"/>
<path d="M15.1656 18.3519C14.6672 17.9247 14.1688 17.8179 13.6882 18.3697C13.2788 18.8681 13.2966 19.3843 13.795 19.8115C15.1478 20.9507 16.2514 18.0137 17.9958 19.4911C19.0994 20.4167 18.7256 21.5025 18.156 22.1789C17.2126 23.3003 16.3582 23.1401 15.3436 22.2857L15.842 21.6983C16.376 22.1433 16.9812 22.6061 17.711 21.7339C18.1026 21.2711 18.0848 20.6125 17.5686 20.1853C16.2158 19.0461 15.0944 21.9653 13.3322 20.4701C12.8872 20.0963 12.1752 19.1707 13.1898 17.9603C13.9552 17.0525 14.7562 17.0169 15.6462 17.7467L15.1656 18.3519Z" fill="white"/>
<path d="M16.5006 14.6492L17.0702 14.1152L21.3244 18.7076L20.7548 19.2416L16.5006 14.6492Z" fill="white"/>
<path d="M19.1884 12.2818L20.737 11.1604C21.3956 10.6798 22.2678 10.5374 22.9798 11.5164C23.318 11.9792 23.3714 12.6378 22.9976 13.1184V13.1362C23.7274 12.8336 24.3504 13.1184 24.7954 13.7414C25.543 14.7738 25.2582 15.6104 24.208 16.3758L22.8374 17.3726L19.1884 12.2818ZM21.3956 14.0084L22.1076 13.4922C22.3746 13.2964 22.9264 12.8158 22.3568 12.0326C21.983 11.5164 21.5024 11.3918 20.8794 11.8368L20.1674 12.353L21.3956 14.0084ZM23.1222 16.3936L23.9766 15.7706C24.6352 15.29 24.5462 14.6848 24.1902 14.1864C23.6918 13.4922 23.051 13.5456 22.4992 13.9372L21.7516 14.4712L23.1222 16.3936Z" fill="white"/>
<path d="M24.7598 8.59721L25.454 8.24121L27.9638 13.2252L30.2422 12.0682L30.5448 12.6734L27.59 14.1686L24.7598 8.59721Z" fill="white"/>
<path d="M30.2067 6.08735L33.2683 5.07275L33.4819 5.71355L31.1501 6.49675L31.7731 8.34795L33.9803 7.61815L34.1939 8.27675L31.9867 9.00655L32.6987 11.1248L35.1373 10.3238L35.3509 10.9646L32.1825 12.0148L30.2067 6.08735Z" fill="white"/>
<path d="M39.9609 3.64888L40.7263 3.63108L41.8833 8.68628H41.9011L42.5775 3.54208L43.5031 3.50648L44.5889 8.59728H44.6067L45.3721 3.43528L46.1375 3.41748L45.0873 9.70088L44.1617 9.75428L43.0937 4.71688H43.0759L42.3817 9.80768L41.4383 9.86108L39.9609 3.64888Z" fill="white"/>
<path d="M51.5489 7.19096C51.3531 8.75736 50.8547 10.3772 49.1459 10.1636C47.4371 9.94996 47.3658 8.24116 47.5616 6.67476C47.7574 5.10836 48.2558 3.48856 49.9824 3.70216C51.6734 3.93356 51.7447 5.62456 51.5489 7.19096ZM48.3449 6.78156C48.1669 8.22336 48.1491 9.39816 49.2171 9.54056C50.2851 9.68296 50.5699 8.52596 50.7479 7.10196C50.9259 5.66016 50.9436 4.48536 49.8756 4.34296C48.8254 4.20056 48.5407 5.35756 48.3449 6.78156Z" fill="white"/>
<path d="M57.1558 8.66859C56.7108 10.1816 55.981 11.7124 54.3256 11.2318C52.6702 10.7512 52.8482 9.06018 53.2932 7.54718C53.7382 6.03418 54.468 4.50339 56.1234 4.98399C57.7788 5.46459 57.6008 7.15559 57.1558 8.66859ZM54.0586 7.77859C53.6492 9.16699 53.4712 10.3418 54.4858 10.6266C55.5182 10.9292 55.981 9.82558 56.3726 8.43718C56.7642 7.04878 56.96 5.87398 55.9454 5.58918C54.9308 5.30438 54.468 6.39018 54.0586 7.77859Z" fill="white"/>
<path d="M60.5556 6.65723L61.2498 6.97763L58.918 12.0328L61.232 13.1008L60.9472 13.7238L57.939 12.3354L60.5556 6.65723Z" fill="white"/>
<path d="M71.0932 15.2548C71.5204 14.7564 71.645 14.258 71.0754 13.7774C70.577 13.3502 70.0608 13.368 69.6336 13.8842C68.4944 15.2192 71.4136 16.3406 69.9362 18.085C68.9928 19.1886 67.9248 18.8148 67.2484 18.2274C66.1448 17.2662 66.305 16.4296 67.1594 15.415L67.7468 15.9134C67.284 16.4474 66.839 17.0526 67.6934 17.7824C68.1562 18.174 68.797 18.1562 69.242 17.6578C70.399 16.305 67.4798 15.1658 68.975 13.4214C69.3488 12.9764 70.2922 12.2644 71.4848 13.2968C72.3926 14.0622 72.4104 14.881 71.6806 15.7532L71.0932 15.2548Z" fill="white"/>
<path d="M71.1822 21.9653L70.666 21.3957L74.8668 17.7289L73.8344 16.5541L74.3506 16.0913L76.9138 19.0461L76.4154 19.4911L75.3652 18.2985L71.1822 21.9653Z" fill="white"/>
<path d="M78.676 21.4844L79.2456 22.3388L74.9558 27.1982L74.5108 26.5218L75.6856 25.2046L74.582 23.5314L72.891 24.101L72.446 23.4246L78.676 21.4844ZM75.205 23.3356L76.1306 24.7418L78.2132 22.41V22.3922L75.205 23.3356Z" fill="white"/>
<path d="M81.5952 26.4331L81.9868 27.3409L78.0174 31.3103L78.0352 31.3281L82.8234 29.2633L83.126 29.9575L77.3944 32.4495L76.9672 31.4883L80.812 27.6257V27.6079L76.1662 29.6193L75.8458 28.9251L81.5952 26.4331Z" fill="white"/>
<path d="M84.0693 32.7339L84.4787 34.3537C84.9593 36.2405 83.6599 36.8101 81.9867 37.2373C80.4559 37.6289 78.8539 37.6111 78.4445 35.9557L78.0173 34.2647L84.0693 32.7339ZM78.8005 34.8521L78.9963 35.6353C79.3167 36.9169 80.6873 36.7389 81.7731 36.4719C82.9479 36.1693 84.1761 35.7777 83.8379 34.4249L83.6421 33.6417L78.8005 34.8521Z" fill="white"/>
<path d="M85.6002 40.7796L85.6892 41.812L79.6016 44.0014L79.5304 43.2004L81.2036 42.613L81.0434 40.6194L79.299 40.299L79.2278 39.498L85.6002 40.7796ZM81.6664 40.7262L81.8088 42.3994L84.7636 41.3492V41.3314L81.6664 40.7262Z" fill="white"/>
<path d="M85.7783 45.8884L85.6359 47.8998C85.5647 48.8788 84.9416 49.4484 83.9626 49.3772C83.2862 49.3238 82.5743 49.039 82.4675 48.3092H82.4496C82.3428 48.8432 81.88 49.1102 81.346 49.1102L80.278 49.0746C79.5838 49.0568 79.4059 49.1636 79.2812 49.3416L79.3525 48.416C79.4949 48.2914 79.9577 48.2736 80.2603 48.2736L81.2393 48.2914C82.0937 48.2914 82.1827 47.8286 82.2183 47.437L82.2895 46.4046L79.5126 46.2088L79.566 45.4434L85.7783 45.8884ZM82.8946 46.4402L82.8413 47.2056C82.8057 47.6684 82.7523 48.4872 83.9449 48.5762C84.5501 48.6118 84.9772 48.238 85.0306 47.526L85.1019 46.6004L82.8946 46.4402Z" fill="white"/>
<path d="M85.0484 52.4923L84.6568 54.1121C84.194 55.9989 82.77 55.9099 81.0968 55.5005C79.566 55.1267 78.142 54.3791 78.5514 52.7059L78.9608 50.9971L85.0484 52.4923ZM79.4058 51.9049L79.21 52.6881C78.8896 53.9875 80.189 54.4503 81.2748 54.7173C82.4496 55.0021 83.7312 55.2335 84.0516 53.8629L84.2474 53.0797L79.4058 51.9049Z" fill="white"/>
<path d="M26.8958 79.8332C26.255 80.83 25.3116 81.542 24.1368 80.8834C22.5882 80.0112 23.1934 78.4448 23.9766 77.0564C24.742 75.6858 25.8278 74.3686 27.323 75.2052C28.4444 75.8282 28.5512 76.7182 27.9816 77.804L27.2874 77.4124C27.6256 76.7894 27.7146 76.1486 27.0204 75.757C26.0948 75.2408 25.4006 76.1842 24.6886 77.448C23.9766 78.7118 23.5316 79.7976 24.4572 80.3316C25.276 80.7944 25.81 80.0824 26.2194 79.4416L26.8958 79.8332Z" fill="white"/>
<path d="M30.4202 76.9141L33.4462 78.0533L33.197 78.6941L30.9008 77.8219L30.2066 79.6553L32.3782 80.4741L32.129 81.1149L29.9574 80.2961L29.1564 82.3965L31.5594 83.3043L31.3102 83.9451L28.1952 82.7525L30.4202 76.9141Z" fill="white"/>
<path d="M35.1372 78.5693L37.113 79.0143C38.0742 79.2279 38.5548 79.9221 38.3412 80.9011C38.1988 81.5775 37.8072 82.2183 37.0596 82.2361V82.2539C37.5758 82.4319 37.7894 82.9303 37.7004 83.4643L37.5224 84.5145C37.3978 85.1909 37.4868 85.4045 37.6292 85.5469L36.7214 85.3511C36.6146 85.1909 36.668 84.7281 36.7036 84.4255L36.8638 83.4643C36.9884 82.6099 36.5434 82.4675 36.1518 82.3785L35.1372 82.1471L34.532 84.8705L33.7844 84.7103L35.1372 78.5693ZM35.2618 81.5063L36.0094 81.6665C36.4544 81.7733 37.2732 81.9513 37.5224 80.7587C37.647 80.1535 37.3444 79.6907 36.6324 79.5483L35.7246 79.3525L35.2618 81.5063Z" fill="white"/>
<path d="M41.7589 85.9563L40.9934 85.9029L41.4206 80.3493L39.8542 80.2247L39.9076 79.5483L43.8059 79.8331L43.7702 80.5273L42.186 80.4027L41.7589 85.9563Z" fill="white"/>
<path d="M45.3544 79.7973L46.1198 79.7617L46.3156 86.0273L45.5502 86.0451L45.3544 79.7973Z" fill="white"/>
<path d="M48.0956 79.655L51.2996 79.21L51.3886 79.9042L48.95 80.2246L49.217 82.1826L51.5132 81.8622L51.6022 82.5386L49.306 82.859L49.6976 85.7604L48.9322 85.8494L48.0956 79.655Z" fill="white"/>
<path d="M52.866 78.8362L53.6136 78.6582L55.1088 84.728L54.3612 84.9238L52.866 78.8362Z" fill="white"/>
<path d="M55.5182 78.1422L58.5442 77.0386L58.7934 77.6794L56.4794 78.516L57.1558 80.3672L59.3274 79.5662L59.5588 80.207L57.3872 81.008L58.1526 83.1084L60.5556 82.2362L60.8048 82.877L57.672 84.0162L55.5182 78.1422Z" fill="white"/>
<path d="M60.2174 76.2907L61.677 75.4897C63.3858 74.5463 64.2758 75.6677 65.0946 77.1807C65.86 78.5691 66.2516 80.1177 64.7386 80.9365L63.2078 81.7731L60.2174 76.2907ZM63.5994 80.8475L64.3114 80.4559C65.4862 79.8151 64.9522 78.5513 64.4182 77.5545C63.8308 76.4865 63.1366 75.4007 61.9084 76.0771L61.1964 76.4687L63.5994 80.8475Z" fill="white"/>
<path d="M22.3925 26.5576H28.2843C30.9009 26.5576 32.5029 27.9282 32.5029 30.6338C32.5029 32.7342 31.6663 34.1582 29.8685 34.532V34.5676C32.0401 34.8524 32.3783 36.045 32.4139 39.4092C32.4317 41.0646 32.5207 41.9368 33.1259 42.2572V42.3996H29.6727C29.3523 41.9546 29.2989 41.3494 29.2633 40.7264L29.1743 37.6826C29.1387 36.4366 28.5691 35.689 27.2875 35.689H25.5787V42.3818H22.3925V26.5576ZM25.5965 33.4818H26.9315C28.4623 33.4818 29.3345 32.8232 29.3345 31.1144C29.3345 29.6548 28.5513 28.925 27.1095 28.925H25.5965V33.4818Z" fill="#848587"/>
<path d="M37.113 26.5576H40.1746L41.919 38.27H41.9724L43.8236 26.5576H46.8852L48.7542 38.27H48.8076L50.552 26.5576H53.6136L50.73 42.3996H47.1522L45.39 30.9008H45.3366L43.5566 42.3996H39.9966L37.113 26.5576Z" fill="#848587"/>
<path d="M60.5556 37.4513V37.9141C60.5556 39.3915 60.9828 40.3527 62.656 40.3527C63.635 40.3527 64.5606 39.7297 64.5606 38.3947C64.5606 36.9529 63.8308 36.4189 61.7126 35.6891C58.8646 34.7101 57.5652 33.5353 57.5652 30.9009C57.5652 27.8215 59.452 26.2373 62.4602 26.2373C65.3082 26.2373 67.373 27.4655 67.373 30.4915V30.9365H64.3292C64.3292 29.4591 63.813 28.5869 62.6026 28.5869C61.1608 28.5869 60.787 29.4947 60.787 30.4203C60.787 31.3993 61.0718 31.9867 62.4246 32.5741L64.881 33.6421C67.284 34.6923 67.907 35.9027 67.907 37.8429C67.907 41.1893 65.86 42.7023 62.4068 42.7023C58.7934 42.7023 57.3694 41.0113 57.3694 38.0921V37.4513H60.5556Z" fill="#848587"/>
<path d="M37.4334 35.2259C37.4334 36.2583 36.5968 37.0949 35.5644 37.0949C34.532 37.0949 33.6954 36.2583 33.6954 35.2259C33.6954 34.1935 34.532 33.3569 35.5644 33.3569C36.5968 33.3569 37.4334 34.1935 37.4334 35.2259Z" fill="#848587"/>
<path d="M57.0134 35.2259C57.0134 36.2583 56.1768 37.0949 55.1444 37.0949C54.112 37.0949 53.2754 36.2583 53.2754 35.2259C53.2754 34.1935 54.112 33.3569 55.1444 33.3569C56.1768 33.3569 57.0134 34.1935 57.0134 35.2259Z" fill="#848587"/>
<path d="M15.2902 44.4468C15.2902 60.5914 28.3732 73.6744 44.5 73.6744C60.6446 73.6744 73.7098 60.5914 73.7098 44.4468H15.2902Z" fill="#848587"/>
<path d="M31.6839 53.2398C31.9331 52.9372 31.8975 53.1152 32.0399 52.9906C32.0577 52.9728 32.0755 52.777 32.1467 52.7592C32.4849 52.2608 33.0901 52.065 33.3927 51.7802C33.6953 51.4776 34.3005 51.3886 34.3005 51.3886C34.3005 51.3886 34.3539 51.1038 34.7099 50.997C34.8167 50.9614 35.0659 51.1572 35.2795 51.086C35.5109 51.0148 35.7067 50.7478 35.8135 50.6944C35.9203 50.641 36.9171 50.641 37.9139 50.6232C37.9851 50.5342 38.1097 50.4808 38.6615 50.5342C38.8217 50.552 38.9819 50.6054 39.1599 50.6588C39.9075 50.7122 40.4949 50.8724 40.4949 50.8724C40.4949 50.8724 41.0467 50.8902 41.3849 50.9258C41.7231 50.9614 41.8655 51.1216 42.0435 51.1572C42.1147 51.175 42.3283 51.1928 42.6131 51.1928C42.7199 51.1928 42.8445 51.1216 42.9691 51.1394C43.2183 51.1572 43.4497 51.2284 43.6633 51.2462C43.7701 51.264 43.9125 51.2284 44.0727 51.2284C44.2685 51.2462 44.4821 51.2818 44.7135 51.264C44.9449 51.2462 44.9983 51.1216 45.1229 51.086C45.2297 51.0504 45.4078 51.1394 45.4967 51.1394C45.5857 51.1394 45.7459 51.1038 45.8171 51.1038C46.0129 51.1394 46.1197 51.2284 46.1731 51.2284C46.2443 51.2284 46.3155 51.2284 46.3689 51.2462C46.4757 51.2106 46.6359 51.1216 46.9029 51.086C47.2411 51.0326 47.3657 50.7478 48.0065 50.6944C48.6473 50.641 48.5227 50.7834 48.9499 50.9258C48.9677 50.9258 48.9677 50.9258 48.9855 50.9258C49.1635 50.9258 49.5373 50.8012 49.9289 50.6766C49.9646 50.641 50.0001 50.6232 50.0001 50.6232C50.0001 50.6232 50.5875 50.463 50.6943 50.1604C50.8189 49.8578 50.9791 49.6086 50.9791 49.6086C50.9791 49.6086 51.0148 49.2348 51.4598 48.8432C51.9226 48.4516 51.798 48.7898 51.9048 48.505C52.0116 48.2202 52.5634 47.6684 53.3109 47.3658C53.6313 47.2412 53.7738 47.3302 53.756 47.4726C53.7738 47.4726 53.7915 47.4726 53.7915 47.4726C53.7915 47.4726 53.934 47.2946 54.0408 47.259C54.1476 47.2412 54.4324 47.3124 54.468 47.3124C54.8239 47.0632 54.9841 46.9742 55.5182 46.9208C56.1945 46.8496 56.0877 47.2412 56.1411 47.2412C56.337 47.2412 56.5683 47.259 56.9422 47.2946C57.4405 47.3302 57.1557 47.8286 56.9955 48.06C57.0667 48.0778 57.2092 48.0956 57.2981 48.1668C57.4228 48.2558 57.6008 48.3804 57.761 48.4338C57.9212 48.4872 58.0102 48.6118 58.0458 48.7542C58.0814 48.8966 57.9745 49.1636 57.9745 49.1636C57.9745 49.1636 58.1169 49.2526 58.1703 49.306C58.2415 49.3594 58.4907 49.6264 58.6153 49.6976C58.7399 49.7866 59.1493 50.107 59.3451 50.2672C59.541 50.4096 59.7901 50.7478 59.8435 50.7656C59.8791 50.7656 60.0571 50.8902 60.2352 51.1394C60.4132 51.3708 60.5199 51.7268 60.4844 52.1006C60.4487 52.4566 60.0215 52.4566 60.0215 52.4566C60.0215 52.4566 60.1284 52.688 59.986 52.8482C59.8258 53.0262 59.6834 53.0796 59.4698 53.1152C59.2562 53.1508 58.9713 52.9372 58.9713 52.9372C58.9713 52.9372 58.6509 52.8482 58.5085 52.8838C58.3661 52.9194 57.7432 52.7592 57.7432 52.7592C57.7432 52.7592 57.7966 53.0084 57.7432 53.133C57.6898 53.2398 57.6542 53.5068 57.6542 53.5068C57.6542 53.5068 57.4762 53.8806 57.5118 54.1298C57.5474 54.379 57.4762 54.6994 57.4228 54.8774C57.3694 55.0554 57.3338 55.1088 57.316 55.2868C57.316 55.3402 57.2981 55.4114 57.2625 55.4826C57.3871 55.8208 57.2626 55.9276 56.9778 56.1234C56.9778 56.1412 56.9778 56.159 56.9778 56.159C56.8888 56.1946 56.7998 56.3726 56.7998 56.3726C56.7998 56.3726 56.5683 56.9066 56.2302 57.494C56.0521 57.7966 55.9809 58.0458 55.9453 58.206C55.9453 58.2416 55.9453 58.2594 55.9453 58.2594C55.9453 58.2594 55.9453 58.2594 55.9275 58.2594C55.9097 58.384 55.9275 58.4374 55.9275 58.4374C55.9275 58.4374 55.892 58.6332 55.7318 58.8824C55.6784 58.9536 55.6072 59.0248 55.5538 59.0782C55.3936 59.5766 54.8773 60.0038 54.5569 60.1818C54.3967 60.4844 54.3078 60.9472 53.934 61.143C53.7738 61.232 53.4711 61.3388 53.3821 61.3388C53.3643 61.3744 53.4177 61.41 53.3465 61.5346C53.2753 61.6592 52.1005 62.923 51.3351 63.012C51.3529 63.2612 51.3529 63.4748 51.2995 63.546C51.2105 63.6884 51.3529 63.8486 51.2461 63.9198C51.1215 64.0088 51.1928 64.2224 51.1038 64.2402C51.0148 64.2758 51.0859 64.4894 51.0503 64.5606C50.9257 64.8098 50.7122 64.7564 50.7478 65.0056C50.7833 65.2548 50.7477 65.6642 50.8901 65.8244C51.0325 65.9846 51.3174 66.216 51.1928 66.3228C51.0682 66.4296 51.3351 66.5364 51.2461 66.8746C51.1571 67.195 51.2995 67.3908 51.264 67.551C51.2283 67.7112 51.4419 67.8892 51.4419 67.8892V68.4054L51.4598 68.8148C51.4598 68.8148 51.5843 69.1352 51.7445 69.2776C51.8869 69.42 52.0471 69.8116 51.976 69.954C51.798 70.3278 51.2283 70.0786 50.7655 69.9896C50.3027 69.9006 50.4807 69.8472 50.4451 69.6158C50.4095 69.4022 50.3918 69.2954 50.285 69.2242C50.1603 69.1352 50.0357 69.0284 50.0891 68.7614C50.1425 68.4944 50.1603 68.7792 49.9823 68.3342C49.7331 67.6934 49.7688 67.3552 49.7688 67.3552C49.7688 67.3552 49.6441 66.5898 49.4661 66.4474C49.2881 66.305 49.1813 65.9312 49.1813 65.9312C49.1813 65.9312 49.0389 65.4328 49.1813 65.1658C49.3237 64.8988 48.8253 64.7742 48.7185 64.703C48.6117 64.614 48.4693 64.2936 48.4693 64.2936H48.4515C48.4515 64.2936 48.4693 64.4182 48.4693 64.6318C48.4693 64.8632 48.1845 65.059 48.0065 65.2548C47.8107 65.4506 47.8463 65.2726 47.7218 65.3794C47.615 65.4862 47.6327 65.682 47.4548 65.8956C47.2589 66.127 47.1521 66.394 47.1521 66.394C47.1521 66.394 47.0987 66.6966 47.1521 66.839C47.2055 66.9992 46.9385 67.0882 46.9385 67.1594C46.9385 67.2306 46.7783 67.7112 46.7783 67.7112V68.1028L46.7428 68.4588C46.7428 68.4588 46.6181 68.53 46.7605 68.8148C46.9029 69.0996 46.9029 69.4556 46.9029 69.4556C47.0631 69.776 46.9564 69.8294 46.1198 69.7582C45.301 69.687 45.5501 69.3132 45.5501 69.1886C45.5501 69.064 45.3544 68.6724 45.4078 68.5478C45.4612 68.4232 45.2653 68.2986 45.4611 68.2274C45.6569 68.174 45.3543 67.8714 45.3543 67.7112C45.3543 67.551 45.5145 67.0526 45.5501 66.9814C45.5857 66.9102 45.7459 66.572 45.7459 66.572C45.7459 66.572 45.8883 66.2694 45.9417 66.0736C45.9951 65.8778 46.0485 65.771 46.1198 65.6642C46.191 65.5574 45.9061 65.1302 45.9417 64.9522C45.9774 64.7742 45.9061 64.4004 45.8883 64.1868C45.8705 63.991 45.7815 63.8486 45.7815 63.8486C45.7815 63.8486 45.5679 63.5994 45.6569 63.4036C45.7459 63.2078 45.3009 63.5638 45.2119 63.2256C45.1763 63.0654 45.0873 62.8874 44.9271 62.6738C44.6245 63.2078 44.2863 62.8874 44.2863 62.8874C44.2863 62.8874 44.1083 62.834 43.8057 62.9408C43.5031 63.0654 43.5921 63.101 43.1115 62.8874C42.9691 62.834 42.8623 62.745 42.7911 62.6738C42.6665 62.656 42.4529 62.567 42.2749 62.6382C42.0791 62.7094 42.1147 62.6204 41.8833 62.6204C41.8477 62.6204 41.8299 62.6204 41.7943 62.6204C41.5451 62.7272 40.9399 62.8518 40.7441 62.6382C40.7441 62.6382 40.6017 62.6204 40.3169 62.6026C40.0321 62.567 40.0143 62.4424 39.9431 62.6026C39.9253 62.656 39.9075 62.656 39.8897 62.6204C39.9965 63.101 39.6761 63.0298 39.6939 63.2078C39.7117 63.4036 39.6939 63.2968 39.6583 63.457C39.6227 63.6172 39.5693 63.5816 39.5515 63.6706C39.5159 63.7774 39.5337 63.9198 39.5159 64.08C39.4981 64.2402 39.1777 64.4538 39.2311 64.6496C39.2845 64.8454 39.1243 64.8276 39.2667 64.9522C39.4091 65.059 39.3735 65.1658 39.3379 65.3438C39.3023 65.504 39.3557 65.504 39.4803 65.593C39.6227 65.6642 39.1777 65.8422 39.3557 65.9312C39.5337 66.0202 39.4625 66.1448 39.5337 66.3228C39.6049 66.5008 39.5693 66.5364 39.6405 66.661C39.6939 66.7856 39.7651 66.9102 39.9075 67.1238C40.0677 67.3374 39.8719 67.3908 40.0499 67.5866C40.2457 67.7824 40.1567 67.7824 40.0855 67.996C40.0143 68.2096 40.0321 68.1028 39.9609 68.3164C39.8897 68.5122 40.2279 68.9038 40.2279 68.9038C40.2279 68.9038 40.3169 69.064 40.4059 69.153C40.4949 69.242 40.4949 69.2598 40.5839 69.3666C40.6729 69.4734 40.7797 69.6692 40.7263 69.8116C40.6907 69.954 40.4415 69.954 39.8363 69.9184C39.2311 69.865 39.1955 69.8294 39.2311 69.7226C39.2489 69.6158 39.1599 69.4378 39.1599 69.3488C39.1599 69.2776 39.0709 69.0996 39.0709 69.0996C39.0709 69.0996 39.0353 69.0106 38.8929 68.9928C38.7683 68.9928 38.8573 68.7436 38.6971 68.7436C38.5369 68.7436 38.6259 68.3876 38.6081 68.2986C38.5725 68.2274 38.5903 68.263 38.4301 68.1206C38.2877 67.9782 38.3411 67.729 38.2877 67.7112C38.2165 67.6756 38.2165 67.4798 38.1631 67.2662C38.1097 67.0526 38.1631 67.1238 38.0741 66.9458C37.9851 66.7678 37.9495 66.6966 37.9495 66.572C37.9495 66.4474 37.8961 66.3584 37.8249 66.305C37.7715 66.2516 37.7359 65.9846 37.7181 65.8422C37.7181 65.6998 37.6647 65.5218 37.5935 65.326C37.5223 65.1302 37.2909 64.8454 37.0951 64.5428C36.8993 64.2402 37.1307 64.1512 36.9883 63.9732C36.8281 63.813 36.8281 63.635 36.8637 63.4036C36.8993 63.19 36.8103 63.012 36.8103 62.8696C36.8103 62.745 36.7747 62.7094 36.6857 62.6382C36.6501 62.7094 36.6145 62.7806 36.5255 62.834C36.3119 62.9942 36.4187 62.9052 36.3297 63.19C36.2407 63.4748 36.3119 63.4392 36.0805 63.7952C35.8313 64.1512 35.7067 64.1334 35.5999 64.1868C35.4931 64.2402 35.5109 64.4716 35.5465 64.6674C35.5821 64.881 35.5109 64.8276 35.5287 64.9522C35.5643 65.0768 35.5821 65.1836 35.5999 65.3438C35.5999 65.504 35.6177 65.7176 35.7245 65.949C35.8135 66.1804 35.7245 66.3762 35.6889 66.6254C35.6533 66.8746 35.9203 66.9102 35.9381 67.1772C35.9559 67.4442 35.9025 67.462 35.9203 67.6934C35.9381 67.907 36.0805 67.9248 36.1873 68.1384C36.2763 68.352 36.2051 68.3698 36.2941 68.4766C36.3831 68.5834 36.3831 68.9216 36.3831 68.9216C36.3831 68.9216 36.4187 69.0106 36.4721 69.1708C36.5255 69.331 36.4543 69.4734 36.1161 69.4734C35.7779 69.4734 34.9591 69.3488 34.9591 69.2598C34.9591 69.153 34.7811 68.9038 34.7811 68.9038C34.7811 68.9038 34.7989 68.6724 34.7811 68.5834C34.7455 68.4944 34.6209 68.174 34.5141 68.0672C34.4251 67.9604 34.4607 67.8536 34.4607 67.6756C34.4607 67.4976 34.5675 67.3018 34.4963 67.0704C34.4251 66.839 34.4073 66.6432 34.3361 66.2872C34.2471 65.9312 34.2293 65.4328 34.1759 65.2192C34.1225 65.0056 34.0513 64.4538 33.9801 64.2936C33.9089 64.1334 33.8555 63.5816 33.7843 63.2968C33.7309 63.012 33.6597 62.4424 33.7131 62.1576C33.7665 61.8728 33.6953 61.6414 33.7487 61.5702C33.7487 61.5702 33.7665 61.5524 33.7665 61.5346C33.6953 61.4634 33.5707 61.3566 33.4995 61.321C33.3037 61.2142 33.3393 61.0006 33.3749 60.9294C33.3927 60.8582 33.2325 60.8404 33.1079 60.7514C32.9833 60.6624 33.0189 60.5912 32.9299 60.5378C32.8231 60.4844 32.8409 60.3598 32.8053 60.164C32.7697 59.986 32.6629 59.7368 32.7697 59.6478C32.8765 59.5588 32.7163 59.3096 32.7163 59.3096C32.7163 59.3096 32.7875 58.9892 32.6985 58.8468C32.6451 58.7578 32.6273 58.651 32.5917 58.5442C32.4849 58.5442 32.3781 58.5264 32.3425 58.4374C32.2535 58.2594 32.5205 57.8856 32.4315 57.7076C32.3781 57.672 32.3069 57.6186 32.3069 57.6186C32.3069 57.6186 32.2001 57.4228 32.1111 57.2982C32.0577 57.227 31.8085 56.7286 31.7551 56.2836C31.7017 55.9276 31.8441 55.2868 31.7729 55.2156C31.7195 55.1622 31.7017 55.5716 31.5059 55.8564C31.4169 55.981 31.3991 56.1234 31.2923 56.2836C31.1855 56.4438 31.2211 56.3726 31.0431 56.4794C30.9185 56.5506 30.7939 56.6218 30.6693 56.5506C30.4557 56.4082 30.4201 56.3548 30.3667 56.1234C30.3489 56.0166 30.3133 55.981 30.3311 55.803C30.3311 55.714 30.3489 55.6784 30.4023 55.536C30.4201 55.4826 30.4557 55.2868 30.4913 55.2156C30.5981 55.002 30.5981 54.913 30.6871 54.7884C30.7405 54.7172 30.7583 54.5214 30.8117 54.4324C30.8473 54.3612 30.9719 54.2722 31.0253 54.1832C31.0787 54.0942 31.2211 53.9162 31.3101 53.7738" fill="white"/>
</svg>
